<svg id="svg" version="1.1" width="400" height="400" viewBox="0 0 400 400" xmlns="http://www.w3.org/2000/svg" xmlns:xlink="http://www.w3.org/1999/xlink" ><g id="svgg"><path id="path0" d="M0.000 200.000 L 0.000 400.000 106.800 400.000 L 213.600 400.000 213.600 323.080 C 213.600 263.787,213.490 246.050,213.120 245.680 C 212.757 245.317,206.540 245.199,187.620 245.194 C 173.859 245.191,162.370 245.042,162.090 244.864 C 161.386 244.417,161.336 184.200,162.039 183.353 C 162.421 182.893,166.724 182.800,187.659 182.800 L 212.820 182.800 213.210 181.774 C 213.451 181.140,213.600 169.172,213.600 150.461 C 213.600 124.547,213.688 119.859,214.210 117.987 C 214.545 116.784,215.057 114.540,215.347 113.000 C 215.637 111.460,216.173 109.624,216.537 108.920 C 216.902 108.216,217.200 107.224,217.200 106.717 C 217.200 106.209,217.650 104.948,218.200 103.915 C 218.750 102.882,219.200 101.690,219.200 101.267 C 219.200 100.844,219.469 100.275,219.798 100.002 C 220.127 99.728,220.606 98.806,220.861 97.953 C 221.117 97.099,221.470 96.400,221.645 96.400 C 221.819 96.400,222.327 95.635,222.771 94.700 C 225.138 89.725,231.860 81.602,237.823 76.512 C 238.910 75.584,240.105 74.559,240.479 74.234 C 240.852 73.909,241.707 73.358,242.379 73.011 C 243.050 72.664,243.600 72.244,243.600 72.077 C 243.600 71.911,244.095 71.549,244.700 71.273 C 246.399 70.496,248.385 69.335,249.128 68.684 C 249.497 68.360,250.250 67.962,250.800 67.800 C 251.350 67.638,252.070 67.274,252.400 66.992 C 252.730 66.710,253.765 66.253,254.700 65.976 C 255.635 65.700,256.400 65.330,256.400 65.155 C 256.400 64.980,257.075 64.714,257.900 64.564 C 258.725 64.414,260.053 63.964,260.852 63.562 C 261.650 63.161,263.423 62.653,264.792 62.432 C 266.160 62.212,267.535 61.820,267.846 61.562 C 269.492 60.195,332.272 59.160,335.940 60.439 L 337.200 60.878 337.200 88.016 C 337.200 109.286,337.092 115.223,336.700 115.476 C 336.425 115.654,327.110 115.910,316.000 116.045 C 304.287 116.186,294.789 116.473,293.393 116.726 C 285.614 118.139,279.064 124.592,276.440 133.428 C 275.351 137.094,275.108 180.374,276.168 181.824 C 276.718 182.577,277.615 182.606,306.068 182.800 L 335.400 183.000 335.520 185.311 C 335.586 186.582,335.374 188.663,335.048 189.935 C 334.722 191.207,334.258 194.487,334.016 197.224 C 333.775 199.961,333.329 203.280,333.025 204.600 C 332.721 205.920,332.358 208.695,332.217 210.766 C 332.076 212.837,331.692 215.897,331.364 217.566 C 331.035 219.235,330.601 222.670,330.399 225.200 C 330.197 227.730,329.845 230.340,329.618 231.000 C 329.390 231.660,328.953 234.871,328.647 238.135 C 328.341 241.399,327.881 244.279,327.625 244.535 C 327.286 244.874,320.319 245.054,301.880 245.200 C 287.976 245.310,276.375 245.546,276.100 245.724 C 275.703 245.981,275.600 261.882,275.600 323.024 L 275.600 400.000 337.800 400.000 L 400.000 400.000 400.000 200.000 L 400.000 0.000 200.000 0.000 L 0.000 0.000 0.000 200.000 " stroke="none" fill="#008cd7" fill-rule="evenodd"></path></g></svg>