<svg id="svg" version="1.1" width="400" height="385.96491228070175" viewBox="0 0 400 385.96491228070175" xmlns="http://www.w3.org/2000/svg" xmlns:xlink="http://www.w3.org/1999/xlink" ><g id="svgg"><path id="path0" d="M81.544 4.324 C 81.263 4.605,81.081 5.972,81.081 7.799 L 81.081 10.811 77.841 10.811 C 74.034 10.811,74.131 10.699,74.131 15.074 L 74.131 18.117 70.753 18.228 L 67.375 18.340 67.263 21.703 L 67.152 25.067 63.788 25.178 L 60.425 25.290 60.313 28.668 L 60.202 32.046 57.159 32.046 C 52.786 32.046,52.896 31.951,52.896 35.741 L 52.896 38.966 49.517 39.078 L 46.139 39.189 46.028 42.553 L 45.916 45.916 42.553 46.028 L 39.189 46.139 39.078 49.517 L 38.966 52.896 37.437 52.896 C 36.596 52.896,35.907 53.069,35.907 53.282 C 35.907 53.494,35.413 53.668,34.809 53.668 C 32.626 53.668,32.290 54.605,32.113 61.205 L 31.953 67.153 28.621 67.264 L 25.290 67.375 25.184 74.228 L 25.079 81.081 22.459 81.081 C 17.851 81.081,18.355 76.089,18.238 122.909 C 18.121 169.678,17.663 164.865,22.228 164.865 L 25.097 164.865 25.097 171.397 C 25.097 179.697,24.838 179.151,28.764 179.151 L 31.963 179.151 32.145 189.286 C 32.389 202.845,33.149 205.258,37.404 205.977 L 38.996 206.245 38.996 209.655 C 38.996 214.441,38.872 214.286,42.690 214.286 L 45.916 214.286 46.027 217.664 L 46.139 221.042 49.517 221.154 L 52.896 221.266 52.896 227.966 C 52.896 235.705,52.555 235.135,57.174 235.135 L 60.232 235.135 60.232 241.313 C 60.232 248.918,60.296 249.035,64.479 249.035 L 67.181 249.035 67.181 252.092 C 67.181 256.482,67.085 256.371,70.876 256.371 L 74.101 256.371 74.213 259.749 L 74.324 263.127 77.703 263.239 L 81.081 263.351 81.081 269.822 C 81.081 277.477,80.944 277.220,85.019 277.220 L 88.031 277.220 88.031 280.295 C 88.031 284.014,88.209 284.170,92.446 284.170 L 95.367 284.170 95.367 287.227 C 95.367 291.618,95.270 291.506,99.061 291.506 L 102.287 291.506 102.398 294.884 L 102.510 298.263 105.873 298.374 L 109.237 298.485 109.348 301.849 L 109.459 305.212 112.823 305.324 L 116.187 305.435 116.298 308.799 L 116.409 312.162 119.773 312.274 L 123.136 312.385 123.248 315.748 L 123.359 319.112 126.737 319.224 L 130.116 319.335 130.116 322.561 C 130.116 326.351,130.004 326.255,134.395 326.255 L 137.452 326.255 137.452 329.312 C 137.452 333.703,137.355 333.591,141.146 333.591 L 144.371 333.591 144.483 336.969 L 144.595 340.347 147.973 340.459 L 151.351 340.571 151.351 341.929 C 151.351 346.854,151.835 347.185,159.348 347.403 L 165.222 347.572 165.333 350.910 L 165.444 354.247 168.822 354.359 L 172.201 354.470 172.201 357.017 C 172.201 361.155,172.637 361.390,180.329 361.390 L 186.486 361.390 186.486 364.447 C 186.486 369.066,185.916 368.726,193.656 368.726 L 200.356 368.726 200.468 372.104 L 200.579 375.483 207.432 375.588 L 214.286 375.693 214.286 378.925 C 214.286 382.954,213.288 382.625,225.514 382.625 L 235.521 382.625 235.521 384.363 L 235.521 386.100 277.413 386.100 L 319.305 386.100 319.305 384.372 L 319.305 382.643 326.158 382.538 L 333.012 382.432 333.123 379.054 L 333.235 375.676 339.756 375.676 C 347.637 375.676,347.490 375.753,347.490 371.594 L 347.490 368.726 350.731 368.726 C 354.539 368.726,354.440 368.840,354.440 364.447 L 354.440 361.390 360.618 361.390 C 368.207 361.390,368.340 361.318,368.340 357.193 L 368.340 354.540 371.000 354.278 C 374.317 353.951,374.783 353.479,375.130 350.088 L 375.396 347.490 378.180 347.490 C 382.071 347.490,382.625 346.967,382.625 343.294 L 382.625 340.541 384.924 340.541 C 387.615 340.541,389.037 339.998,389.344 338.853 C 389.727 337.427,389.590 300.234,389.200 299.618 C 388.940 299.207,387.944 299.001,385.731 298.901 L 382.625 298.760 382.625 295.851 C 382.625 292.179,382.341 291.921,378.282 291.904 L 375.290 291.892 375.290 288.835 C 375.290 284.447,375.383 284.556,371.621 284.556 L 368.422 284.556 368.281 281.451 C 368.112 277.731,367.993 277.620,364.189 277.612 L 361.390 277.606 361.368 275.772 C 361.319 271.618,360.505 270.807,356.274 270.702 L 354.440 270.656 354.440 268.027 C 354.440 263.877,354.519 263.922,346.943 263.777 L 340.541 263.655 340.541 260.440 C 340.541 256.662,340.651 256.757,336.262 256.757 L 333.205 256.757 333.205 253.745 C 333.205 249.669,333.464 249.807,325.792 249.807 L 319.305 249.807 319.305 247.515 C 319.305 244.639,318.803 243.243,317.770 243.243 C 317.340 243.243,316.988 243.069,316.988 242.857 C 316.988 242.605,310.618 242.471,298.649 242.471 C 287.593 242.471,280.309 242.614,280.309 242.830 C 280.309 243.028,279.922 243.245,279.450 243.313 C 278.260 243.484,277.619 244.970,277.612 247.572 L 277.606 249.777 274.228 249.888 L 270.849 250.000 270.738 253.364 L 270.627 256.727 267.263 256.838 L 263.900 256.950 263.789 260.282 L 263.678 263.613 257.730 263.773 C 251.130 263.951,250.193 264.286,250.193 266.469 C 250.193 267.073,250.019 267.568,249.807 267.568 C 249.595 267.568,249.421 268.238,249.421 269.057 L 249.421 270.546 247.052 270.794 C 243.857 271.128,242.943 272.039,242.610 275.223 L 242.364 277.578 239.039 277.688 L 235.714 277.799 235.603 281.178 L 235.491 284.556 228.363 284.556 L 221.236 284.556 221.236 281.315 C 221.236 277.508,221.349 277.606,216.957 277.606 L 213.900 277.606 213.900 276.233 C 213.900 271.289,213.421 270.961,205.888 270.744 L 200.000 270.574 200.000 267.604 C 200.000 263.867,199.838 263.707,196.062 263.707 L 193.050 263.707 193.050 261.078 C 193.050 257.391,192.686 257.005,189.034 256.821 L 186.100 256.672 186.094 253.915 C 186.086 250.122,185.991 250.026,182.060 249.864 L 178.764 249.728 178.764 247.669 C 178.764 245.127,178.223 243.617,177.215 243.354 C 176.793 243.244,176.448 243.000,176.448 242.812 C 176.448 242.625,175.424 242.471,174.173 242.471 L 171.899 242.471 171.751 239.537 C 171.567 235.896,171.174 235.521,167.546 235.521 L 164.969 235.521 164.773 232.785 C 164.523 229.295,164.143 228.913,160.666 228.664 L 157.944 228.470 157.833 225.142 L 157.722 221.815 154.358 221.703 L 150.995 221.592 150.884 218.228 L 150.772 214.865 147.394 214.753 L 144.015 214.642 144.015 210.989 L 144.015 207.336 140.958 207.336 C 136.356 207.336,136.680 207.844,136.680 200.615 C 136.680 193.208,136.805 193.436,132.750 193.436 L 129.748 193.436 129.642 186.583 L 129.537 179.730 126.158 179.618 L 122.780 179.507 122.780 165.262 L 122.780 151.017 129.132 150.895 C 136.563 150.751,136.341 150.869,136.594 146.932 L 136.781 144.015 139.788 144.015 C 144.123 144.015,144.015 144.110,144.015 140.306 L 144.015 137.066 147.490 137.066 C 150.226 137.066,150.965 136.950,150.965 136.520 C 150.965 136.186,151.558 135.875,152.498 135.716 C 154.194 135.430,155.985 134.224,155.985 133.370 C 155.985 133.067,156.156 132.819,156.366 132.819 C 156.576 132.819,156.859 132.124,156.995 131.274 C 157.130 130.425,157.393 129.730,157.578 129.730 C 157.764 129.730,157.915 128.173,157.915 126.270 L 157.915 122.810 161.293 122.698 L 164.672 122.587 164.783 119.208 L 164.895 115.830 167.748 115.830 C 172.186 115.830,171.815 117.735,171.815 94.981 C 171.815 72.224,172.187 74.131,167.742 74.131 L 164.883 74.131 164.777 67.278 L 164.672 60.425 161.302 60.313 L 157.932 60.202 157.827 53.170 L 157.722 46.139 154.358 46.028 L 150.995 45.916 150.884 42.553 L 150.772 39.189 147.394 39.078 L 144.015 38.966 144.015 35.506 L 144.015 32.046 140.830 32.040 C 136.455 32.032,136.716 32.473,136.593 24.887 L 136.486 18.340 133.108 18.228 L 129.730 18.117 129.730 15.074 C 129.730 10.699,129.827 10.811,126.020 10.811 L 122.780 10.811 122.780 7.799 C 122.780 5.972,122.598 4.605,122.317 4.324 C 121.649 3.656,82.212 3.656,81.544 4.324 " stroke="none" fill="#008cd7" fill-rule="evenodd"></path><path id="path1" d="" stroke="none" fill="#008cd7" fill-rule="evenodd"></path><path id="path2" d="" stroke="none" fill="#008cd7" fill-rule="evenodd"></path></g></svg>