<svg id="svg" version="1.1" width="400" height="428.38427947598257" viewBox="0 0 400 428.38427947598257" xmlns="http://www.w3.org/2000/svg" xmlns:xlink="http://www.w3.org/1999/xlink" ><g id="svgg"><path id="path0" d="M99.863 0.607 C 98.578 0.932,97.003 1.571,96.363 2.026 C 95.723 2.482,95.200 2.730,95.200 2.577 C 95.200 1.927,90.129 7.542,89.400 9.000 C 88.960 9.880,88.420 10.732,88.200 10.894 C 87.980 11.056,87.957 11.191,88.149 11.194 C 88.341 11.197,88.320 11.425,88.104 11.700 C 87.469 12.504,87.472 12.350,87.468 41.700 C 87.465 65.565,87.575 71.800,87.997 71.800 C 88.032 71.800,88.118 72.094,88.188 72.453 C 88.643 74.789,93.739 80.512,96.300 81.563 C 97.015 81.857,97.600 82.250,97.600 82.436 C 97.600 82.622,97.870 82.671,98.200 82.545 C 98.530 82.418,98.800 82.533,98.800 82.800 C 98.800 83.067,99.052 83.189,99.361 83.070 C 99.669 82.952,100.036 82.969,100.175 83.108 C 100.383 83.316,102.068 83.545,104.200 83.655 C 104.693 83.680,108.125 83.278,108.400 83.162 C 108.510 83.116,108.780 83.052,109.000 83.021 C 112.911 82.457,119.697 75.969,120.631 71.900 C 120.669 71.735,120.738 71.555,120.783 71.500 C 121.093 71.128,121.152 66.366,121.152 41.800 C 121.152 26.620,121.133 13.840,121.110 13.400 C 120.903 9.483,115.041 2.730,110.436 1.106 C 107.499 0.069,102.854 -0.150,99.863 0.607 M290.200 0.579 C 287.910 1.164,285.912 1.924,285.608 2.325 C 285.494 2.476,284.533 3.297,283.474 4.148 C 282.414 5.000,281.064 6.440,280.474 7.348 C 279.883 8.257,279.264 9.060,279.098 9.134 C 278.931 9.208,278.897 9.433,279.021 9.634 C 279.145 9.835,279.057 10.000,278.824 10.000 C 278.591 10.000,278.429 10.135,278.465 10.300 C 278.500 10.465,278.275 11.140,277.965 11.800 C 277.495 12.798,277.400 17.836,277.400 41.800 L 277.400 70.600 278.800 73.359 C 281.228 78.145,287.346 83.384,289.900 82.866 C 290.175 82.811,290.400 82.927,290.400 83.125 C 290.400 83.323,290.895 83.491,291.500 83.498 C 297.789 83.571,298.400 83.536,298.400 83.096 C 298.400 82.882,298.760 82.801,299.200 82.916 C 299.640 83.031,300.000 82.998,300.000 82.843 C 300.000 82.688,300.599 82.344,301.331 82.079 C 304.479 80.941,309.209 76.298,309.859 73.707 C 309.984 73.208,310.258 72.800,310.467 72.800 C 310.676 72.800,310.744 72.632,310.617 72.428 C 310.491 72.223,310.562 71.947,310.776 71.815 C 310.990 71.683,311.071 71.328,310.955 71.028 C 310.840 70.727,310.933 70.365,311.162 70.224 C 311.743 69.865,311.743 13.735,311.162 13.376 C 310.933 13.235,310.842 12.867,310.960 12.560 C 311.078 12.252,311.020 12.000,310.831 12.000 C 310.642 12.000,310.366 11.517,310.217 10.927 C 308.392 3.653,298.396 -1.515,290.200 0.579 M63.600 28.340 C 63.600 28.527,62.025 28.800,60.100 28.946 C 56.806 29.197,49.318 30.556,47.600 31.216 C 47.490 31.258,47.220 31.324,47.000 31.363 C 46.780 31.401,46.150 31.634,45.600 31.879 C 45.050 32.124,42.980 32.909,41.000 33.623 C 29.593 37.737,15.607 48.900,9.708 58.600 C 8.906 59.920,8.058 61.132,7.824 61.294 C 7.591 61.456,7.533 61.591,7.696 61.594 C 7.859 61.597,7.475 62.455,6.843 63.500 C 6.210 64.545,5.459 66.065,5.174 66.879 C 4.888 67.692,4.480 68.249,4.266 68.117 C 4.052 67.985,3.986 68.055,4.121 68.272 C 4.422 68.759,3.589 71.600,3.145 71.600 C 2.969 71.600,2.929 71.870,3.055 72.200 C 3.182 72.530,3.076 72.800,2.819 72.800 C 2.563 72.800,2.469 72.988,2.611 73.218 C 2.753 73.447,2.690 73.852,2.470 74.118 C -0.003 77.113,-0.055 80.531,0.108 230.000 C 0.266 373.752,0.201 368.221,1.805 374.400 C 1.947 374.950,2.074 375.670,2.087 376.000 C 2.099 376.330,2.280 376.817,2.489 377.082 C 2.698 377.348,2.760 377.740,2.628 377.955 C 2.495 378.169,2.582 378.465,2.821 378.613 C 3.059 378.760,3.162 379.121,3.050 379.415 C 2.937 379.708,2.979 380.005,3.144 380.074 C 3.308 380.143,3.949 381.640,4.568 383.400 C 7.696 392.294,17.618 406.865,23.000 410.468 C 23.220 410.615,24.925 411.939,26.790 413.411 C 28.654 414.882,31.039 416.577,32.089 417.177 C 33.139 417.777,33.909 418.387,33.799 418.534 C 33.690 418.680,33.720 418.710,33.866 418.601 C 34.012 418.491,35.407 419.089,36.966 419.930 C 38.525 420.770,40.655 421.785,41.700 422.183 C 42.745 422.582,43.600 423.075,43.600 423.278 C 43.600 423.481,43.761 423.548,43.957 423.426 C 44.267 423.235,46.521 423.866,48.400 424.670 C 48.730 424.811,49.138 424.897,49.307 424.861 C 49.476 424.825,50.233 425.054,50.990 425.370 C 56.097 427.504,48.469 427.400,200.000 427.400 C 349.497 427.400,344.918 427.456,348.431 425.582 C 348.778 425.397,349.498 425.173,350.031 425.084 C 350.564 424.996,351.270 424.808,351.600 424.668 C 353.511 423.856,355.733 423.235,356.043 423.426 C 356.239 423.548,356.400 423.457,356.400 423.224 C 356.400 422.991,356.558 422.800,356.750 422.800 C 356.943 422.800,358.114 422.352,359.352 421.804 C 360.590 421.257,361.718 420.822,361.857 420.838 C 361.997 420.855,362.221 420.697,362.355 420.488 C 362.706 419.943,365.999 418.323,366.006 418.692 C 366.009 418.861,366.144 418.795,366.306 418.544 C 366.656 418.001,371.968 414.400,372.420 414.400 C 372.592 414.400,372.793 414.240,372.867 414.044 C 372.940 413.849,373.810 413.028,374.800 412.221 C 382.512 405.932,391.216 394.469,394.188 386.686 C 394.584 385.649,395.075 384.800,395.278 384.800 C 395.481 384.800,395.550 384.642,395.431 384.450 C 395.170 384.028,396.379 380.298,396.885 379.963 C 397.081 379.833,397.211 379.563,397.174 379.363 C 397.136 379.164,397.140 378.910,397.183 378.800 C 398.040 376.603,399.224 369.120,399.588 363.600 C 400.140 355.232,400.142 93.973,399.590 86.200 C 399.372 83.120,398.828 79.070,398.383 77.200 C 397.938 75.330,397.549 73.575,397.520 73.300 C 397.491 73.025,397.309 72.800,397.116 72.800 C 396.923 72.800,396.800 72.575,396.844 72.300 C 396.887 72.025,396.619 71.117,396.249 70.282 C 395.878 69.448,395.681 68.593,395.811 68.382 C 395.941 68.172,395.846 68.000,395.600 68.000 C 395.354 68.000,395.255 67.835,395.379 67.634 C 395.503 67.433,395.468 67.208,395.301 67.134 C 395.133 67.060,394.371 65.740,393.606 64.200 C 392.842 62.660,392.107 61.310,391.973 61.200 C 391.840 61.090,391.208 60.100,390.570 59.000 C 389.931 57.900,388.640 56.055,387.700 54.900 C 386.760 53.745,386.064 52.800,386.154 52.800 C 386.630 52.800,377.809 44.549,375.593 42.923 C 374.167 41.875,372.910 40.909,372.800 40.775 C 372.690 40.641,371.250 39.752,369.600 38.800 C 367.950 37.848,366.468 36.873,366.306 36.634 C 366.131 36.376,366.007 36.362,366.000 36.600 C 365.993 36.841,365.871 36.828,365.694 36.569 C 365.532 36.332,363.960 35.545,362.200 34.819 C 360.440 34.094,358.910 33.388,358.800 33.250 C 358.690 33.113,358.150 32.950,357.600 32.888 C 357.050 32.827,356.540 32.601,356.466 32.386 C 356.392 32.171,356.186 32.085,356.008 32.195 C 355.831 32.305,354.901 32.112,353.943 31.767 C 350.311 30.459,344.696 29.279,340.512 28.946 C 338.704 28.802,337.320 28.530,337.436 28.342 C 337.552 28.154,336.737 28.000,335.624 28.000 L 333.600 28.000 333.600 49.800 C 333.600 63.694,333.459 71.600,333.210 71.600 C 332.990 71.600,332.925 72.123,333.060 72.800 C 333.215 73.574,333.138 74.000,332.842 74.000 C 332.554 74.000,332.478 74.370,332.636 75.000 C 332.797 75.642,332.718 76.000,332.416 76.000 C 332.128 76.000,332.044 76.310,332.200 76.800 C 332.351 77.277,332.272 77.600,332.003 77.600 C 331.756 77.600,331.655 77.765,331.779 77.966 C 331.904 78.168,331.812 78.843,331.575 79.466 C 331.338 80.090,331.158 80.646,331.176 80.702 C 331.305 81.113,328.292 86.400,327.928 86.400 C 327.674 86.400,327.587 86.521,327.735 86.668 C 328.109 87.042,327.194 88.428,324.610 91.400 C 323.845 92.280,323.214 93.124,323.209 93.275 C 323.201 93.517,320.300 96.027,316.935 98.703 C 315.091 100.170,307.180 103.949,305.477 104.177 C 304.995 104.241,304.294 104.424,303.919 104.583 C 303.545 104.741,303.050 104.754,302.819 104.612 C 302.589 104.469,302.400 104.563,302.400 104.821 C 302.400 105.139,301.952 105.205,301.000 105.026 C 300.230 104.882,299.600 104.907,299.600 105.082 C 299.600 105.257,297.260 105.400,294.400 105.400 C 291.540 105.400,289.200 105.257,289.200 105.082 C 289.200 104.907,288.570 104.882,287.800 105.026 C 286.843 105.206,286.400 105.140,286.400 104.818 C 286.400 104.535,286.093 104.444,285.634 104.589 C 285.212 104.723,284.756 104.653,284.621 104.434 C 284.485 104.214,284.110 104.136,283.787 104.260 C 283.464 104.384,283.200 104.276,283.200 104.019 C 283.200 103.763,283.020 103.664,282.800 103.800 C 282.580 103.936,282.175 103.907,281.900 103.735 C 281.625 103.563,281.220 103.390,281.000 103.351 C 279.896 103.155,275.200 100.779,275.200 100.417 C 275.200 100.188,275.065 100.036,274.900 100.079 C 274.354 100.223,272.800 99.553,272.800 99.173 C 272.800 98.968,272.600 98.800,272.356 98.800 C 271.240 98.800,263.259 91.239,263.217 90.143 C 263.208 89.891,262.975 89.599,262.700 89.494 C 262.425 89.388,261.480 87.884,260.600 86.151 C 259.720 84.418,258.870 82.903,258.712 82.784 C 258.260 82.445,257.182 79.152,257.405 78.792 C 257.515 78.614,257.430 78.408,257.216 78.334 C 255.813 77.850,255.479 72.962,255.313 50.500 L 255.151 28.400 199.376 28.400 L 143.600 28.400 143.600 48.771 C 143.600 67.958,143.278 75.202,142.411 75.519 C 142.231 75.585,142.177 75.990,142.289 76.419 C 142.401 76.849,142.337 77.200,142.147 77.200 C 141.956 77.200,141.776 77.621,141.746 78.134 C 141.613 80.460,137.174 88.562,134.259 91.800 C 133.467 92.680,132.814 93.518,132.809 93.662 C 132.804 93.805,131.709 94.795,130.375 95.862 C 129.040 96.928,127.465 98.205,126.875 98.700 C 125.242 100.066,117.156 103.952,115.477 104.177 C 114.995 104.241,114.294 104.424,113.919 104.583 C 113.545 104.741,113.050 104.754,112.819 104.612 C 112.589 104.469,112.400 104.566,112.400 104.826 C 112.400 105.139,111.993 105.219,111.200 105.060 C 110.540 104.928,110.000 104.951,110.000 105.110 C 110.000 105.269,107.480 105.400,104.400 105.400 C 101.320 105.400,98.800 105.310,98.800 105.200 C 98.799 105.090,97.875 104.972,96.746 104.938 C 95.617 104.903,94.583 104.723,94.447 104.538 C 94.311 104.352,93.774 104.153,93.253 104.096 C 91.458 103.900,82.032 99.349,81.716 98.526 C 81.605 98.237,81.299 98.000,81.035 98.000 C 80.556 98.000,75.978 93.725,73.908 91.344 C 71.650 88.748,68.072 82.443,68.321 81.500 C 68.364 81.335,68.209 81.200,67.976 81.200 C 67.743 81.200,67.656 81.032,67.783 80.828 C 67.909 80.623,67.818 80.335,67.579 80.187 C 67.341 80.040,67.242 79.667,67.360 79.360 C 67.478 79.052,67.381 78.800,67.145 78.800 C 66.908 78.800,66.814 78.542,66.935 78.226 C 67.056 77.910,66.993 77.595,66.795 77.526 C 65.585 77.103,65.200 70.256,65.200 49.148 C 65.200 28.267,65.190 28.000,64.400 28.000 C 63.960 28.000,63.600 28.153,63.600 28.340 M370.241 258.700 C 370.078 363.665,370.066 365.389,369.476 366.300 C 369.298 366.575,369.269 366.988,369.411 367.218 C 369.553 367.447,369.467 367.878,369.220 368.175 C 368.974 368.473,368.800 368.870,368.833 369.058 C 368.867 369.246,368.860 369.490,368.817 369.600 C 368.774 369.710,368.676 370.134,368.599 370.543 C 368.240 372.443,365.260 379.059,364.315 380.056 C 364.031 380.355,363.329 381.320,362.756 382.200 C 360.466 385.713,353.598 392.000,352.051 392.000 C 351.803 392.000,351.600 392.158,351.600 392.351 C 351.600 392.733,349.189 393.850,348.700 393.695 C 348.535 393.643,348.400 393.767,348.400 393.971 C 348.400 394.302,344.555 395.959,343.312 396.163 C 343.043 396.207,342.710 396.356,342.572 396.494 C 342.435 396.632,342.088 396.655,341.801 396.545 C 341.515 396.435,341.160 396.541,341.013 396.779 C 340.865 397.018,340.569 397.105,340.355 396.972 C 340.140 396.840,339.711 396.941,339.402 397.199 C 339.092 397.456,338.471 397.550,338.023 397.407 C 337.574 397.265,337.040 397.252,336.835 397.378 C 336.363 397.670,63.659 397.684,63.187 397.392 C 62.994 397.273,62.398 397.286,61.862 397.420 C 61.320 397.556,60.767 397.470,60.616 397.226 C 60.467 396.984,60.169 396.895,59.955 397.028 C 59.740 397.160,59.311 397.058,59.000 396.800 C 58.689 396.542,58.260 396.440,58.045 396.572 C 57.831 396.705,57.540 396.627,57.400 396.400 C 57.260 396.173,56.990 396.083,56.800 396.200 C 56.610 396.317,56.342 396.230,56.204 396.007 C 56.066 395.783,55.686 395.600,55.361 395.600 C 54.495 395.600,48.400 392.749,48.400 392.344 C 48.400 392.155,48.199 392.000,47.954 392.000 C 47.203 392.000,43.600 389.168,43.600 388.578 C 43.600 388.274,43.354 388.120,43.052 388.235 C 42.462 388.462,39.047 384.904,37.259 382.200 C 36.677 381.320,35.976 380.362,35.701 380.071 C 35.425 379.781,35.200 379.286,35.200 378.971 C 35.200 378.657,35.053 378.400,34.874 378.400 C 34.402 378.400,33.144 375.614,33.417 375.173 C 33.544 374.968,33.462 374.800,33.235 374.800 C 33.008 374.800,32.443 373.495,31.978 371.900 C 31.513 370.305,31.035 368.730,30.915 368.400 C 30.795 368.070,30.633 367.350,30.554 366.800 C 30.476 366.250,30.297 365.080,30.158 364.200 C 29.865 362.356,29.496 155.655,29.784 154.900 C 29.936 154.501,64.386 154.400,200.189 154.400 L 370.403 154.400 370.241 258.700 M143.014 186.096 C 142.627 186.313,141.667 186.386,140.880 186.258 C 140.081 186.128,139.220 186.218,138.928 186.460 C 138.640 186.699,137.954 186.808,137.402 186.703 C 136.851 186.597,136.400 186.688,136.400 186.905 C 136.400 187.128,135.890 187.198,135.228 187.066 C 134.584 186.937,133.999 186.971,133.928 187.141 C 133.858 187.312,132.598 187.745,131.128 188.103 C 129.659 188.461,127.589 189.152,126.528 189.639 C 125.468 190.125,124.375 190.526,124.100 190.528 C 123.825 190.531,123.600 190.694,123.600 190.890 C 123.600 191.087,123.420 191.136,123.200 191.000 C 122.980 190.864,122.800 190.910,122.800 191.102 C 122.800 191.295,122.125 191.771,121.300 192.161 C 116.614 194.376,108.565 201.759,105.282 206.854 C 104.380 208.254,103.445 209.625,103.205 209.900 C 102.965 210.175,102.864 210.400,102.981 210.400 C 103.097 210.400,102.665 211.257,102.021 212.304 C 101.376 213.352,100.531 215.242,100.142 216.504 C 99.753 217.767,99.298 218.800,99.130 218.800 C 98.962 218.800,98.922 219.052,99.040 219.360 C 99.158 219.667,99.070 220.033,98.845 220.172 C 98.619 220.312,98.529 220.672,98.645 220.972 C 98.760 221.273,98.659 221.640,98.421 221.787 C 98.182 221.935,98.095 222.231,98.228 222.445 C 98.360 222.660,98.258 223.089,98.000 223.400 C 97.742 223.711,97.647 224.153,97.789 224.382 C 97.931 224.612,97.903 225.025,97.726 225.300 C 97.550 225.575,97.368 226.160,97.322 226.600 C 97.277 227.040,97.036 228.480,96.788 229.800 C 95.164 238.444,97.621 240.100,111.812 239.921 C 124.740 239.758,125.820 239.117,127.567 230.566 C 129.101 223.056,132.467 218.103,137.988 215.230 C 139.758 214.310,141.372 213.659,141.575 213.785 C 141.778 213.910,142.062 213.823,142.206 213.590 C 142.350 213.358,142.797 213.272,143.200 213.400 C 143.603 213.528,144.021 213.490,144.128 213.316 C 144.346 212.964,153.245 212.937,153.829 213.287 C 154.033 213.410,154.658 213.508,155.218 213.505 C 157.177 213.495,162.318 216.246,164.518 218.482 C 166.435 220.429,169.650 225.600,168.943 225.600 C 168.777 225.600,168.842 225.802,169.089 226.049 C 169.336 226.296,169.442 226.746,169.326 227.049 C 169.210 227.352,169.333 227.600,169.601 227.600 C 169.919 227.600,170.000 227.944,169.836 228.600 C 169.698 229.150,169.725 229.600,169.896 229.600 C 170.068 229.600,170.206 231.850,170.204 234.600 C 170.202 237.350,170.053 239.600,169.873 239.600 C 169.693 239.600,169.663 239.969,169.806 240.419 C 169.949 240.870,169.856 241.492,169.599 241.802 C 169.341 242.111,169.247 242.553,169.389 242.782 C 169.531 243.012,169.457 243.200,169.224 243.200 C 168.991 243.200,168.798 243.605,168.796 244.100 C 168.787 246.345,161.993 254.137,160.727 253.355 C 160.547 253.244,160.400 253.363,160.400 253.619 C 160.400 253.876,160.142 253.986,159.826 253.865 C 159.510 253.744,159.190 253.830,159.115 254.056 C 158.849 254.852,148.616 256.764,143.800 256.918 C 142.300 256.966,138.829 259.509,138.094 261.099 C 137.712 261.924,137.265 262.660,137.100 262.733 C 136.695 262.913,136.715 275.200,137.120 275.200 C 137.295 275.200,137.667 275.830,137.945 276.599 C 138.726 278.759,141.862 280.833,144.600 281.000 C 150.036 281.332,159.316 282.949,159.534 283.602 C 159.608 283.824,159.846 283.895,160.062 283.761 C 160.825 283.290,165.623 286.071,167.937 288.326 C 170.886 291.197,173.313 295.603,173.819 299.000 C 173.851 299.220,173.932 299.580,173.997 299.800 C 174.245 300.634,174.436 303.100,174.462 305.800 C 174.487 308.455,174.348 310.153,173.807 313.788 C 173.518 315.729,170.607 322.000,169.995 322.000 C 169.752 322.000,169.652 322.161,169.773 322.357 C 170.109 322.901,165.081 327.418,163.231 328.234 C 162.334 328.630,161.600 329.110,161.600 329.301 C 161.600 329.491,161.420 329.536,161.200 329.400 C 160.980 329.264,160.800 329.329,160.800 329.545 C 160.800 329.877,159.115 330.452,158.107 330.464 C 157.938 330.466,157.577 330.653,157.305 330.879 C 157.033 331.105,156.538 331.185,156.205 331.057 C 155.872 330.930,155.600 331.019,155.600 331.257 C 155.600 331.534,155.098 331.595,154.200 331.426 C 153.325 331.262,152.800 331.321,152.800 331.582 C 152.800 331.830,151.742 332.000,150.200 332.000 C 148.593 332.000,147.600 331.834,147.600 331.565 C 147.600 331.281,147.059 331.221,146.041 331.393 C 145.154 331.543,144.378 331.488,144.241 331.266 C 144.108 331.051,143.639 330.969,143.200 331.084 C 142.733 331.206,142.400 331.096,142.400 330.820 C 142.400 330.528,142.093 330.444,141.600 330.600 C 141.123 330.751,140.800 330.672,140.800 330.403 C 140.800 330.156,140.620 330.064,140.400 330.200 C 138.394 331.440,127.409 321.127,128.631 319.150 C 128.801 318.875,128.753 318.782,128.517 318.928 C 128.277 319.076,127.755 317.911,127.245 316.090 C 126.769 314.390,126.199 312.432,125.978 311.737 C 125.756 311.043,125.600 310.323,125.631 310.137 C 125.661 309.952,125.544 309.350,125.370 308.800 C 125.197 308.250,125.080 307.762,125.111 307.715 C 125.331 307.383,121.949 304.185,120.913 303.746 C 118.846 302.869,98.813 302.967,96.925 303.863 C 94.184 305.163,92.136 311.043,93.710 313.095 C 93.919 313.367,93.979 314.031,93.843 314.570 C 93.707 315.113,93.791 315.671,94.031 315.819 C 94.270 315.967,94.360 316.507,94.231 317.019 C 94.102 317.532,94.193 318.072,94.433 318.221 C 94.673 318.369,94.783 318.821,94.677 319.226 C 94.571 319.631,94.601 320.015,94.742 320.081 C 94.884 320.146,95.332 321.550,95.737 323.200 C 96.143 324.850,96.807 326.920,97.214 327.800 C 97.620 328.680,98.008 329.670,98.076 330.000 C 98.144 330.330,98.310 330.690,98.445 330.800 C 98.580 330.910,99.279 332.226,99.999 333.726 C 100.719 335.225,101.509 336.665,101.754 336.926 C 101.999 337.186,102.939 338.390,103.841 339.600 C 106.438 343.081,108.024 344.753,110.600 346.725 C 111.920 347.736,113.090 348.670,113.200 348.801 C 114.262 350.069,123.317 354.499,126.800 355.455 C 128.230 355.847,129.454 356.292,129.519 356.442 C 129.585 356.592,129.990 356.623,130.419 356.511 C 130.849 356.399,131.200 356.502,131.200 356.741 C 131.200 356.980,131.472 357.070,131.805 356.943 C 132.138 356.815,132.655 356.914,132.954 357.162 C 133.254 357.411,133.794 357.501,134.154 357.362 C 134.515 357.224,135.033 357.295,135.305 357.520 C 135.577 357.745,136.250 357.944,136.800 357.963 C 137.350 357.981,138.880 358.128,140.200 358.290 C 143.450 358.688,157.623 358.678,160.600 358.276 C 161.920 358.097,163.450 357.946,164.000 357.940 C 164.550 357.934,165.223 357.745,165.495 357.520 C 165.767 357.295,166.256 357.213,166.582 357.338 C 166.908 357.463,167.290 357.377,167.432 357.148 C 167.574 356.918,168.030 356.819,168.445 356.928 C 168.860 357.036,169.305 356.954,169.433 356.746 C 169.562 356.538,170.012 356.477,170.434 356.611 C 170.855 356.744,171.200 356.688,171.200 356.486 C 171.200 356.284,172.415 355.790,173.900 355.388 C 176.763 354.613,185.136 350.549,186.904 349.077 C 187.482 348.594,188.538 347.750,189.251 347.200 C 194.284 343.313,200.478 335.472,203.392 329.300 C 204.041 327.925,204.724 326.800,204.910 326.800 C 205.095 326.800,205.148 326.639,205.026 326.442 C 204.905 326.246,205.108 325.391,205.478 324.542 C 205.849 323.694,206.185 322.865,206.226 322.700 C 206.267 322.535,206.345 322.310,206.400 322.200 C 206.455 322.090,206.545 321.820,206.600 321.600 C 206.655 321.380,206.743 321.065,206.796 320.900 C 206.849 320.735,206.934 320.420,206.985 320.200 C 207.036 319.980,207.129 319.710,207.190 319.600 C 207.312 319.382,207.302 319.435,208.233 314.200 C 208.961 310.113,208.813 297.076,208.007 294.200 C 207.760 293.320,207.510 292.330,207.452 292.000 C 207.393 291.670,207.131 290.890,206.870 290.266 C 206.608 289.643,206.487 288.983,206.600 288.801 C 206.713 288.618,206.665 288.408,206.494 288.334 C 206.323 288.260,205.658 286.952,205.016 285.428 C 204.374 283.903,203.265 281.788,202.551 280.728 C 201.838 279.667,201.330 278.800,201.422 278.800 C 202.017 278.800,193.866 270.931,191.439 269.163 C 188.839 267.267,187.200 265.501,187.200 264.593 C 187.200 264.437,189.360 262.197,192.000 259.616 C 194.640 257.035,196.800 254.821,196.800 254.696 C 196.800 254.443,199.341 250.457,199.957 249.743 C 200.174 249.491,200.243 249.176,200.109 249.043 C 199.976 248.909,200.087 248.800,200.357 248.800 C 200.627 248.800,200.752 248.646,200.636 248.459 C 200.363 248.017,201.272 245.600,201.711 245.600 C 201.896 245.600,201.937 245.422,201.803 245.204 C 201.668 244.987,201.829 244.222,202.159 243.504 C 203.647 240.272,204.259 228.515,203.215 223.200 C 202.978 221.990,202.720 220.640,202.643 220.200 C 202.565 219.760,202.452 219.310,202.390 219.200 C 202.329 219.090,202.236 218.820,202.185 218.600 C 202.134 218.380,202.049 218.065,201.996 217.900 C 201.943 217.735,201.855 217.420,201.800 217.200 C 201.745 216.980,201.655 216.710,201.600 216.600 C 201.545 216.490,201.464 216.265,201.421 216.100 C 199.836 210.102,193.194 201.159,187.100 196.818 C 186.055 196.073,185.200 195.315,185.200 195.132 C 185.200 194.949,185.023 194.800,184.806 194.800 C 184.297 194.800,180.242 192.331,180.066 191.913 C 179.992 191.738,179.773 191.693,179.580 191.813 C 179.386 191.932,178.456 191.627,177.514 191.133 C 176.571 190.640,175.710 190.221,175.600 190.202 C 175.490 190.184,174.392 189.783,173.160 189.312 C 171.928 188.841,169.813 188.228,168.460 187.948 C 167.107 187.669,166.000 187.300,166.000 187.130 C 166.000 186.959,165.460 186.928,164.800 187.060 C 164.026 187.215,163.600 187.138,163.600 186.842 C 163.600 186.557,163.233 186.477,162.623 186.630 C 162.085 186.765,161.410 186.724,161.123 186.540 C 160.531 186.160,159.626 186.104,150.359 185.870 C 146.410 185.770,143.432 185.862,143.014 186.096 M285.100 186.800 C 285.045 186.910,284.196 187.270,283.213 187.600 C 281.956 188.022,281.244 188.556,280.813 189.400 C 280.476 190.060,280.084 190.654,279.942 190.719 C 279.801 190.785,279.771 191.169,279.877 191.574 C 279.983 191.979,279.882 192.426,279.652 192.568 C 279.423 192.710,279.336 193.090,279.460 193.413 C 279.584 193.736,279.476 194.000,279.219 194.000 C 278.963 194.000,278.869 194.188,279.011 194.418 C 279.153 194.647,279.051 195.097,278.785 195.418 C 278.520 195.738,278.411 196.000,278.544 196.000 C 279.181 196.000,274.968 203.241,273.297 205.017 C 268.331 210.296,260.085 214.418,254.400 214.463 C 253.850 214.467,253.192 214.642,252.938 214.853 C 252.684 215.063,252.007 215.117,251.433 214.973 C 250.819 214.819,250.146 214.913,249.798 215.201 C 249.403 215.530,248.603 215.601,247.379 215.418 C 246.170 215.236,245.354 215.306,244.972 215.623 C 244.618 215.917,243.695 216.025,242.597 215.901 C 241.609 215.789,240.800 215.837,240.800 216.006 C 240.800 216.175,240.368 216.422,239.839 216.554 C 238.512 216.888,235.361 220.495,235.053 222.034 C 233.768 228.459,235.128 234.773,238.376 237.461 L 239.752 238.600 254.576 238.800 C 271.287 239.025,271.064 238.985,273.261 242.218 C 274.659 244.276,274.502 238.122,274.657 297.140 L 274.794 349.280 275.693 350.879 C 276.226 351.828,277.326 352.910,278.396 353.539 L 280.200 354.600 291.600 354.600 C 304.746 354.600,306.744 353.978,308.033 349.484 C 308.850 346.637,308.470 192.792,307.641 190.969 C 306.844 189.213,305.239 187.725,303.735 187.348 C 303.221 187.219,302.800 186.998,302.800 186.857 C 302.799 186.558,285.248 186.502,285.100 186.800 " stroke="none" fill="#008cd7" fill-rule="evenodd"></path><path id="path1" d="M98.000 0.818 C 97.562 1.115,97.724 1.152,98.600 0.956 C 100.071 0.627,100.390 0.398,99.367 0.406 C 98.945 0.409,98.330 0.595,98.000 0.818 M110.200 1.012 C 112.204 1.734,112.478 1.730,111.200 1.000 C 110.650 0.686,109.840 0.430,109.400 0.432 C 108.960 0.434,109.320 0.695,110.200 1.012 M299.600 0.739 C 304.311 2.341,309.253 7.083,310.217 10.927 C 310.466 11.917,311.200 12.456,311.200 11.649 C 311.200 10.999,309.946 8.288,309.386 7.729 C 309.080 7.423,308.251 6.367,307.543 5.381 C 306.130 3.413,302.172 0.926,299.927 0.595 C 298.810 0.430,298.758 0.453,299.600 0.739 M95.777 1.767 C 95.350 2.079,95.094 2.427,95.207 2.540 C 95.320 2.653,95.859 2.402,96.406 1.982 C 97.545 1.107,96.955 0.906,95.777 1.767 M113.203 2.313 C 113.204 2.471,113.839 3.031,114.612 3.558 C 116.711 4.988,118.378 7.063,119.706 9.901 C 120.359 11.297,120.981 12.352,121.088 12.246 C 121.556 11.778,119.850 8.076,118.587 6.819 C 117.824 6.060,117.200 5.296,117.200 5.122 C 117.200 4.948,116.644 4.310,115.965 3.703 C 114.686 2.560,113.198 1.812,113.203 2.313 M282.234 4.522 C 279.600 7.155,278.536 8.684,279.022 9.134 C 279.180 9.280,279.386 9.187,279.479 8.926 C 279.911 7.721,282.139 5.123,283.770 3.924 C 284.759 3.196,285.576 2.465,285.584 2.300 C 285.626 1.499,284.530 2.226,282.234 4.522 M92.942 3.521 C 90.448 5.969,88.673 8.364,88.215 9.900 C 87.758 11.430,88.557 10.872,89.376 9.090 C 89.803 8.160,91.198 6.351,92.476 5.068 C 93.754 3.785,94.800 2.660,94.800 2.568 C 94.800 2.092,93.958 2.524,92.942 3.521 M86.989 41.800 C 86.989 56.760,87.039 62.822,87.100 55.271 C 87.161 47.720,87.161 35.480,87.100 28.071 C 87.039 20.662,86.989 26.840,86.989 41.800 M311.489 41.855 C 311.538 56.736,311.673 69.006,311.789 69.122 C 311.905 69.238,312.000 57.063,312.000 42.067 C 312.000 27.070,311.865 14.800,311.700 14.800 C 311.535 14.800,311.440 26.975,311.489 41.855 M121.467 16.267 C 121.018 16.715,121.150 67.522,121.600 67.800 C 121.865 67.964,122.000 59.271,122.000 42.024 C 122.000 27.711,121.940 16.000,121.867 16.000 C 121.793 16.000,121.613 16.120,121.467 16.267 M143.296 49.100 L 143.393 70.600 143.500 49.500 L 143.607 28.400 199.400 28.400 L 255.193 28.400 255.300 49.300 L 255.407 70.200 255.504 48.900 L 255.600 27.600 199.400 27.600 L 143.200 27.600 143.296 49.100 M60.000 28.400 C 60.000 28.620,60.810 28.800,61.800 28.800 C 62.790 28.800,63.600 28.620,63.600 28.400 C 63.600 28.180,62.790 28.000,61.800 28.000 C 60.810 28.000,60.000 28.180,60.000 28.400 M337.400 28.400 C 337.251 28.642,337.796 28.800,338.776 28.800 C 339.669 28.800,340.400 28.620,340.400 28.400 C 340.400 28.180,339.781 28.000,339.024 28.000 C 338.267 28.000,337.536 28.180,337.400 28.400 M56.900 29.076 C 57.285 29.176,57.915 29.176,58.300 29.076 C 58.685 28.975,58.370 28.893,57.600 28.893 C 56.830 28.893,56.515 28.975,56.900 29.076 M50.800 30.000 C 49.456 30.431,50.908 30.431,52.600 30.000 C 53.678 29.726,53.698 29.694,52.800 29.687 C 52.250 29.683,51.350 29.824,50.800 30.000 M353.000 31.383 C 354.969 32.233,356.000 32.476,356.000 32.090 C 356.000 31.708,353.301 30.777,352.354 30.833 C 352.049 30.851,352.340 31.098,353.000 31.383 M43.007 32.096 C 41.691 32.554,40.341 33.205,40.007 33.542 C 39.463 34.091,39.483 34.123,40.200 33.850 C 40.640 33.682,42.080 33.183,43.400 32.741 C 45.798 31.938,47.110 31.170,45.980 31.232 C 45.661 31.249,44.323 31.638,43.007 32.096 M356.400 32.353 C 356.400 32.759,358.061 33.272,358.371 32.962 C 358.630 32.704,357.569 32.014,356.900 32.006 C 356.625 32.003,356.400 32.159,356.400 32.353 M358.800 33.118 C 358.800 33.453,364.862 36.071,365.096 35.838 C 365.170 35.764,364.009 35.189,362.515 34.560 C 361.022 33.931,359.740 33.278,359.667 33.108 C 359.491 32.702,358.800 32.710,358.800 33.118 M35.000 35.640 C 33.020 36.532,31.220 37.488,31.000 37.765 C 30.780 38.041,29.700 38.765,28.600 39.373 C 27.500 39.981,26.027 40.911,25.327 41.439 C 24.626 41.968,23.969 42.400,23.867 42.400 C 23.652 42.400,22.392 43.574,17.261 48.552 C 15.247 50.506,13.600 52.174,13.600 52.259 C 13.600 52.345,12.790 53.447,11.800 54.707 C 10.810 55.968,10.006 57.180,10.013 57.400 C 10.020 57.620,10.287 57.455,10.606 57.033 C 17.562 47.839,25.673 41.070,36.271 35.613 C 40.292 33.543,39.625 33.557,35.000 35.640 M366.401 36.700 C 366.401 36.865,367.690 37.720,369.264 38.600 C 370.838 39.480,372.323 40.382,372.563 40.605 C 372.803 40.827,374.170 41.868,375.600 42.918 C 377.030 43.968,379.954 46.562,382.097 48.683 C 384.240 50.804,386.091 52.443,386.209 52.324 C 386.511 52.022,376.731 42.400,376.121 42.400 C 376.056 42.400,375.146 41.806,374.101 41.079 C 373.055 40.352,371.525 39.411,370.700 38.988 C 369.875 38.565,369.200 38.084,369.200 37.919 C 369.200 37.638,367.097 36.400,366.620 36.400 C 366.499 36.400,366.400 36.535,366.401 36.700 M387.700 54.900 C 388.640 56.055,389.931 57.900,390.570 59.000 C 391.208 60.100,391.845 61.090,391.985 61.200 C 392.125 61.310,392.861 62.700,393.620 64.290 C 394.957 67.090,395.600 67.840,395.600 66.600 C 395.600 66.270,395.451 66.000,395.268 66.000 C 395.086 66.000,394.505 65.055,393.977 63.900 C 392.114 59.826,387.292 52.800,386.359 52.800 C 386.156 52.800,386.760 53.745,387.700 54.900 M8.876 58.811 C 8.026 59.723,4.797 66.145,4.805 66.907 C 4.808 67.178,5.349 66.337,6.008 65.037 C 6.668 63.737,7.407 62.432,7.652 62.137 C 7.897 61.842,7.941 61.597,7.749 61.594 C 7.557 61.591,7.590 61.456,7.821 61.294 C 8.344 60.929,10.146 58.000,9.848 58.000 C 9.729 58.000,9.291 58.365,8.876 58.811 M4.200 68.000 C 4.336 68.220,4.274 68.400,4.061 68.400 C 3.849 68.400,3.388 69.242,3.038 70.271 C 2.282 72.490,2.258 72.800,2.843 72.800 C 3.086 72.800,3.182 72.530,3.055 72.200 C 2.929 71.870,2.971 71.600,3.149 71.600 C 3.328 71.600,3.694 70.925,3.963 70.100 C 4.232 69.275,4.545 68.375,4.659 68.100 C 4.773 67.825,4.661 67.600,4.410 67.600 C 4.158 67.600,4.064 67.780,4.200 68.000 M65.309 69.600 C 65.309 70.590,65.387 70.995,65.482 70.500 C 65.578 70.005,65.578 69.195,65.482 68.700 C 65.387 68.205,65.309 68.610,65.309 69.600 M395.600 68.613 C 395.600 68.730,395.898 69.495,396.261 70.313 C 396.625 71.131,396.887 72.025,396.844 72.300 C 396.800 72.575,396.953 72.800,397.182 72.800 C 397.741 72.800,397.712 72.472,396.962 70.271 C 396.442 68.745,395.600 67.720,395.600 68.613 M332.800 70.200 C 332.800 70.970,332.980 71.600,333.200 71.600 C 333.420 71.600,333.600 70.970,333.600 70.200 C 333.600 69.430,333.420 68.800,333.200 68.800 C 332.980 68.800,332.800 69.430,332.800 70.200 M121.079 69.757 C 120.915 70.174,120.875 70.609,120.991 70.724 C 121.355 71.089,121.676 70.491,121.524 69.731 C 121.383 69.035,121.362 69.036,121.079 69.757 M87.206 70.300 C 87.203 70.795,87.380 71.200,87.600 71.200 C 88.101 71.200,88.101 70.776,87.600 70.000 C 87.286 69.515,87.211 69.572,87.206 70.300 M120.782 71.300 C 120.737 71.465,120.673 71.735,120.640 71.900 C 120.349 73.349,117.456 77.618,115.633 79.286 C 114.405 80.411,113.850 81.100,114.400 80.818 C 115.785 80.108,118.400 77.551,118.400 76.906 C 118.400 76.614,118.653 76.278,118.963 76.159 C 119.645 75.897,121.325 72.132,121.055 71.471 C 120.950 71.212,120.826 71.135,120.782 71.300 M277.606 71.671 C 277.595 72.895,280.291 77.529,281.770 78.828 C 285.645 82.230,290.400 84.629,290.400 83.182 C 290.400 82.953,290.175 82.811,289.900 82.866 C 287.398 83.374,281.232 78.153,278.906 73.557 C 278.195 72.150,277.610 71.302,277.606 71.671 M87.600 71.925 C 87.600 74.108,90.273 77.595,94.891 81.437 C 95.515 81.955,97.053 82.800,97.374 82.800 C 98.088 82.800,97.410 82.019,96.300 81.563 C 93.788 80.532,88.547 74.684,88.236 72.565 C 88.133 71.862,87.600 71.326,87.600 71.925 M310.753 71.833 C 310.727 72.035,310.727 72.335,310.753 72.500 C 310.779 72.665,310.640 72.800,310.443 72.800 C 310.247 72.800,309.984 73.208,309.859 73.707 C 309.209 76.298,304.479 80.941,301.331 82.079 C 300.063 82.538,299.525 83.200,300.420 83.200 C 301.117 83.200,303.378 81.929,303.720 81.346 C 303.896 81.046,304.263 80.800,304.535 80.800 C 305.177 80.800,308.800 77.125,308.800 76.474 C 308.800 76.199,309.061 75.875,309.380 75.752 C 310.041 75.498,311.450 72.117,311.058 71.724 C 310.916 71.583,310.779 71.632,310.753 71.833 M332.400 73.200 C 332.400 73.640,332.580 74.000,332.800 74.000 C 333.020 74.000,333.200 73.640,333.200 73.200 C 333.200 72.760,333.020 72.400,332.800 72.400 C 332.580 72.400,332.400 72.760,332.400 73.200 M142.000 74.800 C 142.000 75.240,142.180 75.600,142.400 75.600 C 142.620 75.600,142.800 75.240,142.800 74.800 C 142.800 74.360,142.620 74.000,142.400 74.000 C 142.180 74.000,142.000 74.360,142.000 74.800 M66.254 75.750 C 66.334 76.383,66.400 77.058,66.400 77.250 C 66.400 77.442,66.580 77.600,66.800 77.600 C 67.020 77.600,67.200 77.240,67.200 76.800 C 67.200 76.360,67.033 76.000,66.828 76.000 C 66.623 76.000,66.377 75.685,66.282 75.300 C 66.186 74.915,66.174 75.117,66.254 75.750 M332.000 75.400 C 332.000 75.730,332.180 76.000,332.400 76.000 C 332.620 76.000,332.800 75.730,332.800 75.400 C 332.800 75.070,332.620 74.800,332.400 74.800 C 332.180 74.800,332.000 75.070,332.000 75.400 M141.600 76.600 C 141.600 76.930,141.780 77.200,142.000 77.200 C 142.220 77.200,142.400 76.930,142.400 76.600 C 142.400 76.270,142.220 76.000,142.000 76.000 C 141.780 76.000,141.600 76.270,141.600 76.600 M140.688 79.678 C 139.917 82.090,140.025 82.612,140.903 80.714 C 141.797 78.781,142.101 77.600,141.703 77.600 C 141.510 77.600,141.054 78.535,140.688 79.678 M330.301 80.942 C 329.696 82.556,328.841 84.291,328.401 84.799 C 327.528 85.806,327.377 86.400,327.995 86.400 C 328.313 86.400,331.291 81.066,331.176 80.702 C 331.158 80.646,331.336 80.093,331.572 79.474 C 332.081 78.136,332.093 77.999,331.700 78.004 C 331.535 78.007,330.905 79.329,330.301 80.942 M257.200 78.929 C 257.200 79.641,258.571 82.800,258.880 82.800 C 259.103 82.800,259.202 82.575,259.099 82.300 C 258.997 82.025,258.671 81.125,258.376 80.300 C 257.952 79.116,257.200 78.239,257.200 78.929 M67.200 79.576 C 67.200 79.783,67.383 80.066,67.607 80.204 C 67.830 80.342,67.909 80.623,67.783 80.828 C 67.656 81.032,67.754 81.200,68.000 81.200 C 68.246 81.200,68.360 81.341,68.254 81.513 C 68.040 81.859,69.808 85.563,70.489 86.200 C 70.785 86.476,70.845 86.414,70.683 86.000 C 68.739 81.029,67.200 78.191,67.200 79.576 M0.493 81.600 C 0.493 82.370,0.575 82.685,0.676 82.300 C 0.776 81.915,0.776 81.285,0.676 80.900 C 0.575 80.515,0.493 80.830,0.493 81.600 M111.200 82.075 C 109.112 83.025,109.621 83.536,111.763 82.641 C 112.807 82.205,113.961 80.985,113.100 81.228 C 113.045 81.244,112.190 81.625,111.200 82.075 M138.881 84.209 C 138.402 85.194,137.828 86.000,137.605 86.000 C 137.382 86.000,137.200 86.204,137.200 86.452 C 137.200 86.701,136.558 87.799,135.773 88.891 C 134.987 89.984,134.457 90.991,134.594 91.128 C 134.731 91.265,134.969 91.193,135.122 90.969 C 135.275 90.745,135.961 89.760,136.646 88.781 C 138.049 86.776,140.133 82.800,139.902 82.569 C 139.819 82.486,139.359 83.224,138.881 84.209 M298.400 83.200 C 298.400 83.420,298.670 83.600,299.000 83.600 C 299.330 83.600,299.600 83.420,299.600 83.200 C 299.600 82.980,299.330 82.800,299.000 82.800 C 298.670 82.800,298.400 82.980,298.400 83.200 M101.200 83.600 C 101.200 83.820,101.875 83.982,102.700 83.960 C 104.039 83.925,104.092 83.886,103.200 83.600 C 101.770 83.142,101.200 83.142,101.200 83.600 M105.400 83.600 C 104.274 83.887,104.305 83.908,105.900 83.953 C 106.835 83.979,107.600 83.820,107.600 83.600 C 107.600 83.153,107.156 83.153,105.400 83.600 M259.382 83.800 C 259.872 85.276,262.435 89.600,262.820 89.600 C 263.029 89.600,263.208 89.825,263.217 90.100 C 263.257 91.228,271.210 98.800,272.356 98.800 C 272.600 98.800,272.800 98.951,272.800 99.136 C 272.800 99.320,273.250 99.677,273.800 99.927 C 275.338 100.628,274.985 99.794,273.300 98.746 C 272.475 98.233,271.620 97.740,271.400 97.651 C 271.008 97.492,268.089 94.828,266.035 92.756 C 265.466 92.181,264.371 90.831,263.603 89.756 C 262.834 88.680,261.979 87.656,261.703 87.480 C 261.426 87.304,261.194 86.944,261.188 86.680 C 261.181 86.416,260.712 85.480,260.146 84.600 C 259.579 83.720,259.236 83.360,259.382 83.800 M291.200 83.582 C 291.200 83.812,291.950 84.000,292.867 84.000 C 294.832 84.000,294.776 83.810,292.700 83.435 C 291.750 83.263,291.200 83.317,291.200 83.582 M295.600 83.600 C 294.708 83.886,294.761 83.925,296.100 83.960 C 296.925 83.982,297.600 83.820,297.600 83.600 C 297.600 83.142,297.030 83.142,295.600 83.600 M0.131 87.000 C 0.133 88.540,0.205 89.121,0.292 88.291 C 0.379 87.461,0.377 86.201,0.289 85.491 C 0.200 84.781,0.129 85.460,0.131 87.000 M399.731 87.000 C 399.733 88.540,399.805 89.121,399.892 88.291 C 399.979 87.461,399.977 86.201,399.889 85.491 C 399.800 84.781,399.729 85.460,399.731 87.000 M71.540 88.097 C 73.544 91.268,80.026 98.000,81.077 98.000 C 81.365 98.000,81.600 98.171,81.600 98.380 C 81.600 98.771,85.969 101.352,87.400 101.806 L 88.200 102.060 87.400 101.566 C 86.960 101.294,86.456 100.830,86.280 100.535 C 86.104 100.241,85.757 100.000,85.508 100.000 C 83.675 100.000,75.756 93.125,73.199 89.315 C 71.654 87.012,70.165 85.918,71.540 88.097 M325.802 89.024 C 324.488 90.931,319.022 96.800,318.560 96.800 C 318.473 96.800,317.546 97.400,316.501 98.134 C 315.455 98.868,314.028 99.695,313.329 99.971 C 312.630 100.247,311.973 100.694,311.870 100.963 C 311.766 101.232,310.133 101.979,308.241 102.621 C 306.348 103.264,304.800 103.939,304.800 104.122 C 304.800 104.979,314.477 100.658,316.935 98.703 C 320.300 96.027,323.201 93.517,323.209 93.275 C 323.214 93.124,323.845 92.280,324.610 91.400 C 327.124 88.508,328.276 86.800,327.712 86.800 C 327.504 86.800,326.644 87.801,325.802 89.024 M131.503 94.000 C 128.688 96.737,124.997 99.434,123.213 100.055 C 122.546 100.288,122.000 100.618,122.000 100.790 C 122.000 101.152,118.963 102.496,116.500 103.224 C 115.565 103.500,114.800 103.890,114.800 104.090 C 114.800 104.974,124.638 100.579,126.867 98.700 C 127.454 98.205,128.854 97.080,129.979 96.200 C 131.875 94.717,134.738 91.600,134.204 91.600 C 134.076 91.600,132.860 92.680,131.503 94.000 M275.200 100.454 C 275.200 100.808,280.005 103.180,281.088 103.362 C 281.357 103.407,281.702 103.569,281.855 103.722 C 282.247 104.114,282.800 104.068,282.800 103.643 C 282.800 103.447,282.305 103.163,281.700 103.011 C 280.007 102.587,276.800 101.138,276.800 100.797 C 276.800 100.630,276.440 100.399,276.000 100.284 C 275.560 100.169,275.200 100.246,275.200 100.454 M90.400 103.010 C 90.400 103.218,91.360 103.632,93.100 104.174 C 93.595 104.328,94.000 104.290,94.000 104.090 C 94.000 103.890,93.304 103.518,92.454 103.263 C 90.726 102.746,90.400 102.705,90.400 103.010 M94.400 104.314 C 94.400 104.731,97.572 105.362,97.920 105.013 C 98.265 104.668,97.901 104.508,96.100 104.211 C 95.085 104.043,94.400 104.085,94.400 104.314 M112.800 104.400 C 112.800 104.620,113.059 104.800,113.376 104.800 C 113.693 104.800,114.064 104.620,114.200 104.400 C 114.336 104.180,114.077 104.000,113.624 104.000 C 113.171 104.000,112.800 104.180,112.800 104.400 M284.720 104.480 C 285.093 104.853,285.307 104.853,285.680 104.480 C 286.053 104.107,285.947 104.000,285.200 104.000 C 284.453 104.000,284.347 104.107,284.720 104.480 M302.800 104.400 C 302.800 104.620,303.059 104.800,303.376 104.800 C 303.693 104.800,304.064 104.620,304.200 104.400 C 304.336 104.180,304.077 104.000,303.624 104.000 C 303.171 104.000,302.800 104.180,302.800 104.400 M110.800 104.800 C 110.800 105.020,111.160 105.200,111.600 105.200 C 112.040 105.200,112.400 105.020,112.400 104.800 C 112.400 104.580,112.040 104.400,111.600 104.400 C 111.160 104.400,110.800 104.580,110.800 104.800 M286.400 104.800 C 286.400 105.020,286.760 105.200,287.200 105.200 C 287.640 105.200,288.000 105.020,288.000 104.800 C 288.000 104.580,287.640 104.400,287.200 104.400 C 286.760 104.400,286.400 104.580,286.400 104.800 M300.800 104.800 C 300.800 105.020,301.160 105.200,301.600 105.200 C 302.040 105.200,302.400 105.020,302.400 104.800 C 302.400 104.580,302.040 104.400,301.600 104.400 C 301.160 104.400,300.800 104.580,300.800 104.800 M98.800 105.200 C 98.800 105.420,99.340 105.600,100.000 105.600 C 100.660 105.600,101.200 105.420,101.200 105.200 C 101.200 104.980,100.660 104.800,100.000 104.800 C 99.340 104.800,98.800 104.980,98.800 105.200 M107.600 105.200 C 107.600 105.420,108.140 105.600,108.800 105.600 C 109.460 105.600,110.000 105.420,110.000 105.200 C 110.000 104.980,109.460 104.800,108.800 104.800 C 108.140 104.800,107.600 104.980,107.600 105.200 M289.200 105.200 C 289.200 105.420,289.740 105.600,290.400 105.600 C 291.060 105.600,291.600 105.420,291.600 105.200 C 291.600 104.980,291.060 104.800,290.400 104.800 C 289.740 104.800,289.200 104.980,289.200 105.200 M297.200 105.200 C 297.200 105.420,297.740 105.600,298.400 105.600 C 299.060 105.600,299.600 105.420,299.600 105.200 C 299.600 104.980,299.060 104.800,298.400 104.800 C 297.740 104.800,297.200 104.980,297.200 105.200 M29.867 154.667 C 29.468 155.065,29.601 361.670,30.000 362.600 C 30.193 363.049,30.356 317.731,30.372 259.300 L 30.400 155.200 200.000 155.200 L 369.600 155.200 369.606 259.300 C 369.610 326.656,369.749 363.188,370.000 362.800 C 370.248 362.417,370.390 324.688,370.394 258.300 L 370.400 154.400 200.267 154.400 C 106.693 154.400,30.013 154.520,29.867 154.667 M148.000 185.600 C 148.000 185.820,148.979 186.000,150.176 186.000 C 151.373 186.000,152.464 185.820,152.600 185.600 C 152.754 185.350,151.937 185.200,150.424 185.200 C 149.075 185.200,148.000 185.377,148.000 185.600 M140.400 186.000 C 140.400 186.510,142.410 186.510,143.200 186.000 C 143.639 185.716,143.345 185.611,142.100 185.606 C 141.165 185.603,140.400 185.780,140.400 186.000 M156.800 186.000 C 157.590 186.510,159.600 186.510,159.600 186.000 C 159.600 185.780,158.835 185.603,157.900 185.606 C 156.655 185.611,156.361 185.716,156.800 186.000 M136.800 186.400 C 136.800 186.620,137.239 186.800,137.776 186.800 C 138.313 186.800,138.864 186.620,139.000 186.400 C 139.144 186.167,138.737 186.000,138.024 186.000 C 137.351 186.000,136.800 186.180,136.800 186.400 M161.000 186.400 C 161.136 186.620,161.597 186.800,162.024 186.800 C 162.451 186.800,162.800 186.620,162.800 186.400 C 162.800 186.180,162.339 186.000,161.776 186.000 C 161.196 186.000,160.860 186.173,161.000 186.400 M286.400 186.400 C 286.400 186.653,289.333 186.800,294.400 186.800 C 299.467 186.800,302.400 186.653,302.400 186.400 C 302.400 186.147,299.467 186.000,294.400 186.000 C 289.333 186.000,286.400 186.147,286.400 186.400 M134.800 186.800 C 134.800 187.020,135.160 187.200,135.600 187.200 C 136.040 187.200,136.400 187.020,136.400 186.800 C 136.400 186.580,136.040 186.400,135.600 186.400 C 135.160 186.400,134.800 186.580,134.800 186.800 M163.600 186.800 C 163.600 187.020,163.960 187.200,164.400 187.200 C 164.840 187.200,165.200 187.020,165.200 186.800 C 165.200 186.580,164.840 186.400,164.400 186.400 C 163.960 186.400,163.600 186.580,163.600 186.800 M283.212 186.784 C 282.888 186.989,282.708 187.240,282.812 187.343 C 283.121 187.649,285.200 187.136,285.200 186.753 C 285.200 186.291,283.961 186.310,283.212 186.784 M302.800 186.757 C 302.800 186.953,303.221 187.219,303.735 187.348 C 305.239 187.725,306.844 189.213,307.641 190.969 C 308.067 191.906,308.386 192.280,308.391 191.847 C 308.396 191.433,308.022 190.482,307.559 189.734 C 306.316 187.723,302.800 185.523,302.800 186.757 M132.400 187.200 C 132.400 187.420,132.010 187.600,131.533 187.600 C 131.057 187.600,130.768 187.702,130.892 187.826 C 131.230 188.164,134.000 187.566,134.000 187.155 C 134.000 186.960,133.640 186.800,133.200 186.800 C 132.760 186.800,132.400 186.980,132.400 187.200 M166.000 187.200 C 166.000 187.420,166.360 187.600,166.800 187.600 C 167.240 187.600,167.600 187.420,167.600 187.200 C 167.600 186.980,167.240 186.800,166.800 186.800 C 166.360 186.800,166.000 186.980,166.000 187.200 M280.400 188.800 C 279.616 189.584,279.307 190.813,279.900 190.787 C 280.196 190.774,281.639 188.000,281.349 188.000 C 281.267 188.000,280.840 188.360,280.400 188.800 M126.100 189.249 C 124.945 189.693,124.000 190.234,124.000 190.452 C 124.000 190.669,124.135 190.768,124.300 190.671 C 124.695 190.439,128.032 188.965,128.800 188.683 C 129.333 188.488,129.333 188.462,128.800 188.452 C 128.470 188.447,127.255 188.805,126.100 189.249 M171.600 188.678 C 171.930 188.797,172.965 189.222,173.900 189.624 C 174.835 190.026,175.600 190.202,175.600 190.015 C 175.600 189.666,172.198 188.375,171.429 188.432 C 171.193 188.449,171.270 188.560,171.600 188.678 M176.000 190.192 C 176.000 190.393,179.009 192.000,179.384 192.000 C 180.075 192.000,179.400 191.253,178.186 190.674 C 176.774 190.001,176.000 189.830,176.000 190.192 M121.830 191.065 C 119.513 192.320,118.736 193.398,120.900 192.356 C 121.945 191.852,122.800 191.286,122.800 191.097 C 122.800 190.908,122.980 190.864,123.200 191.000 C 123.420 191.136,123.600 191.057,123.600 190.824 C 123.600 190.258,123.227 190.309,121.830 191.065 M279.200 192.024 C 279.200 192.477,279.380 192.736,279.600 192.600 C 279.820 192.464,280.000 192.093,280.000 191.776 C 280.000 191.459,279.820 191.200,279.600 191.200 C 279.380 191.200,279.200 191.571,279.200 192.024 M182.541 193.634 C 183.608 194.304,184.567 194.766,184.672 194.661 C 184.890 194.444,181.521 192.396,180.965 192.408 C 180.764 192.412,181.473 192.963,182.541 193.634 M116.282 194.600 C 115.273 195.370,114.361 196.000,114.256 196.000 C 113.898 196.000,108.419 201.784,106.755 203.918 C 104.296 207.071,105.093 206.816,107.781 203.589 C 110.612 200.190,115.046 195.960,117.207 194.596 C 118.083 194.043,118.800 193.502,118.800 193.395 C 118.800 192.912,117.977 193.306,116.282 194.600 M308.596 270.800 C 308.596 313.590,308.643 331.095,308.700 309.700 C 308.757 288.305,308.757 253.295,308.700 231.900 C 308.643 210.505,308.596 228.010,308.596 270.800 M278.044 195.830 C 277.464 197.433,277.694 198.118,278.382 196.834 C 278.627 196.375,278.696 196.000,278.534 196.000 C 278.372 196.000,278.456 195.784,278.720 195.520 C 279.269 194.971,279.351 194.400,278.880 194.400 C 278.705 194.400,278.328 195.043,278.044 195.830 M185.200 195.132 C 185.200 195.315,186.055 196.073,187.100 196.818 C 191.279 199.795,195.470 204.486,198.519 209.600 C 200.171 212.370,199.798 211.056,198.022 207.849 C 195.597 203.469,185.200 193.158,185.200 195.132 M276.805 199.187 C 276.529 199.854,276.140 200.400,275.942 200.400 C 275.743 200.400,275.424 200.805,275.233 201.300 C 274.267 203.804,269.162 208.609,265.905 210.082 C 264.857 210.555,264.000 211.078,264.000 211.244 C 264.000 211.410,263.626 211.665,263.170 211.810 C 262.713 211.954,262.427 212.160,262.533 212.266 C 262.865 212.599,267.552 210.091,269.520 208.527 C 273.226 205.583,278.308 198.974,277.492 198.159 C 277.391 198.057,277.082 198.520,276.805 199.187 M104.073 207.614 C 103.257 208.489,100.688 213.559,100.228 215.200 C 100.074 215.750,100.501 215.137,101.177 213.837 C 101.854 212.537,102.607 211.232,102.852 210.937 C 103.097 210.642,103.141 210.397,102.949 210.394 C 102.757 210.391,102.790 210.256,103.021 210.094 C 103.544 209.729,105.346 206.800,105.048 206.800 C 104.929 206.800,104.490 207.166,104.073 207.614 M199.600 211.749 C 199.600 211.831,199.997 212.776,200.483 213.849 C 200.969 214.922,201.374 215.920,201.383 216.067 C 201.414 216.549,202.000 216.944,202.000 216.482 C 202.000 215.602,200.337 211.600,199.971 211.600 C 199.767 211.600,199.600 211.667,199.600 211.749 M259.600 213.000 C 258.830 213.297,258.470 213.539,258.800 213.539 C 259.130 213.539,260.030 213.297,260.800 213.000 C 261.570 212.703,261.930 212.461,261.600 212.461 C 261.270 212.461,260.370 212.703,259.600 213.000 M144.200 213.200 C 144.060 213.427,144.396 213.600,144.976 213.600 C 145.539 213.600,146.000 213.420,146.000 213.200 C 146.000 212.980,145.651 212.800,145.224 212.800 C 144.797 212.800,144.336 212.980,144.200 213.200 M151.800 213.200 C 151.655 213.434,152.070 213.600,152.800 213.600 C 153.530 213.600,153.945 213.434,153.800 213.200 C 153.664 212.980,153.214 212.800,152.800 212.800 C 152.386 212.800,151.936 212.980,151.800 213.200 M142.200 213.600 C 142.064 213.820,142.334 214.000,142.800 214.000 C 143.266 214.000,143.536 213.820,143.400 213.600 C 143.264 213.380,142.994 213.200,142.800 213.200 C 142.606 213.200,142.336 213.380,142.200 213.600 M155.005 213.591 C 154.782 213.953,157.118 214.615,157.449 214.284 C 157.555 214.179,157.096 213.902,156.429 213.670 C 155.763 213.438,155.122 213.402,155.005 213.591 M139.200 214.634 C 138.210 215.183,137.670 215.547,138.000 215.442 C 140.885 214.527,141.600 214.228,141.600 213.937 C 141.600 213.421,141.156 213.550,139.200 214.634 M254.400 214.400 C 254.400 214.901,254.824 214.901,255.600 214.400 C 256.085 214.086,256.028 214.011,255.300 214.006 C 254.805 214.003,254.400 214.180,254.400 214.400 M159.300 215.227 C 160.125 215.663,160.800 216.195,160.800 216.410 C 160.800 216.624,161.088 216.800,161.439 216.800 C 162.419 216.800,166.552 221.362,167.602 223.604 C 168.116 224.702,168.697 225.600,168.892 225.600 C 169.627 225.600,166.523 220.518,164.585 218.549 C 162.838 216.774,159.063 214.364,158.113 214.418 C 157.941 214.427,158.475 214.792,159.300 215.227 M251.400 214.800 C 251.536 215.020,251.896 215.200,252.200 215.200 C 252.504 215.200,252.864 215.020,253.000 214.800 C 253.141 214.572,252.796 214.400,252.200 214.400 C 251.604 214.400,251.259 214.572,251.400 214.800 M247.000 215.200 C 247.136 215.420,247.766 215.600,248.400 215.600 C 249.034 215.600,249.664 215.420,249.800 215.200 C 249.950 214.958,249.396 214.800,248.400 214.800 C 247.404 214.800,246.850 214.958,247.000 215.200 M241.600 215.600 C 241.600 215.820,242.309 216.000,243.176 216.000 C 244.043 216.000,244.864 215.820,245.000 215.600 C 245.151 215.356,244.537 215.200,243.424 215.200 C 242.421 215.200,241.600 215.380,241.600 215.600 M135.284 216.785 C 132.567 218.753,129.002 224.227,128.175 227.700 C 127.679 229.783,128.655 228.796,129.362 226.500 C 129.752 225.235,130.504 223.529,131.035 222.709 C 131.566 221.888,132.000 221.077,132.000 220.906 C 132.000 220.734,133.068 219.696,134.372 218.597 C 137.628 215.856,138.238 214.646,135.284 216.785 M239.600 215.954 C 239.600 216.149,238.979 216.603,238.221 216.963 C 236.846 217.616,235.200 219.491,235.200 220.405 C 235.200 220.670,236.028 219.966,237.039 218.841 C 238.050 217.716,239.310 216.687,239.839 216.554 C 240.895 216.290,241.155 215.600,240.200 215.600 C 239.870 215.600,239.600 215.759,239.600 215.954 M99.024 217.447 C 98.781 218.415,98.975 219.159,99.367 218.766 C 99.789 218.344,100.051 216.400,99.687 216.400 C 99.467 216.400,99.168 216.871,99.024 217.447 M98.252 220.100 C 97.888 221.460,97.952 222.077,98.427 221.783 C 98.662 221.638,98.760 221.273,98.645 220.972 C 98.529 220.672,98.607 220.319,98.817 220.189 C 99.298 219.892,99.319 219.200,98.847 219.200 C 98.652 219.200,98.385 219.605,98.252 220.100 M97.200 224.800 C 97.200 225.547,97.307 225.653,97.680 225.280 C 98.053 224.907,98.053 224.693,97.680 224.320 C 97.307 223.947,97.200 224.053,97.200 224.800 M203.714 227.800 C 203.717 228.900,203.795 229.303,203.887 228.695 C 203.979 228.086,203.977 227.186,203.882 226.695 C 203.787 226.203,203.711 226.700,203.714 227.800 M96.806 227.300 C 96.811 228.028,96.886 228.085,97.200 227.600 C 97.701 226.824,97.701 226.400,97.200 226.400 C 96.980 226.400,96.803 226.805,96.806 227.300 M169.200 228.200 C 169.200 228.530,169.380 228.800,169.600 228.800 C 169.820 228.800,170.000 228.530,170.000 228.200 C 170.000 227.870,169.820 227.600,169.600 227.600 C 169.380 227.600,169.200 227.870,169.200 228.200 M169.600 230.800 C 169.600 231.460,169.780 232.000,170.000 232.000 C 170.220 232.000,170.400 231.460,170.400 230.800 C 170.400 230.140,170.220 229.600,170.000 229.600 C 169.780 229.600,169.600 230.140,169.600 230.800 M96.109 233.200 C 96.109 234.190,96.187 234.595,96.282 234.100 C 96.378 233.605,96.378 232.795,96.282 232.300 C 96.187 231.805,96.109 232.210,96.109 233.200 M234.805 233.051 C 234.793 234.186,236.114 236.446,237.333 237.376 C 239.116 238.736,239.744 238.662,238.132 237.282 C 237.435 236.685,236.402 235.387,235.837 234.398 C 235.272 233.409,234.807 232.803,234.805 233.051 M203.720 235.600 C 203.720 236.810,203.795 237.305,203.887 236.700 C 203.978 236.095,203.978 235.105,203.887 234.500 C 203.795 233.895,203.720 234.390,203.720 235.600 M125.902 235.808 C 125.557 236.473,124.770 237.521,124.153 238.138 C 123.052 239.239,123.050 239.251,124.023 238.808 C 125.197 238.273,126.953 235.856,126.704 235.118 C 126.600 234.812,126.272 235.094,125.902 235.808 M96.430 235.600 C 96.355 237.273,99.402 240.038,101.260 239.984 C 101.557 239.976,101.208 239.712,100.485 239.397 C 99.201 238.839,97.271 236.908,96.728 235.636 C 96.500 235.103,96.452 235.097,96.430 235.600 M169.600 238.600 C 169.600 239.150,169.780 239.600,170.000 239.600 C 170.220 239.600,170.400 239.150,170.400 238.600 C 170.400 238.050,170.220 237.600,170.000 237.600 C 169.780 237.600,169.600 238.050,169.600 238.600 M247.874 239.099 C 251.655 239.165,257.955 239.165,261.874 239.099 C 265.793 239.034,262.700 238.980,255.000 238.980 C 247.300 238.980,244.093 239.034,247.874 239.099 M270.217 239.945 C 271.682 240.839,273.600 243.041,273.600 243.831 C 273.600 244.144,273.780 244.400,274.000 244.400 C 274.583 244.400,274.510 244.158,273.386 242.378 C 272.445 240.887,270.331 239.203,269.400 239.203 C 269.180 239.203,269.548 239.537,270.217 239.945 M169.200 241.224 C 169.200 241.677,169.380 241.936,169.600 241.800 C 169.820 241.664,170.000 241.293,170.000 240.976 C 170.000 240.659,169.820 240.400,169.600 240.400 C 169.380 240.400,169.200 240.771,169.200 241.224 M202.008 243.778 C 201.781 244.377,201.696 245.032,201.821 245.234 C 201.945 245.435,201.896 245.600,201.711 245.600 C 201.297 245.600,200.331 248.065,200.629 248.362 C 200.968 248.702,201.554 247.577,202.241 245.270 C 202.903 243.042,202.725 241.894,202.008 243.778 M167.861 245.298 C 167.462 246.342,166.925 247.332,166.668 247.498 C 166.410 247.664,165.544 248.617,164.743 249.615 C 163.941 250.613,162.456 251.857,161.443 252.378 C 159.727 253.261,159.069 254.000,160.000 254.000 C 160.220 254.000,160.400 253.809,160.400 253.576 C 160.400 253.343,160.552 253.247,160.738 253.362 C 161.997 254.140,169.080 245.943,168.726 244.117 C 168.638 243.660,168.324 244.088,167.861 245.298 M274.006 296.700 C 274.002 331.171,274.135 348.800,274.400 348.800 C 274.942 348.800,274.942 246.038,274.400 245.200 C 274.149 244.811,274.010 262.916,274.006 296.700 M198.690 251.500 C 198.079 252.545,197.359 253.760,197.090 254.200 C 196.820 254.640,194.485 257.095,191.900 259.655 C 189.315 262.215,187.200 264.437,187.200 264.593 C 187.200 265.501,188.839 267.267,191.439 269.163 C 193.866 270.931,202.017 278.800,201.422 278.800 C 201.330 278.800,201.855 279.692,202.589 280.783 C 203.323 281.874,204.436 284.032,205.062 285.578 C 206.072 288.073,206.800 289.102,206.800 288.033 C 206.800 285.300,196.927 271.200,195.013 271.200 C 194.763 271.200,193.847 270.518,192.979 269.685 C 192.111 268.851,190.725 267.726,189.899 267.185 C 187.238 265.438,187.482 263.981,190.836 261.600 C 191.921 260.830,193.272 259.538,193.838 258.730 C 194.404 257.921,195.115 257.165,195.417 257.049 C 195.719 256.933,196.454 256.065,197.052 255.119 C 199.247 251.643,200.372 249.600,200.090 249.600 C 199.930 249.601,199.300 250.456,198.690 251.500 M157.900 253.876 C 157.178 254.064,156.914 254.800,157.567 254.800 C 158.259 254.800,159.200 254.314,159.200 253.957 C 159.200 253.584,159.052 253.575,157.900 253.876 M148.900 256.276 C 149.285 256.376,149.915 256.376,150.300 256.276 C 150.685 256.175,150.370 256.093,149.600 256.093 C 148.830 256.093,148.515 256.175,148.900 256.276 M143.600 256.790 C 143.600 257.014,144.153 257.075,144.900 256.933 C 146.723 256.586,146.781 256.400,145.067 256.400 C 144.260 256.400,143.600 256.576,143.600 256.790 M140.583 257.545 C 139.913 257.953,139.025 258.808,138.610 259.444 C 138.194 260.080,137.616 260.838,137.327 261.129 C 136.748 261.709,136.613 262.800,137.120 262.800 C 137.295 262.800,137.671 262.160,137.953 261.378 C 138.412 260.111,139.491 259.094,142.256 257.324 C 143.543 256.500,141.952 256.710,140.583 257.545 M136.800 275.771 C 136.800 276.086,137.031 276.581,137.313 276.871 C 137.595 277.162,138.240 277.988,138.745 278.706 C 139.777 280.173,141.711 281.330,142.727 281.087 C 143.221 280.969,143.081 280.795,142.202 280.436 C 140.187 279.611,138.477 278.070,137.945 276.599 C 137.433 275.182,136.800 274.725,136.800 275.771 M144.000 281.200 C 144.000 281.420,144.855 281.579,145.900 281.553 C 147.596 281.510,147.671 281.473,146.600 281.200 C 144.831 280.750,144.000 280.750,144.000 281.200 M149.700 281.876 C 150.085 281.976,150.715 281.976,151.100 281.876 C 151.485 281.775,151.170 281.693,150.400 281.693 C 149.630 281.693,149.315 281.775,149.700 281.876 M160.000 283.934 C 160.000 284.147,160.581 284.524,161.291 284.772 C 165.451 286.222,168.368 288.852,171.528 294.000 C 173.056 296.491,172.862 295.161,171.295 292.400 C 169.099 288.532,160.000 281.713,160.000 283.934 M206.400 288.974 C 206.400 289.511,207.255 291.278,207.431 291.103 C 207.746 290.787,207.165 288.800,206.757 288.800 C 206.560 288.800,206.400 288.878,206.400 288.974 M208.493 297.200 C 208.493 297.970,208.575 298.285,208.676 297.900 C 208.776 297.515,208.776 296.885,208.676 296.500 C 208.575 296.115,208.493 296.430,208.493 297.200 M173.600 300.376 C 173.600 300.829,173.780 301.200,174.000 301.200 C 174.220 301.200,174.400 300.941,174.400 300.624 C 174.400 300.307,174.220 299.936,174.000 299.800 C 173.780 299.664,173.600 299.923,173.600 300.376 M208.958 305.000 C 208.958 308.080,209.021 309.287,209.097 307.682 C 209.173 306.078,209.173 303.558,209.096 302.082 C 209.019 300.607,208.957 301.920,208.958 305.000 M98.000 302.800 C 98.000 303.020,97.765 303.200,97.479 303.200 C 96.643 303.200,93.666 305.563,93.384 306.449 C 92.941 307.847,93.442 307.678,94.506 306.071 C 96.325 303.322,96.941 303.200,108.973 303.200 C 117.079 303.200,119.933 303.331,120.913 303.746 C 122.372 304.365,124.932 307.090,125.133 308.238 C 125.291 309.139,126.000 309.998,126.000 309.288 C 126.000 307.117,122.438 303.200,120.465 303.200 C 120.209 303.200,120.000 303.020,120.000 302.800 C 120.000 302.543,116.067 302.400,109.000 302.400 C 101.933 302.400,98.000 302.543,98.000 302.800 M174.034 306.200 C 174.049 308.579,174.173 309.529,174.400 309.000 C 174.874 307.898,174.874 303.933,174.400 303.200 C 174.135 302.789,174.019 303.737,174.034 306.200 M92.800 309.800 C 92.800 310.790,92.964 311.600,93.164 311.600 C 93.364 311.600,93.515 310.790,93.501 309.800 C 93.486 308.810,93.322 308.000,93.137 308.000 C 92.951 308.000,92.800 308.810,92.800 309.800 M125.606 310.500 C 125.620 311.642,126.388 312.226,126.394 311.100 C 126.397 310.495,126.220 310.000,126.000 310.000 C 125.780 310.000,125.603 310.225,125.606 310.500 M173.612 311.820 C 173.623 312.854,173.677 312.909,174.054 312.261 C 174.361 311.732,174.358 311.398,174.041 311.081 C 173.720 310.760,173.603 310.959,173.612 311.820 M208.493 313.200 C 208.493 313.970,208.575 314.285,208.676 313.900 C 208.776 313.515,208.776 312.885,208.676 312.500 C 208.575 312.115,208.493 312.430,208.493 313.200 M93.200 313.776 C 93.200 314.339,93.380 314.800,93.600 314.800 C 93.820 314.800,94.000 314.451,94.000 314.024 C 94.000 313.597,93.820 313.136,93.600 313.000 C 93.373 312.860,93.200 313.196,93.200 313.776 M172.870 315.054 C 172.345 317.019,172.535 317.969,173.130 316.355 C 173.767 314.630,174.021 313.200,173.691 313.200 C 173.512 313.200,173.143 314.034,172.870 315.054 M127.009 315.316 C 127.741 319.129,130.805 324.227,133.898 326.777 C 135.224 327.869,139.594 330.400,140.156 330.400 C 141.051 330.400,140.092 329.548,138.522 328.949 C 135.633 327.846,131.427 323.943,129.959 321.003 C 129.463 320.011,128.899 319.200,128.705 319.200 C 128.512 319.200,128.476 319.000,128.628 318.755 C 128.779 318.511,128.726 318.196,128.511 318.055 C 128.296 317.915,127.822 316.990,127.458 316.000 C 127.093 315.010,126.892 314.702,127.009 315.316 M93.600 316.600 C 93.600 317.196,93.772 317.541,94.000 317.400 C 94.220 317.264,94.400 316.904,94.400 316.600 C 94.400 316.296,94.220 315.936,94.000 315.800 C 93.772 315.659,93.600 316.004,93.600 316.600 M172.000 317.905 C 172.000 318.146,171.773 318.581,171.495 318.871 C 170.153 320.275,169.325 322.000,169.993 322.000 C 170.475 322.000,172.544 318.011,172.227 317.694 C 172.102 317.569,172.000 317.664,172.000 317.905 M94.000 318.776 C 94.000 319.229,94.180 319.600,94.400 319.600 C 94.620 319.600,94.800 319.341,94.800 319.024 C 94.800 318.707,94.620 318.336,94.400 318.200 C 94.180 318.064,94.000 318.323,94.000 318.776 M94.400 320.600 C 94.400 320.930,94.580 321.200,94.800 321.200 C 95.020 321.200,95.200 320.930,95.200 320.600 C 95.200 320.270,95.020 320.000,94.800 320.000 C 94.580 320.000,94.400 320.270,94.400 320.600 M206.350 322.133 C 206.233 322.759,206.117 323.080,205.476 324.549 C 204.690 326.350,204.682 326.400,205.168 326.400 C 205.619 326.400,206.977 322.443,206.641 322.107 C 206.508 321.975,206.378 321.987,206.350 322.133 M167.782 323.910 C 166.892 324.730,165.369 326.075,164.398 326.900 C 163.426 327.725,162.772 328.400,162.944 328.400 C 163.551 328.400,166.623 326.048,168.383 324.236 C 170.517 322.039,170.075 321.799,167.782 323.910 M95.656 324.000 C 95.656 324.330,95.811 324.960,96.000 325.400 C 96.217 325.904,96.344 325.978,96.344 325.600 C 96.344 325.270,96.189 324.640,96.000 324.200 C 95.783 323.696,95.656 323.622,95.656 324.000 M96.400 326.602 C 96.400 327.350,97.719 330.400,98.042 330.400 C 98.422 330.400,98.233 329.827,97.158 327.718 C 96.741 326.900,96.400 326.398,96.400 326.602 M203.491 329.064 C 202.888 330.310,202.478 331.411,202.579 331.513 C 202.681 331.614,203.168 330.865,203.661 329.848 C 204.155 328.832,204.704 328.000,204.880 328.000 C 205.056 328.000,205.200 327.730,205.200 327.400 C 205.200 326.221,204.570 326.835,203.491 329.064 M159.500 329.493 C 157.607 330.270,157.532 330.869,159.400 330.295 C 160.170 330.059,160.800 329.705,160.800 329.509 C 160.800 329.313,160.980 329.264,161.200 329.400 C 161.420 329.536,161.600 329.457,161.600 329.224 C 161.600 328.696,161.371 328.726,159.500 329.493 M142.400 330.800 C 142.400 331.020,142.670 331.200,143.000 331.200 C 143.330 331.200,143.600 331.020,143.600 330.800 C 143.600 330.580,143.330 330.400,143.000 330.400 C 142.670 330.400,142.400 330.580,142.400 330.800 M156.000 330.800 C 156.000 331.020,156.259 331.200,156.576 331.200 C 156.893 331.200,157.264 331.020,157.400 330.800 C 157.536 330.580,157.277 330.400,156.824 330.400 C 156.371 330.400,156.000 330.580,156.000 330.800 M98.000 330.992 C 98.000 331.742,99.376 334.382,99.865 334.569 C 100.196 334.697,100.401 334.665,100.320 334.500 C 100.238 334.335,99.844 333.435,99.443 332.500 C 98.841 331.098,98.000 330.219,98.000 330.992 M144.200 331.200 C 144.336 331.420,144.797 331.600,145.224 331.600 C 145.651 331.600,146.000 331.420,146.000 331.200 C 146.000 330.980,145.539 330.800,144.976 330.800 C 144.396 330.800,144.060 330.973,144.200 331.200 M154.000 331.200 C 154.000 331.420,154.360 331.600,154.800 331.600 C 155.240 331.600,155.600 331.420,155.600 331.200 C 155.600 330.980,155.240 330.800,154.800 330.800 C 154.360 330.800,154.000 330.980,154.000 331.200 M147.600 331.600 C 147.600 331.826,148.733 332.000,150.200 332.000 C 151.667 332.000,152.800 331.826,152.800 331.600 C 152.800 331.374,151.667 331.200,150.200 331.200 C 148.733 331.200,147.600 331.374,147.600 331.600 M200.186 334.871 C 197.208 339.485,192.788 344.468,189.251 347.200 C 188.538 347.750,187.482 348.594,186.904 349.077 C 185.600 350.163,176.563 354.788,175.660 354.832 C 175.297 354.849,175.204 354.947,175.453 355.049 C 176.051 355.295,182.722 352.604,184.000 351.602 C 184.550 351.171,186.223 349.999,187.718 348.999 C 191.739 346.309,199.600 337.993,199.600 336.430 C 199.600 336.194,199.772 336.000,199.983 336.000 C 200.453 336.000,202.580 332.447,202.287 332.153 C 202.171 332.037,201.225 333.260,200.186 334.871 M101.344 337.000 C 101.882 338.100,103.015 339.799,103.861 340.775 C 107.011 344.408,108.746 346.187,108.944 345.989 C 109.056 345.877,108.359 344.939,107.396 343.904 C 106.432 342.870,104.869 340.983,103.922 339.712 C 102.975 338.441,102.059 337.220,101.886 337.000 C 101.714 336.780,101.301 336.240,100.969 335.800 C 100.637 335.360,100.806 335.900,101.344 337.000 M109.600 346.331 C 109.600 346.874,111.679 348.581,113.935 349.889 C 114.961 350.483,115.980 351.194,116.200 351.468 C 116.629 352.001,122.961 354.801,123.735 354.799 C 123.991 354.799,122.310 353.847,120.000 352.684 C 116.130 350.735,113.698 349.346,113.200 348.799 C 112.421 347.944,109.600 346.010,109.600 346.331 M274.579 350.300 C 275.077 352.358,279.248 355.159,281.097 354.676 C 281.605 354.544,281.538 354.480,280.854 354.446 C 279.200 354.365,276.767 352.685,275.723 350.904 C 274.568 348.934,274.202 348.741,274.579 350.300 M306.200 352.142 C 305.760 352.614,304.950 353.320,304.400 353.711 L 303.400 354.422 304.400 354.166 C 305.425 353.904,307.600 352.108,307.600 351.525 C 307.600 350.989,307.049 351.232,306.200 352.142 M126.800 355.936 C 126.800 356.393,129.133 357.000,129.495 356.638 C 129.840 356.293,129.561 356.128,128.100 355.815 C 127.314 355.647,126.800 355.695,126.800 355.936 M171.900 355.876 C 171.515 355.976,171.200 356.246,171.200 356.476 C 171.200 356.714,171.588 356.789,172.100 356.652 C 172.595 356.519,173.135 356.408,173.300 356.405 C 173.465 356.402,173.600 356.220,173.600 356.000 C 173.600 355.589,173.128 355.555,171.900 355.876 M130.000 356.800 C 130.000 357.020,130.270 357.200,130.600 357.200 C 130.930 357.200,131.200 357.020,131.200 356.800 C 131.200 356.580,130.930 356.400,130.600 356.400 C 130.270 356.400,130.000 356.580,130.000 356.800 M131.600 357.200 C 131.600 357.420,131.971 357.600,132.424 357.600 C 132.877 357.600,133.136 357.420,133.000 357.200 C 132.864 356.980,132.493 356.800,132.176 356.800 C 131.859 356.800,131.600 356.980,131.600 357.200 M167.423 357.162 C 167.300 357.362,166.860 357.436,166.445 357.328 C 166.030 357.219,165.569 357.326,165.422 357.565 C 165.117 358.059,165.737 358.113,167.550 357.750 C 168.238 357.613,168.800 357.343,168.800 357.150 C 168.800 356.688,167.710 356.698,167.423 357.162 M134.000 357.600 C 134.000 357.820,134.371 358.000,134.824 358.000 C 135.277 358.000,135.536 357.820,135.400 357.600 C 135.264 357.380,134.893 357.200,134.576 357.200 C 134.259 357.200,134.000 357.380,134.000 357.600 M136.600 358.000 C 136.457 358.231,136.828 358.397,137.476 358.394 C 138.349 358.389,138.466 358.301,138.000 358.000 C 137.231 357.503,136.907 357.503,136.600 358.000 M162.600 358.000 C 161.933 358.286,162.021 358.348,163.124 358.372 C 163.910 358.389,164.347 358.238,164.200 358.000 C 163.912 357.534,163.685 357.534,162.600 358.000 M140.159 358.467 C 140.045 358.650,140.593 358.800,141.376 358.800 C 142.159 358.800,142.800 358.730,142.800 358.645 C 142.800 358.317,140.354 358.151,140.159 358.467 M159.000 358.400 C 157.815 358.702,157.818 358.706,159.324 358.753 C 160.248 358.781,160.750 358.643,160.600 358.400 C 160.464 358.180,160.318 358.021,160.276 358.047 C 160.234 358.073,159.660 358.232,159.000 358.400 M147.717 359.097 C 149.211 359.174,151.551 359.174,152.917 359.096 C 154.282 359.018,153.060 358.955,150.200 358.955 C 147.340 358.956,146.222 359.020,147.717 359.097 M0.137 363.000 C 0.139 364.760,0.209 365.430,0.293 364.489 C 0.378 363.549,0.377 362.109,0.291 361.289 C 0.205 360.470,0.136 361.240,0.137 363.000 M399.737 363.000 C 399.739 364.760,399.809 365.430,399.893 364.489 C 399.978 363.549,399.977 362.109,399.891 361.289 C 399.805 360.470,399.736 361.240,399.737 363.000 M30.202 364.797 C 30.067 365.015,30.141 365.510,30.366 365.897 C 30.717 366.500,30.777 366.444,30.788 365.500 C 30.801 364.350,30.616 364.128,30.202 364.797 M369.200 365.400 C 369.200 365.996,369.372 366.341,369.600 366.200 C 369.820 366.064,370.000 365.704,370.000 365.400 C 370.000 365.096,369.820 364.736,369.600 364.600 C 369.372 364.459,369.200 364.804,369.200 365.400 M0.493 368.400 C 0.493 369.170,0.575 369.485,0.676 369.100 C 0.776 368.715,0.776 368.085,0.676 367.700 C 0.575 367.315,0.493 367.630,0.493 368.400 M399.293 368.400 C 399.293 369.170,399.375 369.485,399.476 369.100 C 399.576 368.715,399.576 368.085,399.476 367.700 C 399.375 367.315,399.293 367.630,399.293 368.400 M31.632 370.629 C 31.573 371.425,32.872 374.800,33.238 374.800 C 33.696 374.800,33.714 374.111,33.260 373.933 C 33.073 373.860,32.637 372.990,32.292 372.000 C 31.946 371.010,31.649 370.393,31.632 370.629 M367.635 372.042 C 367.364 372.945,367.037 373.980,366.908 374.342 C 366.778 374.704,366.776 374.910,366.903 374.800 C 367.366 374.398,368.778 370.400,368.457 370.400 C 368.276 370.400,367.905 371.139,367.635 372.042 M33.200 375.386 C 33.200 375.852,34.579 378.400,34.831 378.400 C 34.986 378.400,35.226 378.850,35.364 379.400 C 35.502 379.950,35.786 380.400,35.995 380.400 C 36.414 380.400,36.236 379.906,34.808 377.100 C 33.997 375.507,33.200 374.657,33.200 375.386 M365.192 377.100 C 363.791 379.852,363.586 380.400,363.957 380.400 C 364.266 380.400,366.800 375.982,366.800 375.444 C 366.800 374.661,366.030 375.454,365.192 377.100 M2.800 380.329 C 2.800 381.194,4.123 384.400,4.480 384.400 C 4.703 384.400,4.789 384.149,4.671 383.842 C 4.553 383.535,4.236 382.545,3.965 381.642 C 3.537 380.212,2.800 379.382,2.800 380.329 M396.035 381.642 C 395.764 382.545,395.447 383.535,395.329 383.842 C 395.211 384.149,395.297 384.400,395.520 384.400 C 395.877 384.400,397.200 381.194,397.200 380.329 C 397.200 379.382,396.463 380.212,396.035 381.642 M36.991 381.855 C 38.030 383.646,42.661 388.651,42.987 388.336 C 43.138 388.191,42.437 387.313,41.430 386.385 C 40.424 385.457,39.600 384.496,39.600 384.249 C 39.599 384.002,38.848 383.080,37.931 382.200 C 36.322 380.658,36.288 380.645,36.991 381.855 M361.900 382.372 C 361.075 383.222,360.400 384.091,360.400 384.304 C 360.400 384.517,359.455 385.532,358.300 386.562 C 357.145 387.591,355.631 388.955,354.935 389.593 C 354.239 390.231,352.574 391.306,351.235 391.982 C 348.697 393.263,347.749 394.488,350.200 393.319 C 350.970 392.952,351.600 392.505,351.600 392.326 C 351.600 392.147,351.809 392.000,352.064 392.000 C 353.597 392.000,360.780 385.379,362.928 381.986 C 363.913 380.430,363.712 380.506,361.900 382.372 M4.846 385.200 C 4.839 385.530,5.178 386.430,5.600 387.200 C 6.575 388.981,6.575 388.306,5.600 386.200 C 5.193 385.320,4.854 384.870,4.846 385.200 M394.265 386.471 C 393.514 388.382,393.632 389.055,394.395 387.213 C 394.671 386.546,395.055 386.000,395.249 386.000 C 395.442 386.000,395.600 385.730,395.600 385.400 C 395.600 384.260,394.919 384.806,394.265 386.471 M43.600 388.766 C 43.600 389.220,47.342 392.000,47.954 392.000 C 48.199 392.000,48.400 392.155,48.400 392.344 C 48.400 392.709,54.454 395.600,55.218 395.600 C 55.465 395.600,54.436 394.949,52.933 394.154 C 51.430 393.359,49.141 392.144,47.847 391.454 C 46.552 390.764,45.227 389.795,44.901 389.300 C 44.299 388.386,43.600 388.099,43.600 388.766 M6.400 389.229 C 6.400 389.754,7.949 392.503,10.264 396.087 C 11.219 397.565,12.000 398.939,12.000 399.140 C 12.000 399.341,12.678 400.202,13.508 401.053 C 14.337 401.904,15.544 403.320,16.192 404.200 C 17.670 406.211,21.245 409.785,23.600 411.607 C 24.590 412.373,25.991 413.585,26.713 414.300 C 27.436 415.015,28.211 415.600,28.435 415.600 C 28.660 415.600,29.892 416.312,31.173 417.182 C 32.455 418.052,33.615 418.652,33.751 418.515 C 33.888 418.379,34.000 418.485,34.000 418.752 C 34.000 419.222,39.935 422.168,41.851 422.649 C 42.373 422.780,42.800 423.047,42.800 423.243 C 42.800 423.440,42.980 423.600,43.200 423.600 C 44.225 423.600,43.415 422.839,41.700 422.191 C 38.254 420.888,30.551 416.366,26.945 413.528 C 24.995 411.994,23.220 410.617,23.000 410.469 C 19.545 408.145,9.599 395.096,7.321 389.900 C 6.827 388.775,6.400 388.463,6.400 389.229 M391.034 392.845 C 387.147 399.778,380.868 407.273,374.800 412.221 C 373.810 413.028,372.940 413.849,372.867 414.044 C 372.793 414.240,372.592 414.400,372.420 414.400 C 371.956 414.400,366.622 418.020,366.467 418.440 C 366.301 418.887,367.083 418.923,367.267 418.477 C 367.440 418.057,371.041 415.600,371.483 415.600 C 371.669 415.600,372.447 415.022,373.211 414.315 C 373.975 413.608,375.410 412.408,376.400 411.649 C 378.686 409.895,381.867 406.719,383.659 404.400 C 384.425 403.410,385.714 401.890,386.525 401.022 C 387.336 400.154,388.000 399.295,388.000 399.113 C 388.000 398.750,390.030 395.522,390.462 395.197 C 390.610 395.086,391.386 393.762,392.185 392.255 C 394.539 387.818,393.575 388.312,391.034 392.845 M347.600 393.935 C 347.600 394.119,346.610 394.607,345.400 395.018 C 344.190 395.429,343.200 395.895,343.200 396.053 C 343.200 396.211,344.314 395.904,345.676 395.370 C 347.038 394.837,348.208 394.400,348.276 394.400 C 348.344 394.400,348.400 394.220,348.400 394.000 C 348.400 393.780,348.220 393.600,348.000 393.600 C 347.780 393.600,347.600 393.751,347.600 393.935 M60.600 397.200 C 60.736 397.420,61.096 397.600,61.400 397.600 C 61.704 397.600,62.064 397.420,62.200 397.200 C 62.341 396.972,61.996 396.800,61.400 396.800 C 60.804 396.800,60.459 396.972,60.600 397.200 M338.000 397.200 C 338.000 397.420,338.259 397.600,338.576 397.600 C 338.893 397.600,339.264 397.420,339.400 397.200 C 339.536 396.980,339.277 396.800,338.824 396.800 C 338.371 396.800,338.000 396.980,338.000 397.200 M63.400 397.600 C 63.536 397.820,64.177 398.000,64.824 398.000 C 65.471 398.000,66.000 397.820,66.000 397.600 C 66.000 397.380,65.359 397.200,64.576 397.200 C 63.729 397.200,63.253 397.362,63.400 397.600 M334.000 397.600 C 334.000 397.820,334.529 398.000,335.176 398.000 C 335.823 398.000,336.464 397.820,336.600 397.600 C 336.747 397.362,336.271 397.200,335.424 397.200 C 334.641 397.200,334.000 397.380,334.000 397.600 M364.200 419.273 C 363.320 419.733,362.490 420.281,362.355 420.489 C 362.221 420.698,361.951 420.875,361.755 420.883 C 361.560 420.892,360.433 421.326,359.250 421.849 C 358.068 422.372,356.943 422.800,356.750 422.800 C 356.558 422.800,356.400 422.995,356.400 423.233 C 356.400 423.472,356.535 423.597,356.700 423.512 C 356.865 423.427,357.720 423.034,358.600 422.638 C 364.358 420.048,366.000 419.203,366.000 418.826 C 366.000 418.299,366.115 418.271,364.200 419.273 M44.000 423.585 C 44.000 423.933,47.571 425.200,48.553 425.200 C 49.382 425.200,48.165 424.495,46.229 423.853 C 43.909 423.084,44.000 423.095,44.000 423.585 M353.528 423.931 C 351.511 424.652,350.705 425.200,351.662 425.200 C 352.676 425.200,356.000 423.945,356.000 423.562 C 356.000 423.094,355.775 423.128,353.528 423.931 M49.200 425.126 C 49.200 425.518,50.536 425.994,51.600 425.982 C 52.133 425.976,52.133 425.938,51.600 425.636 C 50.507 425.018,49.200 424.740,49.200 425.126 M349.256 425.259 C 348.517 425.472,348.009 425.742,348.128 425.861 C 348.459 426.192,350.800 425.585,350.800 425.168 C 350.800 424.966,350.755 424.816,350.700 424.836 C 350.645 424.856,349.995 425.046,349.256 425.259 M60.705 427.483 C 61.202 427.579,61.922 427.575,62.305 427.475 C 62.687 427.375,62.280 427.296,61.400 427.301 C 60.520 427.305,60.207 427.387,60.705 427.483 M337.905 427.483 C 338.402 427.579,339.122 427.575,339.505 427.475 C 339.887 427.375,339.480 427.296,338.600 427.301 C 337.720 427.305,337.407 427.387,337.905 427.483 M133.532 427.900 C 170.345 427.956,230.465 427.956,267.132 427.900 C 303.800 427.844,273.680 427.798,200.200 427.798 C 126.720 427.798,96.720 427.844,133.532 427.900 " stroke="none" fill="#008cd7" fill-rule="evenodd"></path></g></svg>