<svg id="svg" version="1.1" width="400" height="400" viewBox="0 0 400 400" xmlns="http://www.w3.org/2000/svg" xmlns:xlink="http://www.w3.org/1999/xlink" ><g id="svgg"><path id="path0" d="M174.400 0.367 C 174.400 0.569,172.137 0.794,169.371 0.867 C 165.084 0.980,164.285 1.103,163.951 1.700 C 163.627 2.281,162.984 2.400,160.180 2.400 C 157.333 2.400,156.674 2.526,156.000 3.200 C 155.355 3.845,154.667 4.000,152.447 4.000 C 150.030 4.000,149.668 4.098,149.484 4.800 C 149.304 5.490,148.938 5.600,146.837 5.600 C 144.933 5.600,144.225 5.775,143.600 6.400 C 143.009 6.991,142.267 7.200,140.763 7.200 C 139.062 7.200,138.691 7.332,138.516 8.000 C 138.339 8.677,137.970 8.800,136.116 8.800 C 134.262 8.800,133.893 8.923,133.716 9.600 C 133.539 10.275,133.170 10.400,131.353 10.400 C 129.467 10.400,129.200 10.499,129.200 11.200 C 129.200 11.867,128.933 12.000,127.600 12.000 C 126.444 12.000,126.000 12.167,126.000 12.600 C 126.000 13.026,125.564 13.202,124.500 13.205 C 122.411 13.213,121.200 13.595,121.200 14.247 C 121.200 14.615,120.720 14.800,119.763 14.800 C 118.662 14.800,118.276 14.987,118.116 15.600 C 117.957 16.206,117.570 16.400,116.516 16.400 C 115.462 16.400,115.075 16.594,114.916 17.200 C 114.759 17.801,114.370 18.000,113.353 18.000 C 112.533 18.000,111.685 18.315,111.200 18.800 C 110.760 19.240,110.083 19.600,109.696 19.600 C 109.309 19.600,108.768 19.960,108.493 20.400 C 108.174 20.910,107.560 21.200,106.797 21.200 C 105.867 21.200,105.600 21.378,105.600 22.000 C 105.600 22.667,105.333 22.800,104.000 22.800 C 102.667 22.800,102.400 22.933,102.400 23.600 C 102.400 24.252,102.133 24.400,100.963 24.400 C 99.862 24.400,99.476 24.587,99.316 25.200 C 99.161 25.794,98.770 26.000,97.800 26.000 C 96.830 26.000,96.439 26.206,96.284 26.800 C 96.169 27.240,95.809 27.600,95.484 27.600 C 95.159 27.600,94.799 27.960,94.684 28.400 C 94.524 29.013,94.138 29.200,93.037 29.200 C 92.026 29.200,91.600 29.378,91.600 29.800 C 91.600 30.130,91.268 30.400,90.862 30.400 C 90.456 30.400,89.798 30.760,89.400 31.200 C 89.002 31.640,88.327 32.000,87.901 32.000 C 87.462 32.000,87.034 32.347,86.916 32.800 C 86.801 33.240,86.411 33.600,86.050 33.600 C 85.688 33.600,85.168 33.960,84.893 34.400 C 84.616 34.843,83.960 35.200,83.424 35.200 C 82.805 35.200,82.362 35.490,82.200 36.000 C 82.060 36.440,81.671 36.800,81.336 36.800 C 81.000 36.800,80.631 37.160,80.516 37.600 C 80.401 38.040,79.982 38.400,79.586 38.400 C 78.438 38.400,77.600 38.840,77.600 39.443 C 77.600 39.749,77.240 40.000,76.800 40.000 C 76.267 40.000,76.000 40.267,76.000 40.800 C 76.000 41.333,75.733 41.600,75.200 41.600 C 74.667 41.600,74.400 41.867,74.400 42.400 C 74.400 42.933,74.133 43.200,73.600 43.200 C 73.067 43.200,72.800 43.467,72.800 44.000 C 72.800 44.620,72.533 44.800,71.613 44.800 C 70.790 44.800,69.997 45.229,69.027 46.200 C 68.257 46.970,67.453 47.600,67.240 47.600 C 67.028 47.600,66.746 47.941,66.614 48.357 C 66.482 48.773,66.019 49.206,65.587 49.319 C 65.154 49.433,64.800 49.791,64.800 50.116 C 64.800 50.441,64.440 50.801,64.000 50.916 C 63.560 51.031,63.200 51.412,63.200 51.763 C 63.200 52.113,62.930 52.400,62.600 52.400 C 62.267 52.400,62.000 52.756,62.000 53.200 C 62.000 53.733,61.733 54.000,61.200 54.000 C 60.667 54.000,60.400 54.267,60.400 54.800 C 60.400 55.333,60.133 55.600,59.600 55.600 C 59.067 55.600,58.800 55.867,58.800 56.400 C 58.800 56.933,58.533 57.200,58.000 57.200 C 57.467 57.200,57.200 57.467,57.200 58.000 C 57.200 58.533,56.933 58.800,56.400 58.800 C 55.867 58.800,55.600 59.067,55.600 59.600 C 55.600 60.133,55.333 60.400,54.800 60.400 C 54.267 60.400,54.000 60.667,54.000 61.200 C 54.000 61.733,53.733 62.000,53.200 62.000 C 52.760 62.000,52.400 62.249,52.400 62.553 C 52.400 62.858,52.040 63.201,51.600 63.316 C 51.160 63.431,50.800 63.791,50.800 64.116 C 50.800 64.441,50.440 64.801,50.000 64.916 C 49.560 65.031,49.200 65.400,49.200 65.736 C 49.200 66.071,48.840 66.460,48.400 66.600 C 47.960 66.740,47.600 67.028,47.600 67.240 C 47.600 67.453,46.970 68.257,46.200 69.027 C 45.229 69.997,44.800 70.790,44.800 71.613 C 44.800 72.533,44.620 72.800,44.000 72.800 C 43.467 72.800,43.200 73.067,43.200 73.600 C 43.200 74.133,42.933 74.400,42.400 74.400 C 41.867 74.400,41.600 74.667,41.600 75.200 C 41.600 75.733,41.333 76.000,40.800 76.000 C 40.267 76.000,40.000 76.267,40.000 76.800 C 40.000 77.240,39.749 77.600,39.443 77.600 C 38.840 77.600,38.400 78.438,38.400 79.586 C 38.400 79.982,38.040 80.401,37.600 80.516 C 37.160 80.631,36.800 81.000,36.800 81.336 C 36.800 81.671,36.440 82.060,36.000 82.200 C 35.490 82.362,35.200 82.805,35.200 83.424 C 35.200 83.960,34.843 84.616,34.400 84.893 C 33.960 85.168,33.600 85.688,33.600 86.050 C 33.600 86.411,33.240 86.801,32.800 86.916 C 32.347 87.034,32.000 87.462,32.000 87.901 C 32.000 88.327,31.640 89.002,31.200 89.400 C 30.760 89.798,30.400 90.456,30.400 90.862 C 30.400 91.268,30.130 91.600,29.800 91.600 C 29.378 91.600,29.200 92.026,29.200 93.037 C 29.200 94.138,29.013 94.524,28.400 94.684 C 27.957 94.800,27.600 95.230,27.600 95.647 C 27.600 96.133,27.317 96.400,26.800 96.400 C 26.158 96.400,26.000 96.667,26.000 97.753 C 26.000 98.770,25.801 99.159,25.200 99.316 C 24.587 99.476,24.400 99.862,24.400 100.963 C 24.400 102.133,24.252 102.400,23.600 102.400 C 22.933 102.400,22.800 102.667,22.800 104.000 C 22.800 105.333,22.667 105.600,22.000 105.600 C 21.378 105.600,21.200 105.867,21.200 106.797 C 21.200 107.560,20.910 108.174,20.400 108.493 C 19.960 108.768,19.600 109.371,19.600 109.834 C 19.600 110.297,19.240 111.002,18.800 111.400 C 18.315 111.839,18.000 112.632,18.000 113.415 C 18.000 114.370,17.792 114.761,17.200 114.916 C 16.594 115.075,16.400 115.462,16.400 116.516 C 16.400 117.570,16.206 117.957,15.600 118.116 C 14.987 118.276,14.800 118.662,14.800 119.763 C 14.800 120.720,14.615 121.200,14.247 121.200 C 13.595 121.200,13.213 122.411,13.205 124.500 C 13.202 125.564,13.026 126.000,12.600 126.000 C 12.167 126.000,12.000 126.444,12.000 127.600 C 12.000 128.933,11.867 129.200,11.200 129.200 C 10.499 129.200,10.400 129.467,10.400 131.353 C 10.400 133.170,10.275 133.539,9.600 133.716 C 8.923 133.893,8.800 134.262,8.800 136.116 C 8.800 137.970,8.677 138.339,8.000 138.516 C 7.332 138.691,7.200 139.062,7.200 140.763 C 7.200 142.267,6.991 143.009,6.400 143.600 C 5.775 144.225,5.600 144.933,5.600 146.837 C 5.600 148.938,5.490 149.304,4.800 149.484 C 4.098 149.668,4.000 150.030,4.000 152.447 C 4.000 154.667,3.845 155.355,3.200 156.000 C 2.526 156.674,2.400 157.333,2.400 160.180 C 2.400 162.984,2.281 163.627,1.700 163.951 C 1.103 164.285,0.980 165.084,0.867 169.371 C 0.794 172.137,0.569 174.400,0.367 174.400 C 0.148 174.400,0.000 184.715,0.000 200.000 C 0.000 216.800,0.138 225.600,0.400 225.600 C 0.644 225.600,0.800 227.467,0.800 230.400 C 0.800 234.667,0.889 235.289,1.600 236.000 C 2.267 236.667,2.400 237.333,2.400 240.000 C 2.400 242.667,2.533 243.333,3.200 244.000 C 3.850 244.650,4.000 245.333,4.000 247.637 C 4.000 250.138,4.095 250.500,4.800 250.684 C 5.504 250.868,5.600 251.230,5.600 253.684 C 5.600 256.138,5.696 256.500,6.400 256.684 C 7.086 256.863,7.200 257.230,7.200 259.247 C 7.200 261.333,7.291 261.600,8.000 261.600 C 8.711 261.600,8.800 261.867,8.800 264.000 C 8.800 266.133,8.889 266.400,9.600 266.400 C 10.301 266.400,10.400 266.667,10.400 268.553 C 10.400 270.370,10.525 270.739,11.200 270.916 C 11.836 271.082,12.000 271.462,12.000 272.763 C 12.000 273.951,12.164 274.400,12.600 274.400 C 13.031 274.400,13.200 274.841,13.200 275.967 C 13.200 277.922,13.523 278.800,14.243 278.800 C 14.616 278.800,14.800 279.275,14.800 280.237 C 14.800 281.338,14.987 281.724,15.600 281.884 C 16.192 282.039,16.400 282.430,16.400 283.385 C 16.400 284.168,16.715 284.961,17.200 285.400 C 17.640 285.798,18.000 286.596,18.000 287.174 C 18.000 287.765,18.350 288.475,18.800 288.800 C 19.269 289.138,19.600 289.835,19.600 290.485 C 19.600 291.160,19.913 291.789,20.400 292.093 C 20.840 292.368,21.200 292.999,21.200 293.496 C 21.200 294.133,21.436 294.400,22.000 294.400 C 22.667 294.400,22.800 294.667,22.800 296.000 C 22.800 297.333,22.933 297.600,23.600 297.600 C 24.267 297.600,24.400 297.867,24.400 299.200 C 24.400 300.533,24.533 300.800,25.200 300.800 C 25.845 300.800,26.000 301.067,26.000 302.173 C 26.000 303.195,26.205 303.611,26.800 303.800 C 27.240 303.940,27.600 304.402,27.600 304.827 C 27.600 305.333,27.876 305.600,28.400 305.600 C 29.048 305.600,29.200 305.867,29.200 307.000 C 29.200 307.978,29.381 308.400,29.800 308.400 C 30.130 308.400,30.400 308.736,30.400 309.146 C 30.400 309.556,30.729 310.321,31.132 310.846 C 31.534 311.371,31.979 312.115,32.119 312.500 C 32.260 312.885,32.651 313.200,32.987 313.200 C 33.324 313.200,33.600 313.532,33.600 313.938 C 33.600 314.344,33.960 315.002,34.400 315.400 C 34.840 315.798,35.200 316.473,35.200 316.899 C 35.200 317.338,35.547 317.766,36.000 317.884 C 36.443 318.000,36.800 318.430,36.800 318.847 C 36.800 319.333,37.083 319.600,37.600 319.600 C 38.122 319.600,38.400 319.867,38.400 320.367 C 38.400 321.559,38.831 322.400,39.443 322.400 C 39.749 322.400,40.000 322.777,40.000 323.237 C 40.000 323.738,40.321 324.159,40.800 324.284 C 41.240 324.399,41.600 324.742,41.600 325.047 C 41.600 325.351,41.960 325.600,42.400 325.600 C 42.917 325.600,43.200 325.867,43.200 326.353 C 43.200 326.770,43.557 327.200,44.000 327.316 C 44.583 327.468,44.800 327.862,44.800 328.763 C 44.800 329.443,44.984 330.000,45.209 330.000 C 45.433 330.000,45.822 330.450,46.073 331.000 C 46.323 331.550,46.770 332.000,47.064 332.000 C 47.359 332.000,47.600 332.287,47.600 332.637 C 47.600 332.988,47.960 333.369,48.400 333.484 C 48.840 333.599,49.200 333.959,49.200 334.284 C 49.200 334.609,49.560 334.969,50.000 335.084 C 50.443 335.200,50.800 335.630,50.800 336.047 C 50.800 336.533,51.083 336.800,51.600 336.800 C 52.065 336.800,52.400 337.067,52.400 337.437 C 52.400 337.788,52.760 338.169,53.200 338.284 C 53.643 338.400,54.000 338.830,54.000 339.247 C 54.000 339.733,54.283 340.000,54.800 340.000 C 55.333 340.000,55.600 340.267,55.600 340.800 C 55.600 341.333,55.867 341.600,56.400 341.600 C 56.844 341.600,57.200 341.867,57.200 342.200 C 57.200 342.533,57.556 342.800,58.000 342.800 C 58.533 342.800,58.800 343.067,58.800 343.600 C 58.800 344.133,59.067 344.400,59.600 344.400 C 60.133 344.400,60.400 344.667,60.400 345.200 C 60.400 345.733,60.667 346.000,61.200 346.000 C 61.733 346.000,62.000 346.267,62.000 346.800 C 62.000 347.244,62.267 347.600,62.600 347.600 C 62.930 347.600,63.200 347.887,63.200 348.237 C 63.200 348.588,63.560 348.969,64.000 349.084 C 64.440 349.199,64.800 349.559,64.800 349.884 C 64.800 350.209,65.160 350.569,65.600 350.684 C 66.040 350.799,66.400 351.159,66.400 351.484 C 66.400 351.809,66.743 352.165,67.163 352.274 C 67.583 352.384,68.016 352.817,68.126 353.237 C 68.242 353.681,68.675 354.000,69.163 354.000 C 69.629 354.000,70.000 354.258,70.000 354.582 C 70.000 354.930,70.562 355.269,71.400 355.426 C 72.413 355.616,72.800 355.898,72.800 356.445 C 72.800 356.933,73.082 357.200,73.600 357.200 C 74.044 357.200,74.400 357.467,74.400 357.800 C 74.400 358.133,74.756 358.400,75.200 358.400 C 75.733 358.400,76.000 358.667,76.000 359.200 C 76.000 359.697,76.267 360.000,76.704 360.000 C 77.091 360.000,77.632 360.360,77.907 360.800 C 78.190 361.252,78.840 361.600,79.403 361.600 C 80.133 361.600,80.400 361.814,80.400 362.400 C 80.400 362.924,80.667 363.200,81.173 363.200 C 81.598 363.200,82.060 363.560,82.200 364.000 C 82.362 364.510,82.805 364.800,83.424 364.800 C 83.960 364.800,84.616 365.157,84.893 365.600 C 85.168 366.040,85.688 366.400,86.050 366.400 C 86.411 366.400,86.801 366.760,86.916 367.200 C 87.034 367.653,87.462 368.000,87.901 368.000 C 88.327 368.000,89.002 368.360,89.400 368.800 C 89.798 369.240,90.435 369.600,90.815 369.600 C 91.196 369.600,91.601 369.960,91.716 370.400 C 91.876 371.013,92.262 371.200,93.363 371.200 C 94.533 371.200,94.800 371.348,94.800 372.000 C 94.800 372.533,95.067 372.800,95.600 372.800 C 96.040 372.800,96.400 373.062,96.400 373.382 C 96.400 373.728,96.956 374.068,97.772 374.221 C 98.527 374.363,99.241 374.731,99.360 375.039 C 99.488 375.374,100.145 375.600,100.987 375.600 C 102.133 375.600,102.400 375.751,102.400 376.400 C 102.400 377.067,102.667 377.200,104.000 377.200 C 105.333 377.200,105.600 377.333,105.600 378.000 C 105.600 378.622,105.867 378.800,106.797 378.800 C 107.560 378.800,108.174 379.090,108.493 379.600 C 108.849 380.170,109.426 380.400,110.496 380.400 C 111.733 380.400,112.000 380.542,112.000 381.200 C 112.000 381.842,112.267 382.000,113.353 382.000 C 114.370 382.000,114.759 382.199,114.916 382.800 C 115.075 383.406,115.462 383.600,116.516 383.600 C 117.570 383.600,117.957 383.794,118.116 384.400 C 118.276 385.013,118.662 385.200,119.763 385.200 C 120.725 385.200,121.200 385.384,121.200 385.757 C 121.200 386.491,122.084 386.800,124.186 386.800 C 125.570 386.800,125.948 386.956,126.116 387.600 C 126.276 388.213,126.662 388.400,127.763 388.400 C 128.720 388.400,129.200 388.585,129.200 388.953 C 129.200 389.560,130.387 389.986,132.100 389.995 C 132.705 389.998,133.560 390.360,134.000 390.800 C 135.195 391.995,145.563 392.028,145.874 390.838 C 146.002 390.349,146.571 389.982,147.458 389.816 C 148.219 389.673,148.954 389.265,149.090 388.908 C 149.227 388.552,149.668 387.932,150.069 387.531 C 150.526 387.074,150.800 386.217,150.800 385.247 C 150.800 384.030,150.973 383.648,151.600 383.484 C 152.397 383.276,152.925 344.233,152.157 342.233 C 151.744 341.155,144.800 341.313,144.800 342.400 C 144.800 343.167,144.533 343.200,138.403 343.200 C 132.440 343.200,131.973 343.254,131.507 344.000 C 130.862 345.034,129.178 345.034,128.293 344.000 C 127.661 343.262,127.113 343.200,121.204 343.200 C 115.067 343.200,114.800 343.167,114.800 342.400 C 114.800 341.688,114.533 341.600,112.383 341.600 C 110.519 341.600,109.770 341.417,109.108 340.800 C 108.615 340.341,107.696 340.000,106.952 340.000 C 106.005 340.000,105.585 339.783,105.400 339.200 C 105.213 338.612,104.795 338.400,103.820 338.400 C 102.830 338.400,102.440 338.197,102.284 337.600 C 102.124 336.987,101.738 336.800,100.637 336.800 C 99.467 336.800,99.200 336.652,99.200 336.000 C 99.200 335.467,98.933 335.200,98.400 335.200 C 97.960 335.200,97.600 334.942,97.600 334.627 C 97.600 334.312,97.209 333.930,96.731 333.778 C 96.253 333.626,95.499 333.164,95.055 332.751 C 94.612 332.338,93.923 332.000,93.525 332.000 C 93.067 332.000,92.800 331.706,92.800 331.200 C 92.800 330.756,92.533 330.400,92.200 330.400 C 91.870 330.400,91.600 330.130,91.600 329.800 C 91.600 329.470,91.260 329.200,90.845 329.200 C 90.299 329.200,90.017 328.814,89.828 327.811 C 89.685 327.047,89.336 326.282,89.054 326.111 C 88.771 325.940,88.424 325.485,88.282 325.100 C 88.141 324.715,87.749 324.400,87.413 324.400 C 87.026 324.400,86.800 324.031,86.800 323.400 C 86.800 322.850,86.440 322.040,86.000 321.600 C 85.560 321.160,85.200 320.352,85.200 319.803 C 85.200 319.240,84.852 318.590,84.400 318.307 C 83.858 317.969,83.600 317.374,83.600 316.466 C 83.600 315.462,83.399 315.073,82.800 314.916 C 82.199 314.759,82.000 314.370,82.000 313.353 C 82.000 312.267,81.842 312.000,81.200 312.000 C 80.533 312.000,80.400 311.733,80.400 310.400 C 80.400 309.067,80.267 308.800,79.600 308.800 C 78.933 308.800,78.800 308.533,78.800 307.200 C 78.800 305.867,78.667 305.600,78.000 305.600 C 77.489 305.600,77.200 305.333,77.200 304.862 C 77.200 304.456,76.840 303.798,76.400 303.400 C 75.960 303.002,75.600 302.254,75.600 301.738 C 75.600 301.171,75.363 300.800,75.000 300.800 C 74.670 300.800,74.400 300.513,74.400 300.163 C 74.400 299.812,74.040 299.431,73.600 299.316 C 73.160 299.201,72.800 298.841,72.800 298.516 C 72.800 298.191,72.440 297.831,72.000 297.716 C 71.560 297.601,71.200 297.250,71.200 296.937 C 71.200 296.157,67.964 293.211,67.100 293.205 C 66.668 293.202,66.400 292.893,66.400 292.400 C 66.400 291.867,66.133 291.600,65.600 291.600 C 65.067 291.600,64.800 291.333,64.800 290.800 C 64.800 290.303,64.533 290.000,64.096 290.000 C 63.709 290.000,63.168 289.640,62.893 289.200 C 62.574 288.690,61.960 288.400,61.197 288.400 C 60.267 288.400,60.000 288.222,60.000 287.600 C 60.000 287.067,59.733 286.800,59.200 286.800 C 58.667 286.800,58.400 286.533,58.400 286.000 C 58.400 285.560,58.196 285.200,57.946 285.200 C 57.356 285.200,55.731 283.441,55.422 282.469 C 54.979 281.075,55.573 280.400,57.243 280.400 C 58.267 280.400,59.074 280.126,59.600 279.600 C 60.085 279.115,60.933 278.800,61.753 278.800 C 62.770 278.800,63.159 278.999,63.316 279.600 C 63.502 280.310,63.862 280.400,66.516 280.400 C 69.170 280.400,69.530 280.490,69.716 281.200 C 69.876 281.813,70.262 282.000,71.363 282.000 C 72.325 282.000,72.800 282.184,72.800 282.557 C 72.800 283.202,73.652 283.600,75.033 283.600 C 75.733 283.600,76.000 283.821,76.000 284.400 C 76.000 285.067,76.267 285.200,77.600 285.200 C 78.933 285.200,79.200 285.333,79.200 286.000 C 79.200 286.444,79.467 286.800,79.800 286.800 C 80.130 286.800,80.400 287.076,80.400 287.413 C 80.400 287.749,80.688 288.136,81.040 288.271 C 81.836 288.576,83.600 290.313,83.600 290.791 C 83.600 290.986,83.960 291.260,84.400 291.400 C 84.840 291.540,85.200 291.912,85.200 292.227 C 85.200 292.542,85.560 292.800,86.000 292.800 C 86.533 292.800,86.800 293.067,86.800 293.600 C 86.800 294.133,87.067 294.400,87.600 294.400 C 88.133 294.400,88.400 294.667,88.400 295.200 C 88.400 295.733,88.667 296.000,89.200 296.000 C 89.867 296.000,90.000 296.267,90.000 297.600 C 90.000 298.933,90.133 299.200,90.800 299.200 C 91.311 299.200,91.600 299.467,91.600 299.938 C 91.600 300.344,91.960 301.002,92.400 301.400 C 92.840 301.798,93.200 302.546,93.200 303.062 C 93.200 303.733,93.427 304.000,94.000 304.000 C 94.533 304.000,94.800 304.267,94.800 304.800 C 94.800 305.244,95.067 305.600,95.400 305.600 C 95.730 305.600,96.000 305.951,96.000 306.379 C 96.000 306.808,96.450 307.644,97.000 308.238 C 97.550 308.831,98.000 309.450,98.000 309.612 C 98.000 309.774,98.360 310.001,98.800 310.116 C 99.240 310.231,99.600 310.612,99.600 310.963 C 99.600 311.313,99.827 311.600,100.104 311.600 C 100.381 311.600,100.832 311.960,101.107 312.400 C 101.426 312.910,102.040 313.200,102.803 313.200 C 103.733 313.200,104.000 313.378,104.000 314.000 C 104.000 314.533,104.267 314.800,104.800 314.800 C 105.333 314.800,105.600 315.067,105.600 315.600 C 105.600 316.267,105.867 316.400,107.200 316.400 C 108.533 316.400,108.800 316.533,108.800 317.200 C 108.800 317.867,109.067 318.000,110.400 318.000 C 111.733 318.000,112.000 318.133,112.000 318.800 C 112.000 319.465,112.267 319.600,113.580 319.600 C 114.669 319.600,115.282 319.817,115.551 320.300 C 115.885 320.897,116.682 321.020,120.949 321.132 C 124.658 321.230,126.078 321.411,126.427 321.832 C 127.062 322.598,129.558 322.575,129.855 321.800 C 130.044 321.310,131.028 321.200,135.247 321.200 C 139.913 321.200,140.474 321.123,141.093 320.400 C 141.617 319.788,142.273 319.600,143.889 319.600 C 145.733 319.600,146.000 319.499,146.000 318.800 C 146.000 318.095,146.267 318.000,148.237 318.000 C 150.138 318.000,150.506 317.880,150.684 317.200 C 150.800 316.757,151.230 316.400,151.647 316.400 C 152.299 316.400,152.400 316.085,152.400 314.047 C 152.400 312.030,152.514 311.663,153.200 311.484 C 153.904 311.300,154.000 310.938,154.000 308.484 C 154.000 306.030,154.096 305.668,154.800 305.484 C 155.383 305.332,155.600 304.938,155.600 304.037 C 155.600 303.333,155.945 302.455,156.400 302.000 C 156.840 301.560,157.200 300.750,157.200 300.200 C 157.200 299.578,157.427 299.200,157.800 299.200 C 158.233 299.200,158.400 298.756,158.400 297.600 C 158.400 296.267,158.533 296.000,159.200 296.000 C 159.733 296.000,160.000 295.733,160.000 295.200 C 160.000 294.667,160.267 294.400,160.800 294.400 C 161.280 294.400,161.600 294.133,161.600 293.734 C 161.600 293.082,162.082 292.449,163.900 290.714 C 164.526 290.117,164.800 289.391,164.800 288.328 L 164.800 286.800 161.014 286.800 C 157.638 286.800,157.182 286.713,156.800 286.000 C 156.412 285.275,155.962 285.200,152.033 285.200 C 148.030 285.200,147.677 285.138,147.484 284.400 C 147.298 283.689,146.938 283.600,144.237 283.600 C 141.918 283.600,141.200 283.469,141.200 283.047 C 141.200 282.347,139.963 282.012,137.347 282.005 C 135.632 282.001,135.259 281.868,135.084 281.200 C 134.906 280.520,134.538 280.400,132.637 280.400 C 130.915 280.400,130.400 280.262,130.400 279.800 C 130.400 279.359,129.940 279.200,128.662 279.200 C 127.432 279.200,126.712 278.966,126.200 278.400 C 125.761 277.915,124.968 277.600,124.185 277.600 C 123.230 277.600,122.839 277.392,122.684 276.800 C 122.525 276.194,122.138 276.000,121.084 276.000 C 120.030 276.000,119.643 275.806,119.484 275.200 C 119.325 274.594,118.938 274.400,117.884 274.400 C 116.830 274.400,116.443 274.206,116.284 273.600 C 116.124 272.987,115.738 272.800,114.637 272.800 C 113.467 272.800,113.200 272.652,113.200 272.000 C 113.200 271.378,112.933 271.200,112.003 271.200 C 111.240 271.200,110.626 270.910,110.307 270.400 C 110.032 269.960,109.491 269.600,109.104 269.600 C 108.667 269.600,108.400 269.297,108.400 268.800 C 108.400 268.356,108.133 268.000,107.800 268.000 C 107.470 268.000,106.840 267.640,106.400 267.200 C 105.960 266.760,105.261 266.400,104.847 266.400 C 104.430 266.400,104.000 266.043,103.884 265.600 C 103.769 265.160,103.409 264.800,103.084 264.800 C 102.759 264.800,102.399 264.440,102.284 264.000 C 102.169 263.560,101.788 263.200,101.437 263.200 C 101.087 263.200,100.800 262.930,100.800 262.600 C 100.800 262.267,100.444 262.000,100.000 262.000 C 99.467 262.000,99.200 261.733,99.200 261.200 C 99.200 260.667,98.933 260.400,98.400 260.400 C 97.867 260.400,97.600 260.133,97.600 259.600 C 97.600 259.067,97.333 258.800,96.800 258.800 C 96.267 258.800,96.000 258.533,96.000 258.000 C 96.000 257.467,95.733 257.200,95.200 257.200 C 94.667 257.200,94.400 256.933,94.400 256.400 C 94.400 255.867,94.133 255.600,93.600 255.600 C 93.067 255.600,92.800 255.333,92.800 254.800 C 92.800 254.360,92.550 254.000,92.245 254.000 C 91.926 254.000,91.577 253.402,91.426 252.600 C 91.282 251.830,90.987 251.200,90.772 251.200 C 90.556 251.200,90.209 250.750,90.000 250.200 C 89.791 249.650,89.345 249.200,89.010 249.200 C 88.625 249.200,88.400 248.829,88.400 248.196 C 88.400 247.644,88.040 246.884,87.600 246.507 C 87.160 246.130,86.800 245.636,86.800 245.407 C 86.800 245.179,86.440 244.768,86.000 244.493 C 85.490 244.174,85.200 243.560,85.200 242.797 C 85.200 242.133,84.843 241.243,84.400 240.800 C 83.960 240.360,83.600 239.548,83.600 238.996 C 83.600 238.444,83.240 237.684,82.800 237.307 C 82.294 236.874,82.000 236.127,82.000 235.274 C 82.000 234.262,81.800 233.873,81.200 233.716 C 80.525 233.539,80.400 233.170,80.400 231.353 C 80.400 229.467,80.301 229.200,79.600 229.200 C 78.889 229.200,78.800 228.933,78.800 226.800 C 78.800 224.667,78.711 224.400,78.000 224.400 C 77.259 224.400,77.200 224.133,77.200 220.763 C 77.200 217.462,77.126 217.106,76.400 216.916 C 75.657 216.722,75.600 216.370,75.600 211.953 C 75.600 207.995,75.500 207.200,75.000 207.200 C 74.093 207.200,74.093 177.403,75.000 177.055 C 75.471 176.875,75.600 176.060,75.600 173.259 C 75.600 170.030,75.675 169.674,76.400 169.484 C 77.077 169.307,77.200 168.938,77.200 167.084 C 77.200 165.230,77.323 164.861,78.000 164.684 C 78.680 164.506,78.800 164.138,78.800 162.237 C 78.800 160.267,78.895 160.000,79.600 160.000 C 80.252 160.000,80.400 159.733,80.400 158.563 C 80.400 157.462,80.587 157.076,81.200 156.916 C 81.794 156.761,82.000 156.370,82.000 155.400 C 82.000 154.430,82.206 154.039,82.800 153.884 C 83.406 153.725,83.600 153.338,83.600 152.284 C 83.600 151.230,83.794 150.843,84.400 150.684 C 85.013 150.524,85.200 150.138,85.200 149.037 C 85.200 147.867,85.348 147.600,86.000 147.600 C 86.533 147.600,86.800 147.333,86.800 146.800 C 86.800 146.360,87.060 146.000,87.378 146.000 C 87.939 146.000,88.656 144.971,89.680 142.700 C 89.952 142.095,90.423 141.600,90.725 141.600 C 91.028 141.600,91.366 141.252,91.477 140.828 C 91.588 140.403,91.931 139.959,92.239 139.840 C 92.548 139.722,92.800 139.370,92.800 139.059 C 92.800 138.748,93.160 138.399,93.600 138.284 C 94.787 137.974,94.787 133.448,93.600 132.707 C 92.950 132.302,92.800 131.774,92.800 129.904 C 92.800 128.198,92.655 127.600,92.241 127.600 C 91.800 127.600,91.653 126.542,91.541 122.568 C 91.423 118.341,91.288 117.453,90.700 117.024 C 89.936 116.465,89.623 109.600,90.361 109.600 C 91.135 109.600,91.600 106.876,91.600 102.340 C 91.600 98.393,91.700 97.600,92.200 97.600 C 92.672 97.600,92.800 97.045,92.800 95.003 C 92.800 92.840,92.933 92.323,93.600 91.907 C 94.250 91.502,94.400 90.974,94.400 89.104 C 94.400 87.067,94.493 86.800,95.200 86.800 C 95.867 86.800,96.000 86.533,96.000 85.200 L 96.000 83.600 99.538 83.600 C 102.568 83.600,103.180 83.715,103.800 84.400 C 104.390 85.052,105.032 85.200,107.262 85.200 C 109.467 85.200,110.156 85.356,110.800 86.000 C 111.339 86.539,112.133 86.800,113.237 86.800 C 114.268 86.800,115.250 87.096,115.891 87.600 C 116.450 88.040,117.424 88.400,118.054 88.400 C 118.684 88.400,119.560 88.760,120.000 89.200 C 120.440 89.640,121.306 90.000,121.925 90.000 C 122.543 90.000,123.436 90.360,123.908 90.800 C 124.431 91.288,125.319 91.600,126.183 91.600 C 127.176 91.600,127.600 91.780,127.600 92.200 C 127.600 92.619,128.022 92.800,129.000 92.800 C 130.133 92.800,130.400 92.952,130.400 93.600 C 130.400 94.207,130.667 94.400,131.504 94.400 C 132.174 94.400,132.804 94.714,133.107 95.200 C 133.382 95.640,133.959 96.000,134.389 96.000 C 134.820 96.000,135.365 96.360,135.600 96.800 C 135.880 97.324,136.438 97.600,137.214 97.600 C 138.133 97.600,138.400 97.780,138.400 98.400 C 138.400 99.067,138.667 99.200,140.000 99.200 C 141.333 99.200,141.600 99.333,141.600 100.000 C 141.600 100.533,141.867 100.800,142.400 100.800 C 142.840 100.800,143.200 101.051,143.200 101.357 C 143.200 101.960,144.038 102.400,145.186 102.400 C 145.582 102.400,146.001 102.760,146.116 103.200 C 146.237 103.661,146.662 104.000,147.120 104.000 C 147.557 104.000,148.018 104.270,148.145 104.600 C 148.465 105.436,151.935 105.436,152.255 104.600 C 152.423 104.162,153.113 104.000,154.810 104.000 C 157.498 104.000,158.400 103.738,158.400 102.957 C 158.400 102.527,159.131 102.400,161.600 102.400 C 164.267 102.400,164.933 102.267,165.600 101.600 C 166.293 100.907,166.933 100.800,170.400 100.800 C 173.867 100.800,174.507 100.693,175.200 100.000 C 175.948 99.252,176.533 99.200,184.237 99.200 C 192.138 99.200,192.483 99.167,192.684 98.400 C 193.010 97.155,206.990 97.155,207.316 98.400 C 207.517 99.168,207.862 99.200,215.866 99.200 C 223.774 99.200,224.234 99.242,224.707 100.000 C 225.155 100.717,225.640 100.800,229.403 100.800 C 233.067 100.800,233.702 100.902,234.400 101.600 C 235.065 102.265,235.733 102.400,238.353 102.400 C 241.170 102.400,241.529 102.485,241.716 103.200 C 241.899 103.902,242.262 104.000,244.674 104.000 C 246.945 104.000,247.543 104.142,248.121 104.816 C 248.911 105.739,251.521 105.561,252.120 104.544 C 252.296 104.245,252.791 104.000,253.220 104.000 C 253.733 104.000,254.000 103.727,254.000 103.200 C 254.000 102.572,254.267 102.400,255.237 102.400 C 256.138 102.400,256.532 102.183,256.684 101.600 C 256.800 101.157,257.230 100.800,257.647 100.800 C 258.133 100.800,258.400 100.517,258.400 100.000 C 258.400 99.333,258.667 99.200,260.000 99.200 C 261.333 99.200,261.600 99.067,261.600 98.400 C 261.600 97.778,261.867 97.600,262.797 97.600 C 263.560 97.600,264.174 97.310,264.493 96.800 C 264.768 96.360,265.266 96.000,265.600 96.000 C 265.934 96.000,266.432 95.640,266.707 95.200 C 267.026 94.690,267.640 94.400,268.403 94.400 C 269.333 94.400,269.600 94.222,269.600 93.600 C 269.600 92.933,269.867 92.800,271.200 92.800 C 272.356 92.800,272.800 92.633,272.800 92.200 C 272.800 91.798,273.202 91.600,274.017 91.600 C 274.686 91.600,275.620 91.240,276.092 90.800 C 276.564 90.360,277.322 89.998,277.775 89.995 C 279.233 89.985,280.400 89.522,280.400 88.953 C 280.400 88.594,280.863 88.400,281.725 88.400 C 282.496 88.400,283.408 88.066,283.908 87.600 C 284.505 87.043,285.319 86.800,286.583 86.800 C 287.867 86.800,288.635 86.565,289.200 86.000 C 289.853 85.347,290.533 85.200,292.904 85.200 C 295.374 85.200,295.882 85.081,296.307 84.400 C 296.747 83.696,297.240 83.600,300.403 83.600 L 304.000 83.600 304.000 85.104 C 304.000 86.174,304.230 86.751,304.800 87.107 C 305.427 87.499,305.600 88.040,305.600 89.607 C 305.600 91.113,305.798 91.777,306.400 92.293 C 307.021 92.825,307.200 93.473,307.200 95.193 C 307.200 96.974,307.356 97.505,308.000 97.907 C 308.738 98.368,308.800 98.840,308.800 104.041 C 308.800 109.338,308.848 109.687,309.600 109.884 C 310.319 110.072,310.400 110.430,310.400 113.400 C 310.400 116.370,310.319 116.728,309.600 116.916 C 308.851 117.112,308.800 117.462,308.800 122.363 C 308.800 127.333,308.759 127.600,308.000 127.600 C 307.293 127.600,307.200 127.867,307.200 129.904 C 307.200 131.774,307.050 132.302,306.400 132.707 C 305.249 133.426,305.215 137.824,306.357 138.186 C 306.773 138.318,307.206 138.781,307.319 139.213 C 307.433 139.646,307.812 140.000,308.163 140.000 C 308.533 140.000,308.800 140.335,308.800 140.800 C 308.800 141.333,309.067 141.600,309.600 141.600 C 310.135 141.600,310.400 141.867,310.400 142.404 C 310.400 142.846,310.760 143.516,311.200 143.893 C 311.640 144.270,312.000 144.898,312.000 145.289 C 312.000 145.680,312.270 146.000,312.600 146.000 C 312.933 146.000,313.200 146.356,313.200 146.800 C 313.200 147.333,313.467 147.600,314.000 147.600 C 314.652 147.600,314.800 147.867,314.800 149.037 C 314.800 150.138,314.987 150.524,315.600 150.684 C 316.108 150.817,316.400 151.230,316.400 151.814 C 316.400 153.151,316.805 154.000,317.443 154.000 C 317.794 154.000,318.000 154.439,318.000 155.186 C 318.000 155.962,318.276 156.520,318.800 156.800 C 319.364 157.102,319.600 157.638,319.600 158.614 C 319.600 159.733,319.754 160.000,320.400 160.000 C 321.105 160.000,321.200 160.267,321.200 162.237 C 321.200 164.138,321.320 164.506,322.000 164.684 C 322.677 164.861,322.800 165.230,322.800 167.084 C 322.800 168.938,322.923 169.307,323.600 169.484 C 324.325 169.674,324.400 170.030,324.400 173.284 C 324.400 176.538,324.475 176.894,325.200 177.084 C 325.981 177.288,326.000 177.630,326.000 191.585 C 326.000 205.368,325.972 205.902,325.200 206.600 C 324.487 207.246,324.400 207.832,324.400 212.015 C 324.400 216.370,324.343 216.722,323.600 216.916 C 322.874 217.106,322.800 217.462,322.800 220.763 C 322.800 224.133,322.741 224.400,322.000 224.400 C 321.289 224.400,321.200 224.667,321.200 226.800 C 321.200 228.933,321.111 229.200,320.400 229.200 C 319.699 229.200,319.600 229.467,319.600 231.353 C 319.600 233.170,319.475 233.539,318.800 233.716 C 318.186 233.877,318.000 234.262,318.000 235.375 C 318.000 236.283,317.780 236.910,317.411 237.051 C 317.087 237.176,316.702 237.915,316.556 238.693 C 316.410 239.472,315.955 240.445,315.545 240.855 C 315.135 241.265,314.800 242.016,314.800 242.525 C 314.800 243.033,314.476 243.798,314.080 244.225 C 313.684 244.651,313.239 245.315,313.092 245.700 C 312.945 246.085,312.639 246.400,312.413 246.400 C 312.186 246.400,312.000 247.030,312.000 247.800 C 312.000 248.933,311.848 249.200,311.200 249.200 C 310.676 249.200,310.400 249.467,310.400 249.973 C 310.400 250.398,310.040 250.860,309.600 251.000 C 309.005 251.189,308.800 251.605,308.800 252.627 C 308.800 253.733,308.645 254.000,308.000 254.000 C 307.467 254.000,307.200 254.267,307.200 254.800 C 307.200 255.333,306.933 255.600,306.400 255.600 C 305.867 255.600,305.600 255.867,305.600 256.400 C 305.600 256.933,305.333 257.200,304.800 257.200 C 304.267 257.200,304.000 257.467,304.000 258.000 C 304.000 258.533,303.733 258.800,303.200 258.800 C 302.667 258.800,302.400 259.067,302.400 259.600 C 302.400 260.133,302.133 260.400,301.600 260.400 C 301.067 260.400,300.800 260.667,300.800 261.200 C 300.800 261.640,300.539 262.000,300.220 262.000 C 299.901 262.000,299.496 262.239,299.320 262.530 C 299.144 262.822,298.685 263.176,298.300 263.318 C 297.915 263.459,297.600 263.851,297.600 264.187 C 297.600 264.524,297.313 264.800,296.963 264.800 C 296.612 264.800,296.232 265.156,296.118 265.590 C 295.984 266.104,295.439 266.469,294.556 266.635 C 293.788 266.779,293.200 267.130,293.200 267.445 C 293.200 267.750,292.840 268.000,292.400 268.000 C 291.867 268.000,291.600 268.267,291.600 268.800 C 291.600 269.333,291.333 269.600,290.800 269.600 C 290.360 269.600,289.640 269.960,289.200 270.400 C 288.760 270.840,288.040 271.200,287.600 271.200 C 287.067 271.200,286.800 271.467,286.800 272.000 C 286.800 272.652,286.533 272.800,285.363 272.800 C 284.262 272.800,283.876 272.987,283.716 273.600 C 283.557 274.206,283.170 274.400,282.116 274.400 C 281.062 274.400,280.675 274.594,280.516 275.200 C 280.359 275.801,279.970 276.000,278.953 276.000 C 277.867 276.000,277.600 276.158,277.600 276.800 C 277.600 277.493,277.333 277.600,275.614 277.600 C 274.038 277.600,273.540 277.765,273.200 278.400 C 272.882 278.993,272.362 279.200,271.186 279.200 C 270.102 279.200,269.600 279.375,269.600 279.753 C 269.600 280.152,268.859 280.354,266.952 280.475 C 265.067 280.595,264.160 280.840,263.808 281.322 C 263.451 281.810,262.725 282.000,261.218 282.000 C 259.462 282.000,259.091 282.129,258.916 282.800 C 258.727 283.524,258.370 283.600,255.157 283.600 C 252.040 283.600,251.546 283.698,251.107 284.400 C 250.657 285.120,250.174 285.200,246.266 285.200 C 242.262 285.200,241.909 285.262,241.716 286.000 C 241.529 286.715,241.170 286.800,238.353 286.800 L 235.200 286.800 235.200 288.400 C 235.200 289.733,235.467 290.267,236.800 291.600 C 237.680 292.480,238.400 293.470,238.400 293.800 C 238.400 294.133,238.756 294.400,239.200 294.400 C 239.733 294.400,240.000 294.667,240.000 295.200 C 240.000 295.733,240.267 296.000,240.800 296.000 C 241.467 296.000,241.600 296.267,241.600 297.600 C 241.600 298.933,241.733 299.200,242.400 299.200 C 243.052 299.200,243.200 299.467,243.200 300.637 C 243.200 301.738,243.387 302.124,244.000 302.284 C 244.642 302.452,244.800 302.830,244.800 304.198 C 244.800 305.225,245.038 306.100,245.400 306.400 C 245.800 306.732,246.000 307.629,246.000 309.086 C 246.000 310.938,246.123 311.307,246.800 311.484 C 247.592 311.691,247.600 312.030,247.600 347.393 C 247.600 381.553,247.632 383.133,248.342 384.046 C 248.750 384.571,249.208 385.675,249.360 386.500 C 249.529 387.419,249.861 388.000,250.218 388.000 C 250.538 388.000,250.800 388.264,250.800 388.586 C 250.800 389.268,252.005 390.000,253.127 390.000 C 253.570 390.000,253.997 390.345,254.116 390.800 C 254.481 392.197,266.400 391.961,266.400 390.557 C 266.400 390.196,266.858 389.998,267.700 389.995 C 269.600 389.987,270.800 389.584,270.800 388.953 C 270.800 388.572,271.310 388.400,272.437 388.400 C 273.738 388.400,274.118 388.236,274.284 387.600 C 274.458 386.935,274.830 386.800,276.484 386.800 C 278.138 386.800,278.510 386.665,278.684 386.000 C 278.848 385.373,279.230 385.200,280.447 385.200 C 281.733 385.200,282.000 385.063,282.000 384.400 C 282.000 383.733,282.267 383.600,283.600 383.600 C 284.933 383.600,285.200 383.467,285.200 382.800 C 285.200 382.142,285.467 382.000,286.704 382.000 C 287.774 382.000,288.351 381.770,288.707 381.200 C 289.010 380.715,289.640 380.400,290.307 380.400 C 290.974 380.400,291.604 380.085,291.907 379.600 C 292.190 379.148,292.840 378.800,293.403 378.800 C 294.133 378.800,294.400 378.586,294.400 378.000 C 294.400 377.333,294.667 377.200,296.000 377.200 C 297.333 377.200,297.600 377.067,297.600 376.400 C 297.600 375.733,297.867 375.600,299.200 375.600 C 300.299 375.600,300.800 375.426,300.800 375.045 C 300.800 374.726,301.398 374.377,302.200 374.226 C 302.970 374.082,303.600 373.787,303.600 373.572 C 303.600 373.356,304.050 373.009,304.600 372.800 C 305.150 372.591,305.600 372.145,305.600 371.810 C 305.600 371.395,305.995 371.200,306.837 371.200 C 307.738 371.200,308.132 370.983,308.284 370.400 C 308.399 369.960,308.804 369.600,309.185 369.600 C 309.565 369.600,310.202 369.240,310.600 368.800 C 310.998 368.360,311.746 368.000,312.262 368.000 C 312.933 368.000,313.200 367.773,313.200 367.200 C 313.200 366.703,313.467 366.400,313.904 366.400 C 314.291 366.400,314.832 366.040,315.107 365.600 C 315.397 365.135,316.040 364.800,316.641 364.800 C 317.338 364.800,317.743 364.540,317.884 364.000 C 318.000 363.557,318.430 363.200,318.847 363.200 C 319.333 363.200,319.600 362.917,319.600 362.400 C 319.600 361.772,319.867 361.600,320.837 361.600 C 321.738 361.600,322.132 361.383,322.284 360.800 C 322.404 360.340,322.830 360.000,323.284 360.000 C 323.738 360.000,324.164 359.660,324.284 359.200 C 324.399 358.760,324.742 358.400,325.047 358.400 C 325.351 358.400,325.600 358.130,325.600 357.800 C 325.600 357.467,325.956 357.200,326.400 357.200 C 326.918 357.200,327.200 356.933,327.200 356.445 C 327.200 355.898,327.587 355.616,328.600 355.426 C 329.370 355.282,330.000 354.987,330.000 354.772 C 330.000 354.556,330.450 354.209,331.000 354.000 C 331.550 353.791,332.000 353.366,332.000 353.057 C 332.000 352.747,332.360 352.399,332.800 352.284 C 333.240 352.169,333.600 351.809,333.600 351.484 C 333.600 351.159,333.960 350.799,334.400 350.684 C 334.840 350.569,335.200 350.188,335.200 349.837 C 335.200 349.467,335.535 349.200,336.000 349.200 C 336.533 349.200,336.800 348.933,336.800 348.400 C 336.800 347.867,337.067 347.600,337.600 347.600 C 338.133 347.600,338.400 347.333,338.400 346.800 C 338.400 346.267,338.667 346.000,339.200 346.000 C 339.733 346.000,340.000 345.733,340.000 345.200 C 340.000 344.667,340.267 344.400,340.800 344.400 C 341.333 344.400,341.600 344.133,341.600 343.600 C 341.600 343.156,341.867 342.800,342.200 342.800 C 342.530 342.800,342.800 342.530,342.800 342.200 C 342.800 341.867,343.156 341.600,343.600 341.600 C 344.133 341.600,344.400 341.333,344.400 340.800 C 344.400 340.267,344.667 340.000,345.200 340.000 C 345.733 340.000,346.000 339.733,346.000 339.200 C 346.000 338.667,346.267 338.400,346.800 338.400 C 347.333 338.400,347.600 338.133,347.600 337.600 C 347.600 337.067,347.867 336.800,348.400 336.800 C 348.917 336.800,349.200 336.533,349.200 336.047 C 349.200 335.630,349.557 335.200,350.000 335.084 C 350.440 334.969,350.800 334.609,350.800 334.284 C 350.800 333.959,351.160 333.599,351.600 333.484 C 352.040 333.369,352.400 332.988,352.400 332.637 C 352.400 332.287,352.674 332.000,353.010 332.000 C 353.345 332.000,353.791 331.550,354.000 331.000 C 354.209 330.450,354.556 330.000,354.772 330.000 C 354.987 330.000,355.282 329.370,355.426 328.600 C 355.616 327.587,355.898 327.200,356.445 327.200 C 356.933 327.200,357.200 326.918,357.200 326.400 C 357.200 325.956,357.467 325.600,357.800 325.600 C 358.130 325.600,358.400 325.351,358.400 325.047 C 358.400 324.742,358.760 324.399,359.200 324.284 C 359.660 324.164,360.000 323.738,360.000 323.284 C 360.000 322.830,360.340 322.404,360.800 322.284 C 361.383 322.132,361.600 321.738,361.600 320.837 C 361.600 319.867,361.772 319.600,362.400 319.600 C 362.917 319.600,363.200 319.333,363.200 318.847 C 363.200 318.430,363.557 318.000,364.000 317.884 C 364.540 317.743,364.800 317.338,364.800 316.641 C 364.800 316.040,365.135 315.397,365.600 315.107 C 366.040 314.832,366.400 314.291,366.400 313.904 C 366.400 313.467,366.703 313.200,367.200 313.200 C 367.733 313.200,368.000 312.933,368.000 312.400 C 368.000 311.960,368.360 311.240,368.800 310.800 C 369.240 310.360,369.600 309.661,369.600 309.247 C 369.600 308.830,369.957 308.400,370.400 308.284 C 370.983 308.132,371.200 307.738,371.200 306.837 C 371.200 305.995,371.395 305.600,371.810 305.600 C 372.145 305.600,372.591 305.150,372.800 304.600 C 373.009 304.050,373.356 303.600,373.572 303.600 C 373.787 303.600,374.082 302.970,374.226 302.200 C 374.377 301.398,374.726 300.800,375.045 300.800 C 375.426 300.800,375.600 300.299,375.600 299.200 C 375.600 297.867,375.733 297.600,376.400 297.600 C 377.052 297.600,377.200 297.333,377.200 296.163 C 377.200 295.062,377.387 294.676,378.000 294.516 C 378.489 294.388,378.800 293.970,378.800 293.442 C 378.800 292.966,379.160 292.317,379.600 292.000 C 380.069 291.662,380.400 290.965,380.400 290.315 C 380.400 289.640,380.713 289.011,381.200 288.707 C 381.770 288.351,382.000 287.774,382.000 286.704 C 382.000 285.467,382.142 285.200,382.800 285.200 C 383.467 285.200,383.600 284.933,383.600 283.600 C 383.600 282.267,383.733 282.000,384.400 282.000 C 385.063 282.000,385.200 281.733,385.200 280.447 C 385.200 279.230,385.373 278.848,386.000 278.684 C 386.665 278.510,386.800 278.138,386.800 276.484 C 386.800 274.830,386.935 274.458,387.600 274.284 C 388.236 274.118,388.400 273.738,388.400 272.437 C 388.400 271.310,388.572 270.800,388.953 270.800 C 389.584 270.800,389.987 269.600,389.995 267.700 C 389.998 266.858,390.196 266.400,390.557 266.400 C 391.296 266.400,391.600 265.514,391.600 263.367 C 391.600 262.063,391.757 261.600,392.200 261.600 C 392.665 261.600,392.800 261.072,392.800 259.247 C 392.800 257.230,392.914 256.863,393.600 256.684 C 394.304 256.500,394.400 256.138,394.400 253.684 C 394.400 251.230,394.496 250.868,395.200 250.684 C 395.905 250.500,396.000 250.138,396.000 247.637 C 396.000 245.333,396.150 244.650,396.800 244.000 C 397.467 243.333,397.600 242.667,397.600 240.000 C 397.600 237.333,397.733 236.667,398.400 236.000 C 399.111 235.289,399.200 234.667,399.200 230.400 C 399.200 227.467,399.356 225.600,399.600 225.600 C 399.863 225.600,400.000 216.800,400.000 200.000 C 400.000 183.200,399.863 174.400,399.600 174.400 C 399.356 174.400,399.200 172.534,399.200 169.603 C 399.200 165.240,399.128 164.762,398.400 164.307 C 397.699 163.869,397.600 163.374,397.600 160.300 C 397.600 157.287,397.487 156.696,396.800 156.107 C 396.138 155.541,396.000 154.927,396.000 152.558 C 396.000 150.030,395.906 149.669,395.200 149.484 C 394.510 149.304,394.400 148.938,394.400 146.834 C 394.400 144.887,394.238 144.253,393.600 143.707 C 392.971 143.169,392.800 142.527,392.800 140.711 C 392.800 138.923,392.664 138.400,392.200 138.400 C 391.756 138.400,391.600 137.933,391.600 136.600 C 391.600 135.333,391.363 134.563,390.800 134.000 C 390.360 133.560,389.998 132.705,389.995 132.100 C 389.986 130.387,389.560 129.200,388.953 129.200 C 388.585 129.200,388.400 128.720,388.400 127.763 C 388.400 126.662,388.213 126.276,387.600 126.116 C 386.923 125.939,386.800 125.570,386.800 123.716 C 386.800 121.862,386.677 121.493,386.000 121.316 C 385.394 121.157,385.200 120.770,385.200 119.716 C 385.200 118.662,385.006 118.275,384.400 118.116 C 383.794 117.957,383.600 117.570,383.600 116.516 C 383.600 115.462,383.406 115.075,382.800 114.916 C 382.211 114.762,382.000 114.370,382.000 113.429 C 382.000 112.704,381.654 111.779,381.200 111.292 C 380.760 110.820,380.400 110.087,380.400 109.663 C 380.400 109.230,380.051 108.802,379.600 108.684 C 378.987 108.524,378.800 108.138,378.800 107.037 C 378.800 105.867,378.652 105.600,378.000 105.600 C 377.333 105.600,377.200 105.333,377.200 104.000 C 377.200 102.667,377.067 102.400,376.400 102.400 C 375.751 102.400,375.600 102.133,375.600 100.987 C 375.600 100.145,375.374 99.488,375.039 99.360 C 374.731 99.241,374.363 98.527,374.221 97.772 C 374.068 96.956,373.728 96.400,373.382 96.400 C 373.062 96.400,372.800 96.040,372.800 95.600 C 372.800 95.067,372.533 94.800,372.000 94.800 C 371.348 94.800,371.200 94.533,371.200 93.363 C 371.200 92.262,371.013 91.876,370.400 91.716 C 369.960 91.601,369.600 91.196,369.600 90.815 C 369.600 90.435,369.240 89.798,368.800 89.400 C 368.360 89.002,368.000 88.327,368.000 87.901 C 368.000 87.462,367.653 87.034,367.200 86.916 C 366.760 86.801,366.400 86.411,366.400 86.050 C 366.400 85.688,366.040 85.168,365.600 84.893 C 365.157 84.616,364.800 83.960,364.800 83.424 C 364.800 82.805,364.510 82.362,364.000 82.200 C 363.560 82.060,363.200 81.598,363.200 81.173 C 363.200 80.667,362.924 80.400,362.400 80.400 C 361.772 80.400,361.600 80.133,361.600 79.163 C 361.600 78.262,361.383 77.868,360.800 77.716 C 360.357 77.600,360.000 77.170,360.000 76.753 C 360.000 76.267,359.717 76.000,359.200 76.000 C 358.667 76.000,358.400 75.733,358.400 75.200 C 358.400 74.756,358.133 74.400,357.800 74.400 C 357.467 74.400,357.200 74.044,357.200 73.600 C 357.200 73.082,356.933 72.800,356.445 72.800 C 355.898 72.800,355.616 72.413,355.426 71.400 C 355.269 70.562,354.930 70.000,354.582 70.000 C 354.258 70.000,354.000 69.629,354.000 69.163 C 354.000 68.662,353.679 68.241,353.200 68.116 C 352.760 68.001,352.400 67.670,352.400 67.380 C 352.400 67.091,352.059 66.746,351.643 66.614 C 351.227 66.482,350.794 66.019,350.681 65.587 C 350.567 65.154,350.188 64.800,349.837 64.800 C 349.467 64.800,349.200 64.465,349.200 64.000 C 349.200 63.467,348.933 63.200,348.400 63.200 C 347.956 63.200,347.600 62.933,347.600 62.600 C 347.600 62.267,347.244 62.000,346.800 62.000 C 346.267 62.000,346.000 61.733,346.000 61.200 C 346.000 60.667,345.733 60.400,345.200 60.400 C 344.667 60.400,344.400 60.133,344.400 59.600 C 344.400 59.067,344.133 58.800,343.600 58.800 C 343.067 58.800,342.800 58.533,342.800 58.000 C 342.800 57.556,342.533 57.200,342.200 57.200 C 341.867 57.200,341.600 56.844,341.600 56.400 C 341.600 55.867,341.333 55.600,340.800 55.600 C 340.267 55.600,340.000 55.333,340.000 54.800 C 340.000 54.283,339.733 54.000,339.247 54.000 C 338.830 54.000,338.400 53.643,338.284 53.200 C 338.169 52.760,337.788 52.400,337.437 52.400 C 337.067 52.400,336.800 52.065,336.800 51.600 C 336.800 51.083,336.533 50.800,336.047 50.800 C 335.630 50.800,335.200 50.443,335.084 50.000 C 334.969 49.560,334.609 49.200,334.284 49.200 C 333.959 49.200,333.599 48.840,333.484 48.400 C 333.369 47.960,332.988 47.600,332.637 47.600 C 332.287 47.600,332.000 47.330,332.000 47.000 C 332.000 46.670,331.732 46.400,331.403 46.400 C 331.075 46.400,330.582 46.040,330.307 45.600 C 329.997 45.104,329.374 44.800,328.666 44.800 C 327.862 44.800,327.463 44.564,327.316 44.000 C 327.200 43.557,326.770 43.200,326.353 43.200 C 325.867 43.200,325.600 42.917,325.600 42.400 C 325.600 41.960,325.342 41.600,325.027 41.600 C 324.712 41.600,324.340 41.240,324.200 40.800 C 324.060 40.360,323.598 40.000,323.173 40.000 C 322.748 40.000,322.400 39.749,322.400 39.443 C 322.400 38.831,321.559 38.400,320.367 38.400 C 319.867 38.400,319.600 38.122,319.600 37.600 C 319.600 37.083,319.333 36.800,318.847 36.800 C 318.430 36.800,318.000 36.443,317.884 36.000 C 317.743 35.460,317.338 35.200,316.641 35.200 C 316.040 35.200,315.397 34.865,315.107 34.400 C 314.832 33.960,314.312 33.600,313.950 33.600 C 313.589 33.600,313.199 33.240,313.084 32.800 C 312.967 32.353,312.538 32.000,312.113 32.000 C 311.694 32.000,310.964 31.640,310.492 31.200 C 310.020 30.760,309.356 30.400,309.017 30.400 C 308.678 30.400,308.400 30.130,308.400 29.800 C 308.400 29.381,307.978 29.200,307.000 29.200 C 305.867 29.200,305.600 29.048,305.600 28.400 C 305.600 27.876,305.333 27.600,304.827 27.600 C 304.402 27.600,303.940 27.240,303.800 26.800 C 303.613 26.212,303.195 26.000,302.220 26.000 C 301.230 26.000,300.840 25.797,300.684 25.200 C 300.524 24.587,300.138 24.400,299.037 24.400 C 297.867 24.400,297.600 24.252,297.600 23.600 C 297.600 22.933,297.333 22.800,296.000 22.800 C 294.667 22.800,294.400 22.667,294.400 22.000 C 294.400 21.380,294.133 21.200,293.214 21.200 C 292.438 21.200,291.880 20.924,291.600 20.400 C 291.365 19.960,290.768 19.600,290.274 19.600 C 289.781 19.600,289.117 19.240,288.800 18.800 C 288.404 18.251,287.765 18.000,286.758 18.000 C 285.630 18.000,285.245 17.816,285.084 17.200 C 284.925 16.594,284.538 16.400,283.484 16.400 C 282.430 16.400,282.043 16.206,281.884 15.600 C 281.724 14.987,281.338 14.800,280.237 14.800 C 279.275 14.800,278.800 14.616,278.800 14.243 C 278.800 13.523,277.922 13.200,275.967 13.200 C 274.841 13.200,274.400 13.031,274.400 12.600 C 274.400 12.164,273.951 12.000,272.763 12.000 C 271.462 12.000,271.082 11.836,270.916 11.200 C 270.739 10.525,270.370 10.400,268.553 10.400 C 266.667 10.400,266.400 10.301,266.400 9.600 C 266.400 8.889,266.133 8.800,264.000 8.800 C 261.867 8.800,261.600 8.711,261.600 8.000 C 261.600 7.297,261.333 7.200,259.400 7.200 C 257.733 7.200,257.006 7.006,256.400 6.400 C 255.781 5.781,255.067 5.600,253.247 5.600 C 251.230 5.600,250.863 5.486,250.684 4.800 C 250.500 4.095,250.138 4.000,247.637 4.000 C 245.333 4.000,244.650 3.850,244.000 3.200 C 243.328 2.528,242.667 2.400,239.862 2.400 C 237.032 2.400,236.414 2.278,235.800 1.600 C 235.154 0.886,234.568 0.800,230.338 0.800 C 227.446 0.800,225.600 0.644,225.600 0.400 C 225.600 0.138,216.800 0.000,200.000 0.000 C 184.715 0.000,174.400 0.148,174.400 0.367 " stroke="none" fill="#008cd7" fill-rule="evenodd"></path><path id="path1" d="" stroke="none" fill="#008cd7" fill-rule="evenodd"></path></g></svg>