<svg id="svg" version="1.1" width="400" height="397.10144927536226" viewBox="0 0 400 397.10144927536226" xmlns="http://www.w3.org/2000/svg" xmlns:xlink="http://www.w3.org/1999/xlink" ><g id="svgg"><path id="path0" d="M184.310 5.958 L 184.310 7.547 174.181 7.547 L 164.052 7.547 164.052 8.937 L 164.052 10.328 159.682 10.328 L 155.313 10.328 155.313 11.718 L 155.313 13.108 150.943 13.108 L 146.574 13.108 146.574 14.697 L 146.574 16.286 142.205 16.286 L 137.835 16.286 137.835 17.676 L 137.835 19.067 134.856 19.067 L 131.877 19.067 131.877 20.457 L 131.877 21.847 129.096 21.847 L 126.316 21.847 126.316 23.237 C 126.316 24.561,126.250 24.628,124.926 24.628 C 123.568 24.628,123.535 24.665,123.535 26.216 L 123.535 27.805 120.556 27.805 L 117.577 27.805 117.577 29.196 C 117.577 30.520,117.511 30.586,116.187 30.586 C 114.866 30.586,114.796 30.655,114.796 31.959 L 114.796 33.332 111.917 33.448 L 109.037 33.565 108.913 35.055 C 108.797 36.463,108.716 36.544,107.424 36.544 C 106.127 36.544,106.058 36.615,106.058 37.934 C 106.058 39.259,105.991 39.325,104.667 39.325 C 103.348 39.325,103.277 39.394,103.277 40.691 C 103.277 41.983,103.196 42.064,101.787 42.181 C 100.379 42.297,100.291 42.385,100.175 43.793 C 100.058 45.202,99.977 45.283,98.685 45.283 C 97.388 45.283,97.319 45.354,97.319 46.673 C 97.319 47.997,97.253 48.064,95.929 48.064 C 94.609 48.064,94.538 48.133,94.538 49.430 C 94.538 50.722,94.457 50.803,93.049 50.919 C 91.689 51.032,91.548 51.155,91.435 52.334 C 91.321 53.516,91.195 53.625,89.945 53.625 C 88.617 53.625,88.580 53.668,88.580 55.214 C 88.580 56.765,88.547 56.802,87.190 56.802 L 85.799 56.802 85.799 59.559 L 85.799 62.315 84.310 62.439 C 82.901 62.555,82.814 62.643,82.697 64.052 C 82.580 65.460,82.499 65.541,81.207 65.541 L 79.841 65.541 79.841 68.322 L 79.841 71.102 78.451 71.102 C 77.094 71.102,77.061 71.140,77.061 72.691 C 77.061 74.242,77.027 74.280,75.670 74.280 L 74.280 74.280 74.280 77.037 L 74.280 79.793 72.790 79.916 L 71.301 80.040 71.184 82.920 L 71.067 85.799 69.695 85.799 L 68.322 85.799 68.322 90.169 L 68.322 94.538 66.931 94.538 L 65.541 94.538 65.541 98.908 L 65.541 103.277 63.952 103.277 L 62.363 103.277 62.363 110.402 L 62.363 117.527 61.072 117.651 L 59.782 117.776 59.679 143.694 L 59.577 169.613 60.970 169.613 L 62.363 169.613 62.363 175.372 L 62.363 181.132 63.952 181.132 L 65.541 181.132 65.541 186.892 L 65.541 192.651 66.931 192.651 L 68.322 192.651 68.322 197.021 L 68.322 201.390 69.712 201.390 L 71.102 201.390 71.102 205.760 L 71.102 210.129 72.691 210.129 L 74.280 210.129 74.280 213.108 L 74.280 216.087 75.670 216.087 L 77.061 216.087 77.061 218.868 L 77.061 221.648 78.451 221.648 L 79.841 221.648 79.841 224.628 L 79.841 227.607 81.218 227.607 L 82.595 227.607 82.708 231.877 L 82.820 236.147 84.310 236.270 L 85.799 236.394 85.799 239.150 L 85.799 241.907 87.190 241.907 L 88.580 241.907 88.580 244.886 L 88.580 247.865 89.970 247.865 C 91.294 247.865,91.360 247.931,91.360 249.255 C 91.360 250.612,91.398 250.645,92.949 250.645 L 94.538 250.645 94.538 253.625 L 94.538 256.604 95.929 256.604 L 97.319 256.604 97.319 259.583 L 97.319 262.562 98.709 262.562 L 100.099 262.562 100.099 265.343 L 100.099 268.123 101.688 268.123 L 103.277 268.123 103.277 271.102 L 103.277 274.081 104.667 274.081 C 105.991 274.081,106.058 274.148,106.058 275.472 C 106.058 276.792,106.126 276.862,107.430 276.862 L 108.803 276.862 108.920 279.742 L 109.037 282.622 110.328 282.746 C 111.510 282.860,111.619 282.986,111.619 284.236 C 111.619 285.563,111.662 285.601,113.208 285.601 L 114.796 285.601 114.796 288.580 L 114.796 291.559 116.187 291.559 C 117.511 291.559,117.577 291.625,117.577 292.949 C 117.577 294.273,117.643 294.340,118.967 294.340 L 120.357 294.340 120.357 297.120 L 120.357 299.901 121.946 299.901 L 123.535 299.901 123.535 301.490 C 123.535 303.041,123.568 303.078,124.926 303.078 L 126.316 303.078 126.316 305.859 L 126.316 308.640 127.682 308.640 C 128.974 308.640,129.055 308.720,129.172 310.129 C 129.284 311.489,129.407 311.630,130.586 311.743 L 131.877 311.868 131.877 314.623 L 131.877 317.378 133.466 317.378 L 135.055 317.378 135.055 318.967 C 135.055 320.513,135.092 320.556,136.420 320.556 C 137.669 320.556,137.795 320.665,137.909 321.847 C 138.019 322.982,138.190 323.153,139.325 323.263 L 140.616 323.387 140.616 326.142 L 140.616 328.898 142.205 328.898 L 143.793 328.898 143.793 330.487 C 143.793 332.038,143.827 332.075,145.184 332.075 C 146.508 332.075,146.574 332.142,146.574 333.466 C 146.574 334.786,146.643 334.856,147.947 334.856 L 149.320 334.856 149.436 337.736 L 149.553 340.616 151.043 340.739 C 152.451 340.856,152.532 340.936,152.532 342.229 C 152.532 343.525,152.603 343.595,153.923 343.595 C 155.247 343.595,155.313 343.661,155.313 344.985 C 155.313 346.305,155.382 346.375,156.679 346.375 C 157.971 346.375,158.052 346.456,158.169 347.865 C 158.281 349.225,158.404 349.365,159.583 349.479 L 160.874 349.603 160.874 352.359 L 160.874 355.114 162.463 355.114 C 164.014 355.114,164.052 355.147,164.052 356.504 C 164.052 357.829,164.118 357.895,165.442 357.895 C 166.799 357.895,166.832 357.933,166.832 359.484 C 166.832 361.035,166.865 361.072,168.222 361.072 C 169.547 361.072,169.613 361.139,169.613 362.463 C 169.613 363.820,169.651 363.853,171.202 363.853 C 172.753 363.853,172.790 363.886,172.790 365.243 C 172.790 366.567,172.857 366.634,174.181 366.634 L 175.571 366.634 175.571 369.613 L 175.571 372.592 176.961 372.592 C 178.285 372.592,178.352 372.658,178.352 373.982 C 178.352 375.339,178.389 375.372,179.940 375.372 L 181.529 375.372 181.529 376.961 C 181.529 378.512,181.562 378.550,182.920 378.550 C 184.244 378.550,184.310 378.616,184.310 379.940 C 184.310 381.264,184.376 381.331,185.700 381.331 C 187.024 381.331,187.090 381.397,187.090 382.721 C 187.090 384.045,187.157 384.111,188.481 384.111 C 189.805 384.111,189.871 384.177,189.871 385.501 C 189.871 386.859,189.909 386.892,191.460 386.892 L 193.049 386.892 193.049 388.481 C 193.049 390.032,193.082 390.070,194.439 390.070 C 195.763 390.070,195.829 390.136,195.829 391.460 L 195.829 392.850 198.610 392.850 L 201.390 392.850 201.390 391.460 C 201.390 390.136,201.456 390.070,202.781 390.070 C 204.138 390.070,204.171 390.032,204.171 388.481 L 204.171 386.892 205.760 386.892 C 207.311 386.892,207.349 386.859,207.349 385.501 C 207.349 384.177,207.415 384.111,208.739 384.111 C 210.063 384.111,210.129 384.045,210.129 382.721 C 210.129 381.397,210.195 381.331,211.519 381.331 C 212.839 381.331,212.910 381.261,212.910 379.964 C 212.910 378.672,212.991 378.591,214.399 378.475 C 215.808 378.358,215.895 378.271,216.012 376.862 C 216.129 375.453,216.210 375.372,217.502 375.372 C 218.798 375.372,218.868 375.302,218.868 373.982 C 218.868 372.658,218.934 372.592,220.258 372.592 L 221.648 372.592 221.648 369.613 L 221.648 366.634 223.237 366.634 C 224.788 366.634,224.826 366.600,224.826 365.243 C 224.826 363.919,224.892 363.853,226.216 363.853 C 227.541 363.853,227.607 363.787,227.607 362.463 C 227.607 361.139,227.673 361.072,228.997 361.072 C 230.354 361.072,230.387 361.035,230.387 359.484 C 230.387 357.933,230.420 357.895,231.778 357.895 C 233.102 357.895,233.168 357.829,233.168 356.504 C 233.168 355.147,233.206 355.114,234.757 355.114 L 236.346 355.114 236.346 352.334 L 236.346 349.553 237.736 349.553 C 239.093 349.553,239.126 349.515,239.126 347.964 C 239.126 346.413,239.159 346.375,240.516 346.375 C 241.840 346.375,241.907 346.309,241.907 344.985 C 241.907 343.628,241.944 343.595,243.496 343.595 C 245.041 343.595,245.084 343.558,245.084 342.230 C 245.084 340.980,245.193 340.854,246.375 340.740 L 247.666 340.616 247.783 337.736 L 247.900 334.856 249.273 334.856 C 250.577 334.856,250.645 334.786,250.645 333.466 C 250.645 332.142,250.712 332.075,252.036 332.075 C 253.393 332.075,253.426 332.038,253.426 330.487 L 253.426 328.898 255.015 328.898 L 256.604 328.898 256.604 326.117 L 256.604 323.337 257.994 323.337 C 259.318 323.337,259.384 323.270,259.384 321.946 C 259.384 320.622,259.451 320.556,260.775 320.556 C 262.132 320.556,262.165 320.518,262.165 318.967 L 262.165 317.378 263.754 317.378 L 265.343 317.378 265.343 314.598 L 265.343 311.817 266.733 311.817 C 268.090 311.817,268.123 311.779,268.123 310.228 C 268.123 308.677,268.156 308.640,269.513 308.640 L 270.904 308.640 270.904 305.883 L 270.904 303.126 272.393 303.003 C 273.802 302.887,273.890 302.799,274.006 301.390 C 274.123 299.982,274.204 299.901,275.496 299.901 L 276.862 299.901 276.862 297.120 L 276.862 294.340 278.252 294.340 C 279.576 294.340,279.643 294.273,279.643 292.949 C 279.643 291.625,279.709 291.559,281.033 291.559 L 282.423 291.559 282.423 288.580 L 282.423 285.601 284.012 285.601 C 285.563 285.601,285.601 285.568,285.601 284.211 C 285.601 282.886,285.667 282.820,286.991 282.820 L 288.381 282.820 288.381 279.841 L 288.381 276.862 289.772 276.862 C 291.091 276.862,291.162 276.792,291.162 275.496 C 291.162 274.204,291.243 274.123,292.651 274.006 L 294.141 273.883 294.258 271.003 L 294.374 268.123 295.747 268.123 L 297.120 268.123 297.120 265.343 L 297.120 262.562 298.510 262.562 L 299.901 262.562 299.901 259.583 L 299.901 256.604 301.490 256.604 L 303.078 256.604 303.078 253.625 L 303.078 250.645 304.469 250.645 C 305.793 250.645,305.859 250.579,305.859 249.255 C 305.859 247.931,305.925 247.865,307.249 247.865 L 308.640 247.865 308.640 244.886 L 308.640 241.907 310.030 241.907 L 311.420 241.907 311.420 239.150 L 311.420 236.394 312.910 236.270 L 314.399 236.147 314.512 231.877 L 314.625 227.607 316.002 227.607 L 317.378 227.607 317.378 224.628 L 317.378 221.648 318.769 221.648 L 320.159 221.648 320.159 218.892 L 320.159 216.135 321.648 216.012 L 323.138 215.889 323.255 213.009 L 323.371 210.129 324.744 210.129 L 326.117 210.129 326.117 205.760 L 326.117 201.390 327.507 201.390 L 328.898 201.390 328.898 197.021 L 328.898 192.651 330.487 192.651 L 332.075 192.651 332.075 186.892 L 332.075 181.132 333.466 181.132 L 334.856 181.132 334.856 175.372 L 334.856 169.613 336.246 169.613 L 337.637 169.613 337.637 143.595 L 337.637 117.577 336.246 117.577 L 334.856 117.577 334.856 110.427 L 334.856 103.277 333.466 103.277 L 332.075 103.277 332.075 98.908 L 332.075 94.538 330.487 94.538 L 328.898 94.538 328.898 91.559 L 328.898 88.580 327.521 88.580 L 326.144 88.580 326.031 84.310 L 325.919 80.040 324.628 79.915 C 323.446 79.801,323.337 79.675,323.337 78.426 C 323.337 77.098,323.293 77.061,321.748 77.061 L 320.159 77.061 320.159 74.081 L 320.159 71.102 318.769 71.102 L 317.378 71.102 317.378 68.322 L 317.378 65.541 316.012 65.541 C 314.720 65.541,314.639 65.460,314.522 64.052 C 314.406 62.643,314.318 62.555,312.910 62.439 C 311.501 62.322,311.420 62.241,311.420 60.949 C 311.420 59.653,311.349 59.583,310.030 59.583 L 308.640 59.583 308.640 56.604 L 308.640 53.625 307.274 53.625 C 306.025 53.625,305.899 53.516,305.785 52.334 C 305.675 51.199,305.505 51.028,304.369 50.918 C 303.188 50.804,303.078 50.678,303.078 49.429 C 303.078 48.101,303.035 48.064,301.490 48.064 C 299.939 48.064,299.901 48.030,299.901 46.673 C 299.901 45.354,299.831 45.283,298.534 45.283 C 297.242 45.283,297.161 45.202,297.045 43.793 C 296.932 42.434,296.809 42.293,295.631 42.179 C 294.449 42.065,294.340 41.940,294.340 40.690 C 294.340 39.362,294.296 39.325,292.751 39.325 C 291.200 39.325,291.162 39.292,291.162 37.934 L 291.162 36.544 288.405 36.544 L 285.649 36.544 285.525 35.055 C 285.409 33.646,285.321 33.558,283.913 33.442 C 282.504 33.325,282.423 33.244,282.423 31.952 C 282.423 30.656,282.352 30.586,281.033 30.586 C 279.709 30.586,279.643 30.520,279.643 29.196 L 279.643 27.805 276.886 27.805 L 274.129 27.805 274.006 26.316 L 273.883 24.826 271.003 24.710 L 268.123 24.593 268.123 23.220 C 268.123 21.916,268.054 21.847,266.733 21.847 C 265.409 21.847,265.343 21.781,265.343 20.457 L 265.343 19.067 262.363 19.067 L 259.384 19.067 259.384 17.676 L 259.384 16.286 255.015 16.286 L 250.645 16.286 250.645 14.697 L 250.645 13.108 246.276 13.108 L 241.907 13.108 241.907 11.718 L 241.907 10.328 237.537 10.328 L 233.168 10.328 233.168 8.937 L 233.168 7.547 223.039 7.547 L 212.910 7.547 212.910 5.958 L 212.910 4.369 198.610 4.369 L 184.310 4.369 184.310 5.958 M216.163 95.631 L 216.286 97.120 219.166 97.237 L 222.046 97.354 222.046 98.726 L 222.046 100.099 224.826 100.099 L 227.607 100.099 227.607 101.490 C 227.607 102.847,227.645 102.880,229.196 102.880 C 230.747 102.880,230.785 102.913,230.785 104.270 C 230.785 105.594,230.851 105.660,232.175 105.660 C 233.532 105.660,233.565 105.698,233.565 107.249 C 233.565 108.800,233.598 108.838,234.955 108.838 C 236.279 108.838,236.346 108.904,236.346 110.228 C 236.346 111.552,236.412 111.619,237.736 111.619 C 239.060 111.619,239.126 111.685,239.126 113.009 C 239.126 114.366,239.164 114.399,240.715 114.399 L 242.304 114.399 242.304 117.378 L 242.304 120.357 243.681 120.357 L 245.058 120.357 245.170 124.628 L 245.283 128.898 246.574 129.022 L 247.865 129.147 247.865 142.230 L 247.865 155.313 246.475 155.313 L 245.084 155.313 245.084 159.682 L 245.084 164.052 243.694 164.052 C 242.375 164.052,242.304 164.121,242.304 165.418 C 242.304 166.710,242.223 166.791,240.814 166.908 L 239.325 167.031 239.208 169.911 L 239.091 172.790 237.718 172.790 C 236.414 172.790,236.346 172.860,236.346 174.181 C 236.346 175.505,236.279 175.571,234.955 175.571 C 233.631 175.571,233.565 175.637,233.565 176.961 C 233.565 178.285,233.499 178.352,232.175 178.352 C 230.818 178.352,230.785 178.389,230.785 179.940 L 230.785 181.529 227.805 181.529 L 224.826 181.529 224.826 182.920 C 224.826 184.244,224.760 184.310,223.436 184.310 C 222.112 184.310,222.046 184.376,222.046 185.700 L 222.046 187.090 217.676 187.090 L 213.307 187.090 213.307 188.679 L 213.307 190.268 198.610 190.268 L 183.913 190.268 183.913 188.679 L 183.913 187.090 179.543 187.090 L 175.174 187.090 175.174 185.700 C 175.174 184.376,175.108 184.310,173.784 184.310 C 172.459 184.310,172.393 184.244,172.393 182.920 L 172.393 181.529 169.637 181.529 L 166.880 181.529 166.757 180.040 C 166.640 178.631,166.553 178.543,165.144 178.427 C 163.735 178.310,163.654 178.229,163.654 176.937 C 163.654 175.641,163.584 175.571,162.264 175.571 C 160.940 175.571,160.874 175.505,160.874 174.181 C 160.874 172.860,160.805 172.790,159.501 172.790 L 158.128 172.790 158.011 169.911 L 157.895 167.031 156.405 166.908 C 154.996 166.791,154.916 166.710,154.916 165.418 C 154.916 164.121,154.845 164.052,153.525 164.052 L 152.135 164.052 152.135 159.682 L 152.135 155.313 150.745 155.313 L 149.355 155.313 149.355 142.205 L 149.355 129.096 150.745 129.096 L 152.135 129.096 152.135 124.727 L 152.135 120.357 153.525 120.357 L 154.916 120.357 154.916 117.378 L 154.916 114.399 156.504 114.399 C 158.056 114.399,158.093 114.366,158.093 113.009 C 158.093 111.685,158.160 111.619,159.484 111.619 C 160.808 111.619,160.874 111.552,160.874 110.228 C 160.874 108.904,160.940 108.838,162.264 108.838 C 163.621 108.838,163.654 108.800,163.654 107.249 L 163.654 105.660 165.243 105.660 C 166.794 105.660,166.832 105.627,166.832 104.270 C 166.832 102.946,166.898 102.880,168.222 102.880 C 169.547 102.880,169.613 102.814,169.613 101.490 L 169.613 100.099 172.393 100.099 L 175.174 100.099 175.174 98.709 L 175.174 97.319 178.153 97.319 L 181.132 97.319 181.132 95.730 L 181.132 94.141 198.586 94.141 L 216.039 94.141 216.163 95.631 " stroke="none" fill="#008cd7" fill-rule="evenodd"></path><path id="path1" d="" stroke="none" fill="#008cd7" fill-rule="evenodd"></path><path id="path2" d="" stroke="none" fill="#008cd7" fill-rule="evenodd"></path></g></svg>