<svg id="svg" version="1.1" width="400" height="400" viewBox="25 20 350 350" xmlns="http://www.w3.org/2000/svg" xmlns:xlink="http://www.w3.org/1999/xlink" ><g id="svgg"><path id="path0" d="M67.600 77.495 C 66.170 77.576,64.829 77.813,64.620 78.021 C 64.411 78.230,63.805 78.400,63.273 78.400 C 62.133 78.400,57.060 80.063,56.867 80.499 C 56.793 80.665,56.388 80.800,55.967 80.800 C 55.545 80.800,55.200 80.980,55.200 81.200 C 55.200 81.420,54.840 81.600,54.400 81.600 C 53.960 81.600,53.600 81.750,53.600 81.932 C 53.600 82.115,53.108 82.520,52.507 82.832 C 49.918 84.177,44.365 90.607,43.780 92.939 C 43.633 93.522,43.353 94.000,43.157 94.000 C 42.960 94.000,42.800 94.360,42.800 94.800 C 42.800 95.240,42.620 95.600,42.400 95.600 C 42.180 95.600,42.000 96.050,42.000 96.600 C 42.000 97.150,41.820 97.600,41.600 97.600 C 41.380 97.600,41.200 98.129,41.200 98.776 C 41.200 99.423,41.020 100.064,40.800 100.200 C 40.580 100.336,40.400 101.877,40.400 103.624 C 40.400 105.475,40.567 106.800,40.800 106.800 C 41.020 106.800,41.200 107.160,41.200 107.600 C 41.200 108.040,41.355 108.400,41.544 108.400 C 41.733 108.400,42.498 109.028,43.244 109.796 C 43.990 110.563,44.785 111.193,45.012 111.196 C 45.238 111.198,45.683 111.560,46.000 112.000 C 46.317 112.440,46.814 112.800,47.105 112.800 C 47.396 112.800,48.020 113.160,48.492 113.600 C 48.964 114.040,49.587 114.400,49.875 114.400 C 50.164 114.400,50.400 114.580,50.400 114.800 C 50.400 115.020,50.636 115.200,50.925 115.200 C 51.213 115.200,51.836 115.560,52.308 116.000 C 52.780 116.440,53.404 116.800,53.695 116.800 C 53.986 116.800,54.483 117.160,54.800 117.600 C 55.117 118.040,55.697 118.400,56.088 118.400 C 56.480 118.400,56.800 118.558,56.800 118.751 C 56.800 118.945,57.340 119.327,58.000 119.600 C 58.660 119.873,59.200 120.255,59.200 120.449 C 59.200 120.642,59.436 120.800,59.725 120.800 C 60.013 120.800,60.636 121.160,61.108 121.600 C 61.580 122.040,62.077 122.400,62.211 122.400 C 62.346 122.400,63.208 122.915,64.128 123.545 C 65.048 124.175,66.205 124.817,66.700 124.972 C 67.195 125.127,67.600 125.422,67.600 125.627 C 67.600 125.832,67.920 126.000,68.312 126.000 C 68.703 126.000,69.283 126.360,69.600 126.800 C 69.917 127.240,70.414 127.600,70.705 127.600 C 70.996 127.600,71.620 127.960,72.092 128.400 C 72.564 128.840,73.187 129.200,73.475 129.200 C 73.764 129.200,74.000 129.380,74.000 129.600 C 74.000 129.820,74.320 130.000,74.712 130.000 C 75.103 130.000,75.683 130.360,76.000 130.800 C 76.317 131.240,76.807 131.600,77.088 131.600 C 77.370 131.600,77.600 131.780,77.600 132.000 C 77.600 132.220,77.870 132.400,78.200 132.400 C 78.530 132.400,78.800 132.580,78.800 132.800 C 78.800 133.020,79.070 133.200,79.400 133.200 C 79.730 133.200,80.000 133.380,80.000 133.600 C 80.000 133.820,80.236 134.000,80.525 134.000 C 80.813 134.000,81.436 134.360,81.908 134.800 C 82.380 135.240,82.962 135.600,83.200 135.600 C 83.438 135.600,84.020 135.960,84.492 136.400 C 84.964 136.840,85.587 137.200,85.875 137.200 C 86.164 137.200,86.400 137.380,86.400 137.600 C 86.400 137.820,86.636 138.000,86.925 138.000 C 87.213 138.000,87.836 138.360,88.308 138.800 C 88.780 139.240,89.444 139.600,89.783 139.600 C 90.122 139.600,90.400 139.767,90.400 139.971 C 90.400 140.175,91.120 140.660,92.000 141.048 C 92.880 141.436,93.600 141.899,93.600 142.077 C 93.600 142.255,93.870 142.400,94.200 142.400 C 94.530 142.400,94.800 142.580,94.800 142.800 C 94.800 143.020,95.036 143.200,95.325 143.200 C 95.613 143.200,96.236 143.560,96.708 144.000 C 97.180 144.440,97.844 144.800,98.183 144.800 C 98.522 144.800,98.800 144.950,98.800 145.132 C 98.800 145.315,99.295 145.720,99.900 146.032 C 100.505 146.345,101.349 146.915,101.775 147.300 C 102.202 147.685,102.787 148.000,103.075 148.000 C 103.364 148.000,103.600 148.180,103.600 148.400 C 103.600 148.620,103.920 148.800,104.312 148.800 C 104.703 148.800,105.283 149.160,105.600 149.600 C 105.917 150.040,106.457 150.400,106.800 150.400 C 107.143 150.400,107.683 150.760,108.000 151.200 C 108.317 151.640,108.814 152.000,109.105 152.000 C 109.396 152.000,109.989 152.331,110.423 152.736 C 110.858 153.141,111.705 153.726,112.307 154.036 C 112.908 154.346,113.749 154.915,114.175 155.300 C 114.602 155.685,115.081 156.000,115.241 156.000 C 115.400 156.000,116.487 156.630,117.656 157.400 C 118.825 158.170,120.011 158.800,120.291 158.800 C 120.571 158.800,120.800 158.980,120.800 159.200 C 120.800 159.420,121.120 159.600,121.512 159.600 C 121.903 159.600,122.483 159.960,122.800 160.400 C 123.117 160.840,123.657 161.200,124.000 161.200 C 124.343 161.200,124.883 161.560,125.200 162.000 C 125.517 162.440,126.097 162.800,126.488 162.800 C 126.880 162.800,127.200 162.980,127.200 163.200 C 127.200 163.420,127.430 163.600,127.712 163.600 C 127.993 163.600,128.483 163.960,128.800 164.400 C 129.117 164.840,129.697 165.200,130.088 165.200 C 130.480 165.200,130.800 165.350,130.800 165.532 C 130.800 165.715,131.295 166.120,131.900 166.432 C 132.505 166.745,133.349 167.315,133.775 167.700 C 134.202 168.085,134.787 168.400,135.075 168.400 C 135.364 168.400,135.600 168.580,135.600 168.800 C 135.600 169.020,135.836 169.200,136.125 169.200 C 136.413 169.200,137.036 169.560,137.508 170.000 C 137.980 170.440,138.644 170.800,138.983 170.800 C 139.322 170.800,139.600 170.950,139.600 171.132 C 139.600 171.315,140.095 171.720,140.700 172.032 C 141.305 172.344,141.890 172.689,142.000 172.799 C 142.605 173.406,144.737 174.726,145.508 174.971 C 145.998 175.126,146.400 175.422,146.400 175.627 C 146.400 175.832,146.720 176.000,147.112 176.000 C 147.503 176.000,148.083 176.360,148.400 176.800 C 148.717 177.240,149.214 177.600,149.505 177.600 C 149.796 177.600,150.420 177.960,150.892 178.400 C 151.364 178.840,151.987 179.200,152.275 179.200 C 152.564 179.200,152.800 179.380,152.800 179.600 C 152.800 179.820,153.036 180.000,153.325 180.000 C 153.613 180.000,154.236 180.360,154.708 180.800 C 155.180 181.240,155.804 181.600,156.095 181.600 C 156.386 181.600,156.883 181.960,157.200 182.400 C 157.517 182.840,158.057 183.200,158.400 183.200 C 158.743 183.200,159.283 183.560,159.600 184.000 C 159.917 184.440,160.329 184.800,160.516 184.800 C 160.703 184.800,161.641 185.340,162.600 186.000 C 163.559 186.660,164.454 187.200,164.589 187.200 C 164.723 187.200,165.220 187.560,165.692 188.000 C 166.164 188.440,166.787 188.800,167.075 188.800 C 167.364 188.800,167.601 188.935,167.601 189.100 C 167.602 189.265,168.637 189.940,169.901 190.600 C 171.166 191.260,172.260 191.935,172.333 192.100 C 172.407 192.265,172.772 192.400,173.145 192.400 C 173.518 192.400,174.083 192.760,174.400 193.200 C 174.717 193.640,175.257 194.000,175.600 194.000 C 175.943 194.000,176.483 194.360,176.800 194.800 C 177.117 195.240,177.607 195.600,177.888 195.600 C 178.170 195.600,178.400 195.780,178.400 196.000 C 178.400 196.220,178.670 196.400,179.000 196.400 C 179.330 196.400,179.600 196.580,179.600 196.800 C 179.600 197.020,179.870 197.200,180.200 197.200 C 180.530 197.200,180.800 197.380,180.800 197.600 C 180.800 197.820,181.036 198.000,181.325 198.000 C 181.613 198.000,182.236 198.360,182.708 198.800 C 183.180 199.240,183.804 199.600,184.095 199.600 C 184.386 199.600,184.883 199.960,185.200 200.400 C 185.517 200.840,186.014 201.200,186.305 201.200 C 186.596 201.200,187.220 201.560,187.692 202.000 C 188.164 202.440,188.787 202.800,189.075 202.800 C 189.364 202.800,189.600 202.958,189.600 203.151 C 189.600 203.345,190.140 203.727,190.800 204.000 C 191.460 204.273,192.000 204.655,192.000 204.849 C 192.000 205.042,192.360 205.200,192.800 205.200 C 193.240 205.200,193.600 205.356,193.600 205.547 C 193.600 206.292,197.728 207.600,200.079 207.600 C 202.596 207.600,207.087 205.841,208.447 204.322 C 208.803 203.925,209.388 203.600,209.747 203.600 C 210.106 203.600,210.400 203.442,210.400 203.249 C 210.400 203.055,210.940 202.673,211.600 202.400 C 212.260 202.127,212.800 201.745,212.800 201.551 C 212.800 201.358,213.036 201.200,213.325 201.200 C 213.613 201.200,214.236 200.840,214.708 200.400 C 215.180 199.960,215.804 199.600,216.095 199.600 C 216.386 199.600,216.883 199.240,217.200 198.800 C 217.517 198.360,218.014 198.000,218.305 198.000 C 218.596 198.000,219.220 197.640,219.692 197.200 C 220.164 196.760,220.787 196.400,221.075 196.400 C 221.364 196.400,221.600 196.220,221.600 196.000 C 221.600 195.780,221.870 195.600,222.200 195.600 C 222.530 195.600,222.800 195.420,222.800 195.200 C 222.800 194.980,223.070 194.800,223.400 194.800 C 223.730 194.800,224.000 194.620,224.000 194.400 C 224.000 194.180,224.230 194.000,224.512 194.000 C 224.793 194.000,225.283 193.640,225.600 193.200 C 225.917 192.760,226.497 192.400,226.888 192.400 C 227.280 192.400,227.600 192.259,227.600 192.088 C 227.600 191.916,228.095 191.569,228.700 191.316 C 230.141 190.714,232.165 189.479,232.333 189.100 C 232.407 188.935,232.688 188.800,232.958 188.800 C 233.228 188.800,233.798 188.485,234.225 188.100 C 234.651 187.715,235.495 187.145,236.100 186.832 C 236.705 186.520,237.200 186.115,237.200 185.932 C 237.200 185.750,237.478 185.600,237.817 185.600 C 238.156 185.600,238.789 185.269,239.223 184.864 C 239.658 184.459,240.505 183.875,241.107 183.567 C 241.708 183.258,242.491 182.689,242.847 182.303 C 243.203 181.916,243.748 181.600,244.059 181.600 C 244.369 181.600,244.883 181.240,245.200 180.800 C 245.517 180.360,246.097 180.000,246.488 180.000 C 246.880 180.000,247.200 179.820,247.200 179.600 C 247.200 179.380,247.470 179.200,247.800 179.200 C 248.130 179.200,248.400 179.020,248.400 178.800 C 248.400 178.580,248.670 178.400,249.000 178.400 C 249.330 178.400,249.600 178.220,249.600 178.000 C 249.600 177.780,249.836 177.600,250.125 177.600 C 250.413 177.600,251.036 177.240,251.508 176.800 C 251.980 176.360,252.644 176.000,252.983 176.000 C 253.322 176.000,253.600 175.823,253.600 175.608 C 253.600 175.392,254.043 175.104,254.584 174.968 C 255.125 174.833,255.779 174.466,256.039 174.153 C 256.298 173.841,257.091 173.310,257.801 172.973 C 258.511 172.636,259.469 172.009,259.929 171.580 C 260.390 171.151,261.004 170.800,261.295 170.800 C 261.586 170.800,262.083 170.440,262.400 170.000 C 262.717 169.560,263.214 169.200,263.505 169.200 C 263.796 169.200,264.420 168.840,264.892 168.400 C 265.364 167.960,265.987 167.600,266.275 167.600 C 266.564 167.600,266.800 167.420,266.800 167.200 C 266.800 166.980,267.036 166.800,267.325 166.800 C 267.613 166.800,268.236 166.440,268.708 166.000 C 269.180 165.560,269.778 165.200,270.036 165.200 C 270.295 165.200,270.797 164.884,271.153 164.497 C 271.509 164.111,272.292 163.542,272.893 163.233 C 273.495 162.925,274.342 162.341,274.777 161.936 C 275.211 161.531,275.804 161.200,276.095 161.200 C 276.386 161.200,276.883 160.840,277.200 160.400 C 277.517 159.960,278.097 159.600,278.488 159.600 C 278.880 159.600,279.200 159.432,279.200 159.227 C 279.200 159.022,279.605 158.727,280.100 158.572 C 280.595 158.417,281.720 157.815,282.600 157.233 C 283.480 156.651,284.695 155.926,285.300 155.620 C 285.905 155.315,286.400 154.915,286.400 154.732 C 286.400 154.550,286.636 154.400,286.925 154.400 C 287.213 154.400,287.798 154.085,288.225 153.700 C 288.651 153.315,289.492 152.746,290.093 152.436 C 290.695 152.126,291.542 151.541,291.977 151.136 C 292.411 150.731,293.004 150.400,293.295 150.400 C 293.586 150.400,294.083 150.040,294.400 149.600 C 294.717 149.160,295.214 148.800,295.505 148.800 C 295.796 148.800,296.420 148.440,296.892 148.000 C 297.364 147.560,297.987 147.200,298.275 147.200 C 298.564 147.200,298.800 147.020,298.800 146.800 C 298.800 146.580,299.036 146.400,299.325 146.400 C 299.613 146.400,300.236 146.040,300.708 145.600 C 301.180 145.160,301.804 144.800,302.095 144.800 C 302.386 144.800,302.883 144.440,303.200 144.000 C 303.517 143.560,304.097 143.200,304.488 143.200 C 304.880 143.200,305.200 143.020,305.200 142.800 C 305.200 142.580,305.470 142.400,305.800 142.400 C 306.130 142.400,306.400 142.240,306.400 142.043 C 306.400 141.847,306.809 141.584,307.308 141.459 C 307.807 141.334,308.610 140.864,309.091 140.415 C 309.573 139.967,310.162 139.600,310.400 139.600 C 310.638 139.600,311.220 139.240,311.692 138.800 C 312.164 138.360,312.787 138.000,313.075 138.000 C 313.364 138.000,313.600 137.820,313.600 137.600 C 313.600 137.380,313.836 137.200,314.125 137.200 C 314.413 137.200,315.036 136.840,315.508 136.400 C 315.980 135.960,316.562 135.600,316.800 135.600 C 317.038 135.600,317.620 135.240,318.092 134.800 C 318.564 134.360,319.187 134.000,319.475 134.000 C 319.764 134.000,320.000 133.820,320.000 133.600 C 320.000 133.380,320.270 133.200,320.600 133.200 C 320.930 133.200,321.200 133.020,321.200 132.800 C 321.200 132.580,321.470 132.400,321.800 132.400 C 322.130 132.400,322.400 132.220,322.400 132.000 C 322.400 131.780,322.636 131.600,322.925 131.600 C 323.213 131.600,323.836 131.240,324.308 130.800 C 324.780 130.360,325.354 130.000,325.583 130.000 C 325.812 130.000,326.000 129.820,326.000 129.600 C 326.000 129.380,326.320 129.200,326.712 129.200 C 327.103 129.200,327.683 128.840,328.000 128.400 C 328.317 127.960,328.857 127.600,329.200 127.600 C 329.543 127.600,330.083 127.240,330.400 126.800 C 330.717 126.360,331.282 126.000,331.655 126.000 C 332.028 126.000,332.393 125.865,332.467 125.700 C 332.540 125.535,333.634 124.860,334.899 124.200 C 336.163 123.540,337.198 122.865,337.199 122.700 C 337.199 122.535,337.393 122.400,337.628 122.400 C 337.863 122.400,338.841 121.860,339.800 121.200 C 340.759 120.540,341.697 120.000,341.884 120.000 C 342.071 120.000,342.483 119.640,342.800 119.200 C 343.117 118.760,343.697 118.400,344.088 118.400 C 344.480 118.400,344.800 118.220,344.800 118.000 C 344.800 117.780,345.036 117.600,345.325 117.600 C 345.613 117.600,346.236 117.240,346.708 116.800 C 347.180 116.360,347.804 116.000,348.095 116.000 C 348.386 116.000,348.883 115.640,349.200 115.200 C 349.517 114.760,350.097 114.400,350.488 114.400 C 350.880 114.400,351.200 114.220,351.200 114.000 C 351.200 113.780,351.470 113.600,351.800 113.600 C 352.130 113.600,352.400 113.420,352.400 113.200 C 352.400 112.980,352.670 112.800,353.000 112.800 C 353.330 112.800,353.600 112.620,353.600 112.400 C 353.600 112.180,353.852 112.000,354.159 112.000 C 355.016 112.000,358.800 108.107,358.800 107.226 C 358.800 106.797,358.980 106.336,359.200 106.200 C 359.690 105.897,359.739 99.200,359.251 99.200 C 359.059 99.200,358.788 98.486,358.648 97.613 C 358.509 96.740,357.856 95.112,357.197 93.996 C 356.539 92.879,356.000 91.793,356.000 91.582 C 356.000 91.372,355.850 91.200,355.668 91.200 C 355.485 91.200,355.080 90.708,354.768 90.108 C 354.089 88.801,348.593 83.200,347.990 83.200 C 347.757 83.200,347.180 82.840,346.708 82.400 C 346.236 81.960,345.613 81.600,345.325 81.600 C 345.036 81.600,344.800 81.420,344.800 81.200 C 344.800 80.980,344.455 80.800,344.033 80.800 C 343.612 80.800,343.207 80.665,343.133 80.499 C 342.959 80.105,337.918 78.400,336.927 78.400 C 336.505 78.400,335.935 78.175,335.660 77.900 C 335.193 77.432,75.629 77.040,67.600 77.495 M40.400 200.176 C 40.400 261.756,40.492 267.869,41.396 266.407 C 41.534 266.183,41.957 266.000,42.335 266.000 C 42.714 266.000,43.283 265.640,43.600 265.200 C 43.917 264.760,44.414 264.400,44.705 264.400 C 44.996 264.400,45.620 264.040,46.092 263.600 C 46.564 263.160,47.187 262.800,47.475 262.800 C 47.764 262.800,48.000 262.620,48.000 262.400 C 48.000 262.180,48.320 262.000,48.712 262.000 C 49.103 262.000,49.683 261.640,50.000 261.200 C 50.317 260.760,50.857 260.400,51.200 260.400 C 51.543 260.400,52.083 260.040,52.400 259.600 C 52.717 259.160,53.250 258.800,53.585 258.800 C 54.201 258.800,58.488 256.052,58.733 255.500 C 58.807 255.335,59.172 255.200,59.545 255.200 C 59.918 255.200,60.483 254.840,60.800 254.400 C 61.117 253.960,61.614 253.600,61.905 253.600 C 62.196 253.600,62.820 253.240,63.292 252.800 C 63.764 252.360,64.387 252.000,64.675 252.000 C 64.964 252.000,65.200 251.820,65.200 251.600 C 65.200 251.380,65.436 251.200,65.725 251.200 C 66.013 251.200,66.598 250.885,67.025 250.500 C 67.451 250.115,68.295 249.545,68.900 249.232 C 69.505 248.920,70.000 248.515,70.000 248.332 C 70.000 248.150,70.278 248.000,70.617 248.000 C 70.956 248.000,71.620 247.640,72.092 247.200 C 72.564 246.760,73.187 246.400,73.475 246.400 C 73.764 246.400,74.000 246.220,74.000 246.000 C 74.000 245.780,74.230 245.600,74.512 245.600 C 74.793 245.600,75.283 245.240,75.600 244.800 C 75.917 244.360,76.457 244.000,76.800 244.000 C 77.143 244.000,77.683 243.640,78.000 243.200 C 78.317 242.760,78.897 242.400,79.288 242.400 C 79.680 242.400,80.000 242.238,80.000 242.039 C 80.000 241.841,80.495 241.489,81.100 241.258 C 82.159 240.854,84.386 239.615,84.800 239.199 C 84.910 239.089,85.495 238.744,86.100 238.432 C 86.705 238.120,87.200 237.715,87.200 237.532 C 87.200 237.350,87.436 237.200,87.725 237.200 C 88.013 237.200,88.598 236.885,89.025 236.500 C 89.451 236.115,90.292 235.546,90.893 235.236 C 91.495 234.926,92.342 234.341,92.777 233.936 C 93.211 233.531,93.804 233.200,94.095 233.200 C 94.386 233.200,94.883 232.840,95.200 232.400 C 95.517 231.960,96.014 231.600,96.305 231.600 C 96.596 231.600,97.220 231.240,97.692 230.800 C 98.164 230.360,98.787 230.000,99.075 230.000 C 99.364 230.000,99.600 229.820,99.600 229.600 C 99.600 229.380,99.836 229.200,100.125 229.200 C 100.413 229.200,101.036 228.840,101.508 228.400 C 101.980 227.960,102.604 227.600,102.895 227.600 C 103.186 227.600,103.683 227.240,104.000 226.800 C 104.317 226.360,104.897 226.000,105.288 226.000 C 105.680 226.000,106.000 225.832,106.000 225.627 C 106.000 225.422,106.402 225.126,106.892 224.971 C 107.663 224.726,109.795 223.406,110.400 222.799 C 110.510 222.689,111.095 222.344,111.700 222.032 C 112.305 221.720,112.800 221.315,112.800 221.132 C 112.800 220.950,113.078 220.800,113.417 220.800 C 113.756 220.800,114.420 220.440,114.892 220.000 C 115.364 219.560,115.987 219.200,116.275 219.200 C 116.564 219.200,116.800 219.020,116.800 218.800 C 116.800 218.580,117.036 218.400,117.325 218.400 C 117.613 218.400,118.198 218.085,118.625 217.700 C 119.051 217.315,119.895 216.745,120.500 216.432 C 121.105 216.120,121.600 215.715,121.600 215.532 C 121.600 215.350,121.836 215.200,122.125 215.200 C 122.413 215.200,123.036 214.840,123.508 214.400 C 123.980 213.960,124.554 213.600,124.783 213.600 C 125.012 213.600,125.200 213.420,125.200 213.200 C 125.200 212.980,125.520 212.800,125.912 212.800 C 126.303 212.800,126.883 212.440,127.200 212.000 C 127.517 211.560,128.057 211.200,128.400 211.200 C 128.743 211.200,129.283 210.840,129.600 210.400 C 129.917 209.960,130.497 209.600,130.888 209.600 C 131.280 209.600,131.600 209.432,131.600 209.227 C 131.600 209.022,132.005 208.727,132.500 208.572 C 132.995 208.417,134.120 207.815,135.000 207.233 C 135.880 206.651,137.095 205.926,137.700 205.620 C 138.305 205.315,138.800 204.915,138.800 204.732 C 138.800 204.550,139.036 204.400,139.325 204.400 C 139.613 204.400,140.236 204.040,140.708 203.600 C 141.180 203.160,141.754 202.800,141.983 202.800 C 142.212 202.800,142.400 202.664,142.400 202.498 C 142.400 202.331,142.940 201.956,143.600 201.664 C 145.059 201.018,145.395 198.800,144.033 198.800 C 143.612 198.800,143.207 198.665,143.133 198.500 C 142.945 198.077,140.505 196.400,140.078 196.400 C 139.883 196.400,139.398 196.040,139.000 195.600 C 138.602 195.160,138.056 194.800,137.787 194.800 C 137.518 194.800,137.074 194.530,136.800 194.200 C 136.526 193.870,136.047 193.600,135.734 193.600 C 135.422 193.600,134.780 193.240,134.308 192.800 C 133.836 192.360,133.213 192.000,132.925 192.000 C 132.636 192.000,132.400 191.820,132.400 191.600 C 132.400 191.380,132.164 191.200,131.875 191.200 C 131.587 191.200,130.964 190.840,130.492 190.400 C 130.020 189.960,129.396 189.600,129.105 189.600 C 128.814 189.600,128.317 189.240,128.000 188.800 C 127.683 188.360,127.169 188.000,126.859 188.000 C 126.548 188.000,126.003 187.684,125.647 187.297 C 125.291 186.911,124.460 186.326,123.800 185.997 C 123.140 185.669,122.251 185.085,121.825 184.700 C 121.398 184.315,120.896 184.000,120.708 184.000 C 120.520 184.000,119.980 183.640,119.508 183.200 C 119.036 182.760,118.413 182.400,118.125 182.400 C 117.836 182.400,117.600 182.242,117.600 182.049 C 117.600 181.855,117.060 181.473,116.400 181.200 C 115.740 180.927,115.200 180.566,115.200 180.398 C 115.200 180.230,114.885 179.993,114.500 179.871 C 113.651 179.602,111.626 178.386,110.884 177.700 C 110.586 177.425,110.035 177.200,109.660 177.200 C 109.284 177.200,108.717 176.840,108.400 176.400 C 108.083 175.960,107.593 175.600,107.312 175.600 C 107.030 175.600,106.800 175.420,106.800 175.200 C 106.800 174.980,106.564 174.800,106.275 174.800 C 105.987 174.800,105.364 174.440,104.892 174.000 C 104.420 173.560,103.796 173.200,103.505 173.200 C 103.214 173.200,102.717 172.840,102.400 172.400 C 102.083 171.960,101.586 171.600,101.295 171.600 C 101.004 171.600,100.380 171.240,99.908 170.800 C 99.436 170.360,98.813 170.000,98.525 170.000 C 98.236 170.000,98.000 169.820,98.000 169.600 C 98.000 169.380,97.764 169.200,97.475 169.200 C 97.187 169.200,96.564 168.840,96.092 168.400 C 95.620 167.960,94.996 167.600,94.705 167.600 C 94.414 167.600,93.917 167.240,93.600 166.800 C 93.283 166.360,92.786 166.000,92.495 166.000 C 92.204 166.000,91.611 165.669,91.177 165.264 C 90.742 164.859,89.895 164.274,89.293 163.964 C 88.692 163.654,87.851 163.085,87.425 162.700 C 86.998 162.315,86.413 162.000,86.125 162.000 C 85.836 162.000,85.600 161.847,85.600 161.661 C 85.600 161.474,84.880 160.997,84.000 160.600 C 83.120 160.203,82.400 159.726,82.400 159.539 C 82.400 159.353,82.040 159.200,81.600 159.200 C 81.160 159.200,80.800 159.020,80.800 158.800 C 80.800 158.580,80.564 158.400,80.275 158.400 C 79.987 158.400,79.364 158.040,78.892 157.600 C 78.420 157.160,77.796 156.800,77.505 156.800 C 77.214 156.800,76.717 156.440,76.400 156.000 C 76.083 155.560,75.593 155.200,75.312 155.200 C 75.030 155.200,74.800 155.020,74.800 154.800 C 74.800 154.580,74.530 154.400,74.200 154.400 C 73.870 154.400,73.600 154.220,73.600 154.000 C 73.600 153.780,73.330 153.600,73.000 153.600 C 72.670 153.600,72.400 153.420,72.400 153.200 C 72.400 152.980,72.164 152.800,71.875 152.800 C 71.587 152.800,70.964 152.440,70.492 152.000 C 70.020 151.560,69.356 151.200,69.017 151.200 C 68.678 151.200,68.400 151.050,68.400 150.868 C 68.400 150.685,67.905 150.280,67.300 149.968 C 66.695 149.655,65.851 149.085,65.425 148.700 C 64.998 148.315,64.413 148.000,64.125 148.000 C 63.836 148.000,63.600 147.841,63.600 147.647 C 63.600 147.452,63.285 147.193,62.900 147.071 C 61.984 146.781,60.044 145.586,59.025 144.685 C 58.580 144.291,57.807 143.866,57.308 143.741 C 56.809 143.616,56.400 143.353,56.400 143.157 C 56.400 142.960,56.130 142.800,55.800 142.800 C 55.470 142.800,55.200 142.620,55.200 142.400 C 55.200 142.180,54.964 142.000,54.675 142.000 C 54.387 142.000,53.764 141.640,53.292 141.200 C 52.820 140.760,52.196 140.400,51.905 140.400 C 51.614 140.400,51.117 140.040,50.800 139.600 C 50.483 139.160,49.986 138.800,49.695 138.800 C 49.404 138.800,48.780 138.440,48.308 138.000 C 47.836 137.560,47.213 137.200,46.925 137.200 C 46.636 137.200,46.400 137.020,46.400 136.800 C 46.400 136.580,46.164 136.400,45.875 136.400 C 45.587 136.400,44.964 136.040,44.492 135.600 C 44.020 135.160,43.356 134.800,43.017 134.800 C 42.678 134.800,42.400 134.620,42.400 134.400 C 42.400 134.180,41.950 134.000,41.400 134.000 L 40.400 134.000 40.400 200.176 M357.600 134.400 C 357.600 134.620,357.280 134.800,356.888 134.800 C 356.497 134.800,355.917 135.160,355.600 135.600 C 355.283 136.040,354.786 136.400,354.495 136.400 C 354.204 136.400,353.580 136.760,353.108 137.200 C 352.636 137.640,352.013 138.000,351.725 138.000 C 351.436 138.000,351.200 138.180,351.200 138.400 C 351.200 138.620,350.930 138.800,350.600 138.800 C 350.270 138.800,350.000 138.980,350.000 139.200 C 350.000 139.420,349.730 139.600,349.400 139.600 C 349.070 139.600,348.800 139.780,348.800 140.000 C 348.800 140.220,348.564 140.400,348.275 140.400 C 347.987 140.400,347.364 140.760,346.892 141.200 C 346.420 141.640,345.880 142.000,345.692 142.000 C 345.504 142.000,345.002 142.317,344.575 142.705 C 344.149 143.093,343.035 143.750,342.100 144.166 C 341.165 144.582,340.400 145.052,340.400 145.212 C 340.400 145.372,339.860 145.727,339.200 146.000 C 338.540 146.273,338.000 146.655,338.000 146.849 C 338.000 147.042,337.764 147.200,337.475 147.200 C 337.187 147.200,336.564 147.560,336.092 148.000 C 335.620 148.440,335.038 148.800,334.800 148.800 C 334.562 148.800,333.980 149.160,333.508 149.600 C 333.036 150.040,332.413 150.400,332.125 150.400 C 331.836 150.400,331.600 150.580,331.600 150.800 C 331.600 151.020,331.364 151.200,331.075 151.200 C 330.787 151.200,330.164 151.560,329.692 152.000 C 329.220 152.440,328.647 152.800,328.420 152.800 C 328.193 152.800,327.782 153.160,327.507 153.600 C 327.232 154.040,326.691 154.400,326.304 154.400 C 325.917 154.400,325.600 154.580,325.600 154.800 C 325.600 155.020,325.364 155.200,325.075 155.200 C 324.787 155.200,324.164 155.560,323.692 156.000 C 323.220 156.440,322.596 156.800,322.305 156.800 C 322.014 156.800,321.517 157.160,321.200 157.600 C 320.883 158.040,320.343 158.400,320.000 158.400 C 319.657 158.400,319.117 158.760,318.800 159.200 C 318.483 159.640,317.946 160.000,317.607 160.000 C 317.269 160.000,315.784 160.810,314.308 161.800 C 312.833 162.790,311.479 163.600,311.301 163.600 C 311.123 163.600,310.717 163.960,310.400 164.400 C 310.083 164.840,309.503 165.200,309.112 165.200 C 308.720 165.200,308.400 165.358,308.400 165.551 C 308.400 165.745,307.860 166.127,307.200 166.400 C 306.540 166.673,306.000 167.055,306.000 167.249 C 306.000 167.442,305.680 167.600,305.288 167.600 C 304.897 167.600,304.317 167.960,304.000 168.400 C 303.683 168.840,303.143 169.200,302.800 169.200 C 302.457 169.200,301.917 169.560,301.600 170.000 C 301.283 170.440,300.703 170.800,300.312 170.800 C 299.920 170.800,299.600 170.980,299.600 171.200 C 299.600 171.420,299.330 171.600,299.000 171.600 C 298.670 171.600,298.400 171.780,298.400 172.000 C 298.400 172.220,298.130 172.400,297.800 172.400 C 297.470 172.400,297.200 172.580,297.200 172.800 C 297.200 173.020,296.930 173.200,296.600 173.200 C 296.270 173.200,296.000 173.380,296.000 173.600 C 296.000 173.820,295.730 174.000,295.400 174.000 C 295.070 174.000,294.800 174.180,294.800 174.400 C 294.800 174.620,294.612 174.800,294.383 174.800 C 294.154 174.800,293.580 175.160,293.108 175.600 C 292.636 176.040,292.013 176.400,291.725 176.400 C 291.436 176.400,291.200 176.566,291.200 176.768 C 291.200 176.971,290.660 177.255,290.000 177.400 C 289.340 177.545,288.800 177.807,288.800 177.983 C 288.800 178.159,288.260 178.527,287.600 178.800 C 286.940 179.073,286.400 179.455,286.400 179.649 C 286.400 179.842,286.164 180.000,285.875 180.000 C 285.587 180.000,284.964 180.360,284.492 180.800 C 284.020 181.240,283.438 181.600,283.200 181.600 C 282.962 181.600,282.380 181.960,281.908 182.400 C 281.436 182.840,280.813 183.200,280.525 183.200 C 280.236 183.200,280.000 183.380,280.000 183.600 C 280.000 183.820,279.730 184.000,279.400 184.000 C 279.070 184.000,278.800 184.180,278.800 184.400 C 278.800 184.620,278.530 184.800,278.200 184.800 C 277.870 184.800,277.600 184.980,277.600 185.200 C 277.600 185.420,277.370 185.600,277.088 185.600 C 276.807 185.600,276.317 185.960,276.000 186.400 C 275.683 186.840,275.103 187.200,274.712 187.200 C 274.320 187.200,274.000 187.380,274.000 187.600 C 274.000 187.820,273.764 188.000,273.475 188.000 C 273.187 188.000,272.564 188.360,272.092 188.800 C 271.620 189.240,270.996 189.600,270.705 189.600 C 270.414 189.600,269.917 189.960,269.600 190.400 C 269.283 190.840,268.743 191.200,268.400 191.200 C 268.057 191.200,267.517 191.560,267.200 192.000 C 266.883 192.440,266.303 192.800,265.912 192.800 C 265.520 192.800,265.200 192.980,265.200 193.200 C 265.200 193.420,264.973 193.600,264.695 193.600 C 264.417 193.600,263.254 194.230,262.110 195.000 C 260.967 195.770,259.884 196.400,259.704 196.400 C 259.524 196.400,259.117 196.760,258.800 197.200 C 258.483 197.640,257.994 198.000,257.715 198.000 C 256.904 198.000,255.200 199.675,255.200 200.472 C 255.200 200.903,255.490 201.200,255.912 201.200 C 256.303 201.200,256.883 201.560,257.200 202.000 C 257.517 202.440,258.082 202.800,258.455 202.800 C 258.828 202.800,259.193 202.947,259.267 203.128 C 259.456 203.593,264.269 206.800,264.778 206.800 C 265.010 206.800,265.200 206.953,265.200 207.139 C 265.200 207.326,265.920 207.803,266.800 208.200 C 267.680 208.597,268.400 209.074,268.400 209.261 C 268.400 209.447,268.678 209.600,269.017 209.600 C 269.356 209.600,270.020 209.960,270.492 210.400 C 270.964 210.840,271.587 211.200,271.875 211.200 C 272.164 211.200,272.400 211.380,272.400 211.600 C 272.400 211.820,272.720 212.000,273.112 212.000 C 273.503 212.000,274.083 212.360,274.400 212.800 C 274.717 213.240,275.231 213.600,275.541 213.600 C 275.852 213.600,276.397 213.916,276.753 214.303 C 277.109 214.689,277.892 215.258,278.493 215.567 C 279.095 215.875,279.942 216.459,280.377 216.864 C 280.811 217.269,281.444 217.600,281.783 217.600 C 282.122 217.600,282.400 217.750,282.400 217.932 C 282.400 218.115,282.895 218.520,283.500 218.832 C 284.105 219.145,284.949 219.715,285.375 220.100 C 285.802 220.485,286.387 220.800,286.675 220.800 C 286.964 220.800,287.200 220.959,287.200 221.153 C 287.200 221.348,287.515 221.607,287.900 221.729 C 288.777 222.007,290.786 223.223,291.564 223.947 C 291.887 224.248,292.657 224.671,293.276 224.886 C 293.894 225.102,294.400 225.441,294.400 225.639 C 294.400 225.838,294.670 226.000,295.000 226.000 C 295.330 226.000,295.600 226.180,295.600 226.400 C 295.600 226.620,295.870 226.800,296.200 226.800 C 296.530 226.800,296.800 226.980,296.800 227.200 C 296.800 227.420,297.070 227.600,297.400 227.600 C 297.730 227.600,298.000 227.780,298.000 228.000 C 298.000 228.220,298.320 228.400,298.712 228.400 C 299.103 228.400,299.683 228.760,300.000 229.200 C 300.317 229.640,300.857 230.000,301.200 230.000 C 301.543 230.000,302.083 230.360,302.400 230.800 C 302.717 231.240,303.214 231.600,303.505 231.600 C 303.796 231.600,304.420 231.960,304.892 232.400 C 305.364 232.840,305.987 233.200,306.275 233.200 C 306.564 233.200,306.800 233.380,306.800 233.600 C 306.800 233.820,307.094 234.000,307.453 234.000 C 307.812 234.000,308.397 234.316,308.753 234.703 C 309.109 235.089,309.895 235.660,310.500 235.970 C 311.105 236.281,311.600 236.685,311.600 236.868 C 311.600 237.050,311.793 237.200,312.028 237.200 C 312.263 237.200,313.241 237.740,314.200 238.400 C 315.159 239.060,316.137 239.600,316.372 239.600 C 316.607 239.600,316.800 239.753,316.800 239.939 C 316.800 240.126,317.520 240.603,318.400 241.000 C 319.280 241.397,320.000 241.874,320.000 242.061 C 320.000 242.247,320.278 242.400,320.617 242.400 C 320.956 242.400,321.620 242.760,322.092 243.200 C 322.564 243.640,323.187 244.000,323.475 244.000 C 323.764 244.000,324.000 244.180,324.000 244.400 C 324.000 244.620,324.320 244.800,324.712 244.800 C 325.103 244.800,325.683 245.160,326.000 245.600 C 326.317 246.040,326.807 246.400,327.088 246.400 C 327.370 246.400,327.600 246.580,327.600 246.800 C 327.600 247.020,327.870 247.200,328.200 247.200 C 328.530 247.200,328.800 247.380,328.800 247.600 C 328.800 247.820,329.070 248.000,329.400 248.000 C 329.730 248.000,330.000 248.180,330.000 248.400 C 330.000 248.620,330.236 248.800,330.525 248.800 C 330.813 248.800,331.436 249.160,331.908 249.600 C 332.380 250.040,333.004 250.400,333.295 250.400 C 333.586 250.400,334.083 250.760,334.400 251.200 C 334.717 251.640,335.214 252.000,335.505 252.000 C 335.796 252.000,336.420 252.360,336.892 252.800 C 337.364 253.240,337.987 253.600,338.275 253.600 C 338.564 253.600,338.800 253.758,338.800 253.951 C 338.800 254.145,339.340 254.527,340.000 254.800 C 340.660 255.073,341.200 255.455,341.200 255.649 C 341.200 255.842,341.478 256.000,341.817 256.000 C 342.156 256.000,342.794 256.336,343.235 256.747 C 343.676 257.158,344.704 257.833,345.519 258.247 C 346.333 258.661,347.060 259.135,347.133 259.300 C 347.207 259.465,347.522 259.600,347.833 259.600 C 348.145 259.600,348.400 259.780,348.400 260.000 C 348.400 260.220,348.670 260.400,349.000 260.400 C 349.330 260.400,349.600 260.580,349.600 260.800 C 349.600 261.020,349.920 261.200,350.312 261.200 C 350.703 261.200,351.283 261.560,351.600 262.000 C 351.917 262.440,352.457 262.800,352.800 262.800 C 353.143 262.800,353.683 263.160,354.000 263.600 C 354.317 264.040,354.814 264.400,355.105 264.400 C 355.396 264.400,356.020 264.760,356.492 265.200 C 356.964 265.640,357.857 266.000,358.475 266.000 L 359.600 266.000 359.600 200.000 L 359.600 134.000 358.600 134.000 C 358.050 134.000,357.600 134.180,357.600 134.400 M229.917 215.328 C 229.102 215.807,227.842 216.692,227.117 217.293 C 226.393 217.894,225.575 218.389,225.300 218.393 C 225.025 218.397,224.800 218.580,224.800 218.800 C 224.800 219.020,224.564 219.200,224.275 219.200 C 223.987 219.200,223.364 219.560,222.892 220.000 C 222.420 220.440,221.796 220.800,221.505 220.800 C 221.214 220.800,220.717 221.160,220.400 221.600 C 220.083 222.040,219.503 222.400,219.112 222.400 C 218.720 222.400,218.400 222.580,218.400 222.800 C 218.400 223.020,218.164 223.200,217.875 223.200 C 217.587 223.200,216.964 223.560,216.492 224.000 C 216.020 224.440,215.438 224.800,215.200 224.800 C 214.962 224.800,214.380 225.160,213.908 225.600 C 213.436 226.040,212.813 226.400,212.525 226.400 C 212.236 226.400,212.000 226.580,212.000 226.800 C 212.000 227.020,211.743 227.200,211.429 227.200 C 211.114 227.200,210.619 227.425,210.329 227.700 C 210.038 227.975,209.305 228.455,208.700 228.768 C 208.095 229.080,207.600 229.485,207.600 229.668 C 207.600 229.850,207.280 230.000,206.888 230.000 C 206.497 230.000,205.917 230.360,205.600 230.800 C 205.283 231.240,204.703 231.600,204.312 231.600 C 203.920 231.600,203.600 231.780,203.600 232.000 C 203.600 232.220,203.240 232.400,202.800 232.400 C 202.360 232.400,202.000 232.580,202.000 232.800 C 202.000 233.020,201.100 233.200,200.000 233.200 C 198.900 233.200,198.000 233.020,198.000 232.800 C 198.000 232.580,197.640 232.400,197.200 232.400 C 196.760 232.400,196.400 232.220,196.400 232.000 C 196.400 231.780,196.080 231.600,195.688 231.600 C 195.297 231.600,194.717 231.240,194.400 230.800 C 194.083 230.360,193.569 230.000,193.259 230.000 C 192.948 230.000,192.400 229.685,192.041 229.300 C 191.318 228.524,190.441 227.946,188.500 226.965 C 187.785 226.604,187.200 226.149,187.200 225.954 C 187.200 225.759,186.880 225.600,186.488 225.600 C 186.097 225.600,185.517 225.240,185.200 224.800 C 184.883 224.360,184.343 224.000,184.000 224.000 C 183.657 224.000,183.117 223.640,182.800 223.200 C 182.483 222.760,181.903 222.400,181.512 222.400 C 181.120 222.400,180.800 222.220,180.800 222.000 C 180.800 221.780,180.480 221.600,180.088 221.600 C 179.697 221.600,179.117 221.240,178.800 220.800 C 178.483 220.360,177.903 220.000,177.512 220.000 C 177.120 220.000,176.800 219.820,176.800 219.600 C 176.800 219.380,176.440 219.200,176.000 219.200 C 175.560 219.200,175.200 219.020,175.200 218.800 C 175.200 218.580,174.945 218.400,174.633 218.400 C 174.322 218.400,174.007 218.265,173.933 218.100 C 173.268 216.603,164.555 214.485,163.481 215.559 C 163.239 215.801,162.624 216.000,162.115 216.000 C 161.179 216.000,159.861 216.607,158.913 217.474 C 158.628 217.734,158.036 218.062,157.598 218.201 C 157.159 218.340,156.800 218.622,156.800 218.827 C 156.800 219.032,156.480 219.200,156.088 219.200 C 155.697 219.200,155.117 219.560,154.800 220.000 C 154.483 220.440,153.903 220.800,153.512 220.800 C 153.120 220.800,152.800 220.980,152.800 221.200 C 152.800 221.420,152.564 221.600,152.275 221.600 C 151.987 221.600,151.364 221.960,150.892 222.400 C 150.420 222.840,149.796 223.200,149.505 223.200 C 149.214 223.200,148.717 223.560,148.400 224.000 C 148.083 224.440,147.503 224.800,147.112 224.800 C 146.720 224.800,146.400 224.980,146.400 225.200 C 146.400 225.420,146.130 225.600,145.800 225.600 C 145.470 225.600,145.200 225.780,145.200 226.000 C 145.200 226.220,144.930 226.400,144.600 226.400 C 144.270 226.400,144.000 226.580,144.000 226.800 C 144.000 227.020,143.743 227.200,143.429 227.200 C 143.114 227.200,142.619 227.428,142.329 227.706 C 142.038 227.984,140.945 228.659,139.900 229.205 C 138.855 229.752,138.000 230.334,138.000 230.499 C 138.000 230.665,137.764 230.800,137.475 230.800 C 137.187 230.800,136.564 231.160,136.092 231.600 C 135.620 232.040,135.038 232.400,134.800 232.400 C 134.562 232.400,133.980 232.760,133.508 233.200 C 133.036 233.640,132.413 234.000,132.125 234.000 C 131.836 234.000,131.600 234.180,131.600 234.400 C 131.600 234.620,131.364 234.800,131.075 234.800 C 130.787 234.800,130.164 235.160,129.692 235.600 C 129.220 236.040,128.729 236.400,128.601 236.400 C 128.263 236.400,125.824 238.146,125.667 238.500 C 125.593 238.665,125.228 238.800,124.855 238.800 C 124.482 238.800,123.917 239.160,123.600 239.600 C 123.283 240.040,122.786 240.400,122.495 240.400 C 122.204 240.400,121.580 240.760,121.108 241.200 C 120.636 241.640,120.013 242.000,119.725 242.000 C 119.436 242.000,119.200 242.180,119.200 242.400 C 119.200 242.620,118.840 242.800,118.400 242.800 C 117.960 242.800,117.600 242.953,117.600 243.139 C 117.600 243.326,116.880 243.803,116.000 244.200 C 115.120 244.597,114.400 245.074,114.400 245.261 C 114.400 245.447,114.207 245.600,113.972 245.600 C 113.737 245.600,112.759 246.140,111.800 246.800 C 110.841 247.460,109.903 248.000,109.716 248.000 C 109.529 248.000,109.117 248.360,108.800 248.800 C 108.483 249.240,107.986 249.600,107.695 249.600 C 107.404 249.600,106.780 249.960,106.308 250.400 C 105.836 250.840,105.213 251.200,104.925 251.200 C 104.636 251.200,104.400 251.380,104.400 251.600 C 104.400 251.820,104.164 252.000,103.875 252.000 C 103.587 252.000,102.964 252.360,102.492 252.800 C 102.020 253.240,101.396 253.600,101.105 253.600 C 100.814 253.600,100.317 253.960,100.000 254.400 C 99.683 254.840,99.103 255.200,98.712 255.200 C 98.320 255.200,98.000 255.380,98.000 255.600 C 98.000 255.820,97.730 256.000,97.400 256.000 C 97.070 256.000,96.800 256.180,96.800 256.400 C 96.800 256.620,96.530 256.800,96.200 256.800 C 95.870 256.800,95.600 256.980,95.600 257.200 C 95.600 257.420,95.412 257.600,95.183 257.600 C 94.954 257.600,94.380 257.960,93.908 258.400 C 93.436 258.840,92.813 259.200,92.525 259.200 C 92.236 259.200,92.000 259.366,92.000 259.568 C 92.000 259.771,91.460 260.055,90.800 260.200 C 90.140 260.345,89.600 260.607,89.600 260.783 C 89.600 260.959,89.060 261.327,88.400 261.600 C 87.740 261.873,87.200 262.255,87.200 262.449 C 87.200 262.642,86.964 262.800,86.675 262.800 C 86.387 262.800,85.764 263.160,85.292 263.600 C 84.820 264.040,84.156 264.400,83.817 264.400 C 83.478 264.400,83.200 264.580,83.200 264.800 C 83.200 265.020,82.964 265.200,82.675 265.200 C 82.387 265.200,81.802 265.515,81.375 265.900 C 80.949 266.285,80.105 266.855,79.500 267.168 C 78.895 267.480,78.400 267.885,78.400 268.068 C 78.400 268.250,78.130 268.400,77.800 268.400 C 77.470 268.400,77.200 268.580,77.200 268.800 C 77.200 269.020,76.964 269.200,76.675 269.200 C 76.387 269.200,75.764 269.560,75.292 270.000 C 74.820 270.440,74.196 270.800,73.905 270.800 C 73.614 270.800,73.117 271.160,72.800 271.600 C 72.483 272.040,71.903 272.400,71.512 272.400 C 71.120 272.400,70.800 272.580,70.800 272.800 C 70.800 273.020,70.530 273.200,70.200 273.200 C 69.870 273.200,69.600 273.380,69.600 273.600 C 69.600 273.820,69.330 274.000,69.000 274.000 C 68.670 274.000,68.400 274.180,68.400 274.400 C 68.400 274.620,68.080 274.800,67.688 274.800 C 67.297 274.800,66.717 275.160,66.400 275.600 C 66.083 276.040,65.503 276.400,65.112 276.400 C 64.720 276.400,64.400 276.568,64.400 276.773 C 64.400 276.978,63.998 277.274,63.508 277.429 C 62.527 277.740,60.278 279.225,60.067 279.700 C 59.993 279.865,59.628 280.000,59.255 280.000 C 58.882 280.000,58.317 280.360,58.000 280.800 C 57.683 281.240,57.103 281.600,56.712 281.600 C 56.320 281.600,56.000 281.758,56.000 281.951 C 56.000 282.145,55.460 282.527,54.800 282.800 C 54.140 283.073,53.600 283.455,53.600 283.649 C 53.600 283.842,53.280 284.000,52.888 284.000 C 52.497 284.000,51.917 284.360,51.600 284.800 C 51.283 285.240,50.786 285.600,50.495 285.600 C 50.204 285.600,49.580 285.960,49.108 286.400 C 48.636 286.840,48.013 287.200,47.725 287.200 C 47.436 287.200,47.200 287.380,47.200 287.600 C 47.200 287.820,46.930 288.000,46.600 288.000 C 46.270 288.000,46.000 288.180,46.000 288.400 C 46.000 288.620,45.730 288.800,45.400 288.800 C 45.070 288.800,44.800 288.980,44.800 289.200 C 44.800 289.420,44.614 289.600,44.387 289.600 C 43.742 289.600,41.200 292.301,41.200 292.987 C 41.200 293.324,41.020 293.600,40.800 293.600 C 40.565 293.600,40.400 295.000,40.400 297.000 C 40.400 299.000,40.565 300.400,40.800 300.400 C 41.020 300.400,41.200 300.940,41.200 301.600 C 41.200 302.260,41.380 302.800,41.600 302.800 C 41.820 302.800,42.000 303.250,42.000 303.800 C 42.000 304.350,42.180 304.800,42.400 304.800 C 42.620 304.800,42.800 305.160,42.800 305.600 C 42.800 306.040,42.980 306.400,43.200 306.400 C 43.420 306.400,43.600 306.747,43.600 307.171 C 43.600 307.596,43.870 308.213,44.200 308.543 C 44.530 308.873,44.800 309.341,44.800 309.583 C 44.800 310.252,52.317 317.600,53.001 317.600 C 53.330 317.600,53.600 317.780,53.600 318.000 C 53.600 318.220,53.960 318.400,54.400 318.400 C 54.840 318.400,55.200 318.580,55.200 318.800 C 55.200 319.020,55.560 319.200,56.000 319.200 C 56.440 319.200,56.800 319.380,56.800 319.600 C 56.800 319.820,57.160 320.000,57.600 320.000 C 58.040 320.000,58.400 320.180,58.400 320.400 C 58.400 320.620,58.839 320.800,59.376 320.800 C 59.913 320.800,60.464 320.980,60.600 321.200 C 60.736 321.420,61.341 321.600,61.944 321.600 C 62.547 321.600,63.211 321.764,63.420 321.965 C 64.314 322.823,74.910 322.896,199.800 322.896 C 324.690 322.896,335.286 322.823,336.180 321.965 C 336.389 321.764,337.143 321.600,337.856 321.600 C 338.569 321.600,339.264 321.420,339.400 321.200 C 339.536 320.980,340.087 320.800,340.624 320.800 C 341.161 320.800,341.600 320.620,341.600 320.400 C 341.600 320.180,341.960 320.000,342.400 320.000 C 342.840 320.000,343.200 319.820,343.200 319.600 C 343.200 319.380,343.560 319.200,344.000 319.200 C 344.440 319.200,344.800 319.020,344.800 318.800 C 344.800 318.580,345.160 318.400,345.600 318.400 C 346.040 318.400,346.400 318.220,346.400 318.000 C 346.400 317.780,346.672 317.600,347.004 317.600 C 347.336 317.600,348.172 317.060,348.863 316.400 C 349.554 315.740,350.286 315.200,350.491 315.200 C 350.954 315.200,354.000 312.063,354.000 311.586 C 354.000 311.393,354.409 310.823,354.909 310.318 C 356.152 309.063,358.800 303.585,358.800 302.270 C 358.800 301.682,358.980 301.200,359.200 301.200 C 359.437 301.200,359.600 299.733,359.600 297.600 C 359.600 295.620,359.440 294.000,359.243 294.000 C 359.047 294.000,358.772 293.543,358.632 292.984 C 358.366 291.924,356.383 289.600,355.745 289.600 C 355.542 289.600,355.117 289.240,354.800 288.800 C 354.483 288.360,353.986 288.000,353.695 288.000 C 353.404 288.000,352.780 287.640,352.308 287.200 C 351.836 286.760,351.213 286.400,350.925 286.400 C 350.636 286.400,350.400 286.220,350.400 286.000 C 350.400 285.780,350.164 285.600,349.875 285.600 C 349.587 285.600,348.964 285.240,348.492 284.800 C 348.020 284.360,347.438 284.000,347.200 284.000 C 346.962 284.000,346.380 283.640,345.908 283.200 C 345.436 282.760,344.813 282.400,344.525 282.400 C 344.236 282.400,344.000 282.242,344.000 282.049 C 344.000 281.855,343.460 281.473,342.800 281.200 C 342.140 280.927,341.600 280.545,341.600 280.351 C 341.600 280.158,341.413 280.000,341.184 280.000 C 340.956 280.000,339.833 279.370,338.690 278.600 C 337.546 277.830,336.383 277.200,336.105 277.200 C 335.827 277.200,335.600 277.020,335.600 276.800 C 335.600 276.580,335.280 276.400,334.888 276.400 C 334.497 276.400,333.917 276.040,333.600 275.600 C 333.283 275.160,332.786 274.800,332.495 274.800 C 332.204 274.800,331.580 274.440,331.108 274.000 C 330.636 273.560,330.013 273.200,329.725 273.200 C 329.436 273.200,329.200 273.020,329.200 272.800 C 329.200 272.580,328.880 272.400,328.488 272.400 C 328.097 272.400,327.517 272.040,327.200 271.600 C 326.883 271.160,326.369 270.800,326.059 270.800 C 325.748 270.800,325.203 270.484,324.847 270.097 C 324.491 269.711,323.660 269.126,323.000 268.797 C 322.340 268.469,321.451 267.885,321.025 267.500 C 320.598 267.115,320.096 266.800,319.908 266.800 C 319.720 266.800,319.180 266.440,318.708 266.000 C 318.236 265.560,317.613 265.200,317.325 265.200 C 317.036 265.200,316.800 265.020,316.800 264.800 C 316.800 264.580,316.564 264.400,316.275 264.400 C 315.987 264.400,315.364 264.040,314.892 263.600 C 314.420 263.160,313.756 262.800,313.417 262.800 C 313.078 262.800,312.800 262.642,312.800 262.449 C 312.800 262.255,312.260 261.873,311.600 261.600 C 310.940 261.327,310.400 260.948,310.400 260.759 C 310.400 260.570,309.950 260.302,309.400 260.164 C 308.850 260.026,308.400 259.753,308.400 259.557 C 308.400 259.360,308.080 259.200,307.688 259.200 C 307.297 259.200,306.717 258.840,306.400 258.400 C 306.083 257.960,305.586 257.600,305.295 257.600 C 305.004 257.600,304.380 257.240,303.908 256.800 C 303.436 256.360,302.813 256.000,302.525 256.000 C 302.236 256.000,302.000 255.820,302.000 255.600 C 302.000 255.380,301.764 255.200,301.475 255.200 C 301.187 255.200,300.564 254.840,300.092 254.400 C 299.620 253.960,298.996 253.600,298.705 253.600 C 298.414 253.600,297.917 253.240,297.600 252.800 C 297.283 252.360,296.786 252.000,296.495 252.000 C 296.204 252.000,295.580 251.640,295.108 251.200 C 294.636 250.760,294.013 250.400,293.725 250.400 C 293.436 250.400,293.200 250.220,293.200 250.000 C 293.200 249.780,292.880 249.600,292.488 249.600 C 292.097 249.600,291.517 249.240,291.200 248.800 C 290.883 248.360,290.393 248.000,290.112 248.000 C 289.830 248.000,289.600 247.820,289.600 247.600 C 289.600 247.380,289.410 247.200,289.178 247.200 C 288.946 247.200,287.731 246.505,286.478 245.656 C 285.225 244.807,283.795 243.985,283.300 243.829 C 282.805 243.674,282.400 243.378,282.400 243.173 C 282.400 242.968,282.080 242.800,281.688 242.800 C 281.297 242.800,280.717 242.440,280.400 242.000 C 280.083 241.560,279.586 241.200,279.295 241.200 C 279.004 241.200,278.380 240.840,277.908 240.400 C 277.436 239.960,276.813 239.600,276.525 239.600 C 276.236 239.600,276.000 239.420,276.000 239.200 C 276.000 238.980,275.730 238.800,275.400 238.800 C 275.070 238.800,274.800 238.650,274.800 238.468 C 274.800 238.285,274.305 237.880,273.700 237.568 C 273.095 237.255,272.251 236.685,271.825 236.300 C 271.398 235.915,270.813 235.600,270.525 235.600 C 270.236 235.600,270.000 235.420,270.000 235.200 C 270.000 234.980,269.764 234.800,269.475 234.800 C 269.187 234.800,268.564 234.440,268.092 234.000 C 267.620 233.560,266.996 233.200,266.705 233.200 C 266.414 233.200,265.917 232.840,265.600 232.400 C 265.283 231.960,264.786 231.600,264.495 231.600 C 264.204 231.600,263.580 231.240,263.108 230.800 C 262.636 230.360,262.013 230.000,261.725 230.000 C 261.436 230.000,261.200 229.832,261.200 229.627 C 261.200 229.422,260.841 229.140,260.402 229.001 C 259.964 228.862,259.376 228.534,259.096 228.274 C 258.817 228.013,257.871 227.440,256.994 227.000 C 256.117 226.560,255.051 225.885,254.625 225.500 C 254.198 225.115,253.696 224.800,253.508 224.800 C 253.320 224.800,252.780 224.440,252.308 224.000 C 251.836 223.560,251.213 223.200,250.925 223.200 C 250.636 223.200,250.400 223.020,250.400 222.800 C 250.400 222.580,250.164 222.400,249.875 222.400 C 249.587 222.400,248.964 222.040,248.492 221.600 C 248.020 221.160,247.396 220.800,247.105 220.800 C 246.814 220.800,246.317 220.440,246.000 220.000 C 245.683 219.560,245.143 219.200,244.800 219.200 C 244.457 219.200,243.917 218.840,243.600 218.400 C 243.283 217.960,242.718 217.600,242.345 217.600 C 241.972 217.600,241.607 217.458,241.533 217.286 C 241.260 216.640,238.846 215.200,238.038 215.200 C 237.577 215.200,237.200 215.020,237.200 214.800 C 237.200 213.979,231.509 214.391,229.917 215.328 " stroke="none" fill="#008cd7" fill-rule="evenodd"></path><path id="path1" d="" stroke="none" fill="#008cd7" fill-rule="evenodd"></path></g></svg>