<svg width="40" height="40" xmlns="http://www.w3.org/2000/svg">

 <g>
  <title>background</title>
  <rect fill="none" id="canvas_background" height="402" width="582" y="-1" x="-1"/>
 </g>
 <g>
  <title>Layer 1</title>
  <path id="svg_1" d="m34.981658,18.214992c0.054,0.52 0.085,1.05 0.085,1.585c0,8.284 -6.716,15 -15,15c-0.536,0 -1.064,-0.03 -1.585,-0.085l-13.33,-13.33a15.08,15.08 0 0 1 -0.085,-1.585c0,-8.284 6.716,-15 15,-15c0.536,0 1.064,0.03 1.585,0.085l13.33,13.33z" fill="#68D4F8"/>
  <path id="svg_2" d="m19.206658,34.490326c-7.614,-0.433 -13.694,-6.53 -14.1,-14.153l5.563,-5.59a0.76,0.76 0 0 1 0.514,-0.206l3.89,0l0.004,8.925c0,0.594 0.487,1.08 1.06,1.057l8.91,-0.012l0,3.905c0,0.19 -0.075,0.382 -0.207,0.514l-5.632,5.56l-0.002,0z" fill="#FFF"/>
  <path id="svg_3" d="m29.273658,24.571992a0.738,0.738 0 0 1 -0.514,0.206l-3.7,0l-0.004,-8.894c0,-0.594 -0.487,-1.08 -1.08,-1.08l-8.903,-0.01l0,-3.688c0,-0.19 0.073,-0.38 0.205,-0.514l5.747,-5.744c7.513,0.476 13.51,6.47 13.993,13.98l-5.742,5.744l-0.002,0z" fill="#217AB7"/>
 </g>
</svg>