<svg id="svg" version="1.1" width="400" height="400" viewBox="0 40 400 400" xmlns="http://www.w3.org/2000/svg" xmlns:xlink="http://www.w3.org/1999/xlink" ><g id="svgg"><path id="path0" d="M35.200 91.600 C 35.200 91.820,34.936 92.000,34.614 92.000 C 33.666 92.000,33.200 93.371,33.200 96.164 L 33.200 98.782 26.100 98.891 L 19.000 99.000 18.884 102.500 L 18.769 106.000 15.617 106.000 C 11.086 106.000,11.200 105.901,11.200 109.827 L 11.200 113.169 7.700 113.284 L 4.200 113.400 4.099 250.281 L 3.999 387.162 5.018 388.181 C 5.949 389.113,6.327 389.200,9.428 389.200 C 12.765 389.200,12.826 389.218,13.218 390.300 C 14.038 392.564,14.513 393.081,16.629 394.013 C 18.092 394.657,18.800 395.202,18.800 395.684 C 18.800 396.319,19.208 396.400,22.400 396.400 L 26.000 396.400 26.000 398.200 L 26.000 400.000 203.200 400.000 L 380.400 400.000 380.400 398.214 L 380.400 396.427 384.700 396.314 L 389.000 396.200 389.115 392.715 L 389.231 389.231 392.715 389.115 L 396.200 389.000 396.316 385.500 L 396.431 382.000 398.216 382.000 L 400.000 382.000 400.000 247.600 L 400.000 113.200 398.200 113.200 L 396.400 113.200 396.400 110.080 C 396.400 106.161,396.239 106.000,392.320 106.000 L 389.200 106.000 389.200 102.814 C 389.200 98.599,389.790 98.800,377.426 98.800 L 367.200 98.800 367.187 95.700 C 367.179 93.759,366.976 92.338,366.643 91.900 C 366.019 91.077,35.200 90.778,35.200 91.600 M346.000 180.779 C 346.000 184.701,346.845 185.600,350.530 185.600 L 353.169 185.600 353.284 189.100 L 353.400 192.600 357.000 192.816 L 360.600 193.032 357.000 193.216 L 353.400 193.400 353.284 196.900 L 353.169 200.400 350.284 200.406 C 346.360 200.414,346.236 200.531,346.061 204.383 L 345.915 207.600 276.610 207.600 L 207.305 207.600 207.111 204.579 C 206.872 200.843,206.679 200.650,203.002 200.464 L 200.030 200.314 199.915 196.857 L 199.800 193.400 196.200 193.216 L 192.600 193.032 196.200 192.816 L 199.800 192.600 199.916 189.100 L 200.031 185.600 202.670 185.600 C 206.355 185.600,207.200 184.701,207.200 180.779 L 207.200 178.000 276.600 178.000 L 346.000 178.000 346.000 180.779 M113.284 203.500 L 113.400 207.000 116.885 207.115 L 120.369 207.231 120.485 210.715 L 120.600 214.200 124.100 214.316 L 127.600 214.431 127.600 229.216 L 127.600 244.000 124.480 244.000 C 120.561 244.000,120.400 244.161,120.400 248.080 L 120.400 251.200 117.547 251.200 C 113.730 251.200,113.200 251.768,113.200 255.861 L 113.200 258.800 98.400 258.800 L 83.600 258.800 83.594 256.500 C 83.587 253.790,82.925 252.250,81.690 252.072 C 81.200 252.002,80.800 251.777,80.800 251.572 C 80.800 251.367,79.829 251.200,78.642 251.200 L 76.485 251.200 76.339 247.983 C 76.164 244.129,76.041 244.014,72.100 244.006 L 69.200 244.000 69.200 229.216 L 69.200 214.431 72.700 214.316 L 76.200 214.200 76.315 210.715 L 76.431 207.231 79.915 207.115 L 83.400 207.000 83.516 203.500 L 83.631 200.000 98.400 200.000 L 113.169 200.000 113.284 203.500 M346.084 254.300 L 346.200 257.800 349.700 257.916 L 353.200 258.031 353.200 261.183 C 353.200 265.715,353.090 265.591,357.143 265.654 L 360.600 265.709 357.651 266.018 C 353.927 266.408,353.552 266.782,353.295 270.365 L 353.093 273.200 350.175 273.200 C 346.330 273.200,346.000 273.535,346.000 277.429 L 346.000 280.400 276.653 280.400 L 207.305 280.400 207.111 277.379 C 206.872 273.648,206.676 273.450,203.041 273.266 L 200.108 273.118 199.878 270.654 C 199.512 266.734,199.190 266.479,193.800 265.858 C 193.140 265.782,194.156 265.693,196.057 265.660 C 200.111 265.590,200.000 265.716,200.000 261.167 L 200.000 258.000 203.120 258.000 C 207.039 258.000,207.200 257.839,207.200 253.920 L 207.200 250.800 276.584 250.800 L 345.969 250.800 346.084 254.300 M120.484 290.700 L 120.600 294.200 124.300 294.315 L 128.000 294.430 128.000 296.215 C 128.000 297.197,128.180 298.000,128.400 298.000 C 128.620 298.000,128.800 298.332,128.800 298.738 C 128.800 300.067,130.268 300.939,132.815 301.124 C 134.127 301.219,135.200 301.455,135.200 301.648 C 135.200 301.842,136.793 302.000,138.740 302.000 L 142.280 302.000 142.505 307.366 C 142.795 314.283,143.273 315.459,145.937 315.803 C 149.839 316.307,149.555 315.997,149.684 319.904 L 149.800 323.400 153.300 323.516 L 156.800 323.631 156.800 331.216 L 156.800 338.800 98.400 338.800 L 40.000 338.800 40.000 331.200 L 40.000 323.600 43.120 323.600 C 47.342 323.600,47.200 323.866,47.200 315.936 L 47.200 309.231 50.700 309.116 L 54.200 309.000 54.316 305.500 L 54.431 302.000 57.644 302.000 C 61.801 302.000,62.000 301.801,62.000 297.638 L 62.000 294.418 69.100 294.309 L 76.200 294.200 76.316 290.700 L 76.431 287.200 98.400 287.200 L 120.369 287.200 120.484 290.700 M353.284 334.300 L 353.400 337.800 356.928 337.916 C 360.507 338.034,361.812 338.875,358.769 339.102 C 354.124 339.450,353.675 340.175,353.320 347.900 L 353.077 353.200 276.599 353.200 L 200.122 353.200 199.874 348.300 C 199.483 340.582,198.620 339.200,194.192 339.200 C 190.789 339.200,192.702 338.034,196.300 337.916 L 199.800 337.800 199.916 334.300 L 200.031 330.800 276.600 330.800 L 353.169 330.800 353.284 334.300 " stroke="none" fill="#008cd7" fill-rule="evenodd"></path><path id="path1" d="" stroke="none" fill="#008cd7" fill-rule="evenodd"></path></g></svg>