<?xml version="1.0" standalone="no"?>
<!DOCTYPE svg PUBLIC "-//W3C//DTD SVG 20010904//EN"
 "http://www.w3.org/TR/2001/REC-SVG-20010904/DTD/svg10.dtd">
<svg version="1.0" xmlns="http://www.w3.org/2000/svg"
 width="400.000000pt" height="400.000000pt" viewBox="0 0 400.000000 400.000000"
 preserveAspectRatio="xMidYMid meet">

<g transform="translate(0.000000,400.000000) scale(0.100000,-0.100000)"
fill="#008cd7" stroke="none">
<path d="M809 3990 c-307 -37 -572 -226 -714 -509 -20 -41 -49 -118 -64 -170
l-26 -96 0 -1215 0 -1215 26 -96 c47 -170 131 -311 255 -430 119 -113 243
-183 403 -228 l96 -26 1215 0 1215 0 96 26 c160 45 284 115 403 228 124 119
208 260 255 430 l26 96 0 1215 0 1215 -26 96 c-45 160 -115 284 -228 403 -119
124 -261 208 -430 254 l-96 27 -1170 1 c-643 1 -1200 -2 -1236 -6z m2239 -416
c9 -2 12 -58 12 -232 0 -126 -3 -249 -6 -274 l-6 -45 -222 -8 c-141 -4 -232
-12 -252 -20 -17 -7 -47 -30 -68 -51 -59 -61 -67 -105 -64 -360 l3 -219 293
-7 c162 -3 296 -9 299 -12 3 -3 -6 -97 -21 -208 -15 -112 -32 -239 -37 -283
-6 -44 -12 -89 -15 -101 -3 -20 -12 -21 -140 -27 -76 -4 -193 -7 -261 -7
l-123 0 0 -760 0 -760 -315 0 -315 0 0 759 0 759 -251 4 c-205 3 -252 6 -259
18 -13 20 -13 581 0 600 8 13 50 16 260 18 l250 4 0 302 c0 274 2 310 21 387
58 230 224 414 448 493 85 30 89 30 346 36 242 6 393 4 423 -6z"/>
</g>
</svg>
